<?xml version="1.0" standalone="no"?>
<!DOCTYPE svg PUBLIC "-//W3C//DTD SVG 1.1//EN" "http://www.w3.org/Graphics/SVG/1.1/DTD/svg11.dtd" >
<svg xmlns="http://www.w3.org/2000/svg" xmlns:xlink="http://www.w3.org/1999/xlink" version="1.1">
<metadata>
Created by FontForge 20190801 at Wed Aug 11 22:55:01 2021
 By www-data
Copyright 2011 The Lemonada Project Authors (https://github.com/Gue3bara/Lemonada)
</metadata>
<defs>
<font id="LemonadaVariableFont_wght" horiz-adv-x="0" >
  <font-face 
    font-family="LemonadaVariableFont_wght"
    font-weight="400"
    font-stretch="normal"
    units-per-em="1000"
    panose-1="0 0 0 0 0 0 0 0 0 0"
    ascent="800"
    descent="-200"
    x-height="600"
    cap-height="726"
    bbox="-129 -566 1675.67 1345"
    underline-thickness="50"
    underline-position="-125"
    unicode-range="U+000D-FEFC"
  />
<missing-glyph horiz-adv-x="633" 
d="M-49 -25l116 735h633l-116 -735h-633zM88 53h384l92 578h-383z" />
    <glyph glyph-name="uniFDF2" unicode="&#x627;&#xfedf;&#xfee0;&#xfeea;" horiz-adv-x="1634" arabic-form="isolated" 
d="M612 -25l16 100h165l-36 -10q1 28 6.5 75t14 105t18.5 120.5t20.5 122.5t19.5 111l19 -45l-66 77q23 19 55 30.5t60 11.5q26 0 39 -11.5t13 -35.5q0 -22 -8.5 -64.5t-20.5 -99.5t-24 -124.5t-20.5 -140t-8.5 -145.5l-49 -77h-213zM950 -25q-38 0 -60.5 21t-30.5 55
l42 -24h-97l90 253q-4 -29 -7 -54.5t-3 -44.5q0 -46 24 -76t70 -30h73l-15 -100h-86zM1012 -25q-11 0 -13.5 13t1.5 37q5 23 11 36.5t17 13.5zM1012 -25l16 100h154l-36 -10q1 28 8.5 85t19 130t24 150.5t25 148t22.5 121.5l18 -44l-66 76q23 19 55 31t60 12q26 0 39 -11.5
t13 -35.5q0 -19 -7.5 -59t-19 -95.5t-24 -121t-24 -134.5t-19 -137t-7.5 -129l-49 -77h-202zM293 -25q-75 0 -130 30.5t-85 90t-30 145.5q0 83 28 150t76 114.5t109.5 73t128.5 25.5q55 0 95.5 -15t67.5 -37t38 -45l-82 -455l-50 -77h-166zM401 68l79 445l5 -44
q-10 15 -36 25t-61 10q-65 0 -117 -34t-82 -94t-30 -140t33.5 -120.5t100.5 -40.5h119zM666 -25l17 100q11 0 13 -13t-2 -37q-4 -22 -10.5 -36t-17.5 -14zM406 -25l50 100h227l-17 -100h-260zM866 757q-36 0 -52 17.5t-19.5 42t-3.5 46.5q0 17 -1 33t-6 32q11 8 21.5 10.5
t17.5 2.5q18 0 25 -12t7 -47q0 -21 -2 -36.5t-4 -23.5q12 -1 25.5 10.5t13.5 45.5q0 11 -1.5 24.5t-5.5 25.5q11 8 21 10.5t17 2.5q19 0 26 -12t7 -46q0 -22 -2 -37.5t-4 -23.5q13 -1 26.5 10.5t13.5 47.5q0 9 -1.5 22.5t-5.5 25.5q11 8 21 10.5t17 2.5q20 0 26.5 -12.5
t6.5 -42.5q0 -33 -7.5 -62.5t-25.5 -48t-51 -18.5q-19 0 -31.5 5.5t-19.5 9.5q-9 -7 -20 -11t-29 -4zM928 1010q-7 0 -15.5 2t-20.5 7q2 5 4 17.5t2 25.5q0 21 -3.5 47t-7 51t-3.5 42q0 18 7 25.5t20 7.5q14 0 28 -5t22 -10q-4 -7 -5.5 -19.5t-1.5 -28.5q0 -13 1 -33.5
t2 -42t1 -38.5q0 -25 -6 -36.5t-24 -11.5zM1474 -25q-31 0 -47.5 19.5t-16.5 55.5q0 20 5 63t13 101.5t18.5 124t21.5 132t21.5 126t18.5 104.5l19 -45l-66 76q25 20 57.5 31.5t57.5 11.5t38.5 -11.5t13.5 -34.5q0 -18 -7.5 -59t-19 -97.5t-24 -121.5t-24 -132.5t-19 -130
t-7.5 -112.5q0 -18 1.5 -31t6.5 -23t13 -19q-15 -13 -34 -20.5t-40 -7.5z" />
    <glyph glyph-name="uniFEF5" unicode="&#xfedf;&#xfe82;" horiz-adv-x="766" arabic-form="isolated" 
d="M155 -25q-50 0 -78.5 4t-40 15t-11.5 32q0 16 5.5 32t15.5 29q21 -4 42 -6.5t45.5 -4t56.5 -1.5h78l-39 -25q7 50 16 107.5t18 114t16.5 104.5t13 80t6.5 40l21 -34l-66 76q25 20 57 31.5t59 11.5q28 0 39.5 -12.5t11.5 -42.5q0 -13 -6.5 -47.5t-16.5 -83.5t-21 -107
t-21.5 -120t-17.5 -121l-31 28h275l-36 -10q2 28 9.5 85t18.5 130t24 150.5t25 148t22 121.5l19 -44l-66 76q23 19 55 31t60 12q26 0 39 -11.5t13 -35.5q0 -19 -7.5 -59t-19 -96t-24 -121.5t-24 -134.5t-19 -137t-7.5 -128l-52 -77h-457zM266 635q-23 0 -31 9t-8 25
q0 15 4 30t10 29q12 -4 25 -7.5t31 -3.5q32 0 59.5 9t53.5 17.5t51 8.5q23 0 31 -9t8 -26q0 -28 -15 -58q-11 4 -24 6.5t-30 2.5q-32 0 -60 -8t-53.5 -16.5t-51.5 -8.5z" />
    <glyph glyph-name="uniFEF6" unicode="&#xfee0;&#xfe82;" horiz-adv-x="863" arabic-form="final" 
d="M739 -25q-38 0 -60 21t-31 55l42 -24h-96l90 253q-4 -29 -7.5 -54.5t-3.5 -44.5q0 -46 24.5 -76t70.5 -30h62l-17 -100h-74zM155 -25q-50 0 -78.5 4t-40 15t-11.5 32q0 16 5.5 32t15.5 29q21 -4 42 -6.5t45.5 -4t56.5 -1.5h78l-39 -25q7 50 16 107.5t18 114t16.5 104.5
t13 80t6.5 40l21 -34l-66 76q25 20 57 31.5t59 11.5q28 0 39.5 -12.5t11.5 -42.5q0 -13 -6.5 -47.5t-16.5 -83.5t-21 -107t-21.5 -120t-17.5 -121l-31 28h275l-36 -10q2 28 9.5 85t18.5 130t24 150.5t25 148t22 121.5l19 -44l-66 76q23 19 55 31t60 12q26 0 39 -11.5
t13 -35.5q0 -19 -7.5 -59t-19 -96t-24 -121.5t-24 -134.5t-19 -137t-7.5 -128l-52 -77h-457zM813 -25l17 100q11 0 13 -13t-2 -37q-4 -22 -10.5 -36t-17.5 -14zM266 635q-23 0 -31 9t-8 25q0 15 4 30t10 29q12 -4 25 -7.5t31 -3.5q32 0 59.5 9t53.5 17.5t51 8.5q23 0 31 -9
t8 -26q0 -28 -15 -58q-11 4 -24 6.5t-30 2.5q-32 0 -60 -8t-53.5 -16.5t-51.5 -8.5z" />
    <glyph glyph-name="uniFEF7" unicode="&#xfedf;&#xfe84;" horiz-adv-x="766" arabic-form="isolated" 
d="M155 -25q-50 0 -78.5 4t-40 15t-11.5 32q0 16 5.5 32t15.5 29q21 -4 42 -6.5t45.5 -4t56.5 -1.5h78l-39 -25q7 50 16 107.5t18 114t16.5 104.5t13 80t6.5 40l21 -34l-66 76q25 20 57 31.5t59 11.5q28 0 39.5 -12.5t11.5 -42.5q0 -13 -6.5 -47.5t-16.5 -83.5t-21 -107
t-21.5 -120t-17.5 -121l-31 28h275l-36 -10q2 28 9.5 85t18.5 130t24 150.5t25 148t22 121.5l19 -44l-66 76q23 19 55 31t60 12q26 0 39 -11.5t13 -35.5q0 -19 -7.5 -59t-19 -96t-24 -121.5t-24 -134.5t-19 -137t-7.5 -128l-52 -77h-457zM269 634q-24 0 -32 9.5t-8 25.5
q0 14 4 29t11 29q11 -4 24 -7t27 -3t30 2.5t29 5.5l5 -19q-30 16 -49 36t-27.5 43t-8.5 46t8 38.5t21.5 26t31.5 15t39 4.5q19 0 40 -3.5t39 -11t29.5 -18.5t11.5 -25q-1 -13 -13 -26t-38 -10q-16 2 -27.5 12t-17.5 23q-22 -1 -35 -14t-13 -36q0 -17 7 -32.5t19 -29
t27 -25.5l-50 6q41 11 63 18.5t46 7.5t32 -8t8 -25q0 -31 -14 -59q-11 4 -24 6.5t-29 2.5q-32 0 -61 -8.5t-54.5 -17t-50.5 -8.5z" />
    <glyph glyph-name="uniFEF8" unicode="&#xfee0;&#xfe84;" horiz-adv-x="863" arabic-form="final" 
d="M739 -25q-38 0 -60 21t-31 55l42 -24h-96l90 253q-4 -29 -7.5 -54.5t-3.5 -44.5q0 -46 24.5 -76t70.5 -30h62l-17 -100h-74zM155 -25q-50 0 -78.5 4t-40 15t-11.5 32q0 16 5.5 32t15.5 29q21 -4 42 -6.5t45.5 -4t56.5 -1.5h78l-39 -25q7 50 16 107.5t18 114t16.5 104.5
t13 80t6.5 40l21 -34l-66 76q25 20 57 31.5t59 11.5q28 0 39.5 -12.5t11.5 -42.5q0 -13 -6.5 -47.5t-16.5 -83.5t-21 -107t-21.5 -120t-17.5 -121l-31 28h275l-36 -10q2 28 9.5 85t18.5 130t24 150.5t25 148t22 121.5l19 -44l-66 76q23 19 55 31t60 12q26 0 39 -11.5
t13 -35.5q0 -19 -7.5 -59t-19 -96t-24 -121.5t-24 -134.5t-19 -137t-7.5 -128l-52 -77h-457zM813 -25l17 100q11 0 13 -13t-2 -37q-4 -22 -10.5 -36t-17.5 -14zM269 634q-24 0 -32 9.5t-8 25.5q0 14 4 29t11 29q11 -4 24 -7t27 -3t30 2.5t29 5.5l5 -19q-30 16 -49 36
t-27.5 43t-8.5 46t8 38.5t21.5 26t31.5 15t39 4.5q19 0 40 -3.5t39 -11t29.5 -18.5t11.5 -25q-1 -13 -13 -26t-38 -10q-16 2 -27.5 12t-17.5 23q-22 -1 -35 -14t-13 -36q0 -17 7 -32.5t19 -29t27 -25.5l-50 6q41 11 63 18.5t46 7.5t32 -8t8 -25q0 -31 -14 -59q-11 4 -24 6.5
t-29 2.5q-32 0 -61 -8.5t-54.5 -17t-50.5 -8.5z" />
    <glyph glyph-name="uniFEF9" unicode="&#xfedf;&#xfe88;" horiz-adv-x="766" arabic-form="isolated" 
d="M155 -25q-50 0 -78.5 4t-40 15t-11.5 32q0 16 5.5 32t15.5 29q21 -4 42 -6.5t45.5 -4t56.5 -1.5h78l-39 -25q7 50 16 107.5t18 114t16.5 104.5t13 80t6.5 40l21 -34l-66 76q25 20 57 31.5t59 11.5q28 0 39.5 -12.5t11.5 -42.5q0 -13 -6.5 -47.5t-16.5 -83.5t-21 -107
t-21.5 -120t-17.5 -121l-31 28h275l-36 -10q2 28 9.5 85t18.5 130t24 150.5t25 148t22 121.5l19 -44l-66 76q23 19 55 31t60 12q26 0 39 -11.5t13 -35.5q0 -19 -7.5 -59t-19 -96t-24 -121.5t-24 -134.5t-19 -137t-7.5 -128l-52 -77h-457zM132 -392q-23 0 -31 9t-8 25
q0 14 4 29.5t10 28.5q12 -4 24.5 -6.5t27.5 -2.5q14 0 30 2t29 5l4 -19q-29 16 -48 36.5t-27.5 43t-8.5 45.5t8 38.5t21.5 26t31.5 15t38 4.5t41 -3.5t39 -11t29 -18.5t11 -25q-1 -13 -12.5 -26t-37.5 -9q-17 1 -28.5 11t-16.5 23q-23 -1 -35.5 -14t-12.5 -36q0 -17 7 -32.5
t19 -29t27 -25.5l-50 6q41 11 63 19t45 8q25 0 33 -8.5t8 -25.5q0 -14 -4 -29.5t-11 -29.5q-11 4 -24 6.5t-29 2.5q-32 0 -60.5 -8t-54.5 -16.5t-51 -8.5z" />
    <glyph glyph-name="uniFEFA" unicode="&#xfee0;&#xfe88;" horiz-adv-x="863" arabic-form="final" 
d="M739 -25q-38 0 -60 21t-31 55l42 -24h-96l90 253q-4 -29 -7.5 -54.5t-3.5 -44.5q0 -46 24.5 -76t70.5 -30h62l-17 -100h-74zM155 -25q-50 0 -78.5 4t-40 15t-11.5 32q0 16 5.5 32t15.5 29q21 -4 42 -6.5t45.5 -4t56.5 -1.5h78l-39 -25q7 50 16 107.5t18 114t16.5 104.5
t13 80t6.5 40l21 -34l-66 76q25 20 57 31.5t59 11.5q28 0 39.5 -12.5t11.5 -42.5q0 -13 -6.5 -47.5t-16.5 -83.5t-21 -107t-21.5 -120t-17.5 -121l-31 28h275l-36 -10q2 28 9.5 85t18.5 130t24 150.5t25 148t22 121.5l19 -44l-66 76q23 19 55 31t60 12q26 0 39 -11.5
t13 -35.5q0 -19 -7.5 -59t-19 -96t-24 -121.5t-24 -134.5t-19 -137t-7.5 -128l-52 -77h-457zM813 -25l17 100q11 0 13 -13t-2 -37q-4 -22 -10.5 -36t-17.5 -14zM132 -392q-23 0 -31 9t-8 25q0 14 4 29.5t10 28.5q12 -4 24.5 -6.5t27.5 -2.5q14 0 30 2t29 5l4 -19
q-29 16 -48 36.5t-27.5 43t-8.5 45.5t8 38.5t21.5 26t31.5 15t38 4.5t41 -3.5t39 -11t29 -18.5t11 -25q-1 -13 -12.5 -26t-37.5 -9q-17 1 -28.5 11t-16.5 23q-23 -1 -35.5 -14t-12.5 -36q0 -17 7 -32.5t19 -29t27 -25.5l-50 6q41 11 63 19t45 8q25 0 33 -8.5t8 -25.5
q0 -14 -4 -29.5t-11 -29.5q-11 4 -24 6.5t-29 2.5q-32 0 -60.5 -8t-54.5 -16.5t-51 -8.5z" />
    <glyph glyph-name="uniFEFB" unicode="&#xfedf;&#xfe8e;" horiz-adv-x="766" arabic-form="isolated" 
d="M155 -25q-50 0 -78.5 4t-40 15t-11.5 32q0 16 5.5 32t15.5 29q21 -4 42 -6.5t45.5 -4t56.5 -1.5h78l-39 -25q7 50 16 107.5t18 114t16.5 104.5t13 80t6.5 40l21 -34l-66 76q25 20 57 31.5t59 11.5q28 0 39.5 -12.5t11.5 -42.5q0 -13 -6.5 -47.5t-16.5 -83.5t-21 -107
t-21.5 -120t-17.5 -121l-31 28h275l-36 -10q2 28 9.5 85t18.5 130t24 150.5t25 148t22 121.5l19 -44l-66 76q23 19 55 31t60 12q26 0 39 -11.5t13 -35.5q0 -19 -7.5 -59t-19 -96t-24 -121.5t-24 -134.5t-19 -137t-7.5 -128l-52 -77h-457z" />
    <glyph glyph-name="uniFEFC" unicode="&#xfee0;&#xfe8e;" horiz-adv-x="863" arabic-form="final" 
d="M739 -25q-38 0 -60 21t-31 55l42 -24h-96l90 253q-4 -29 -7.5 -54.5t-3.5 -44.5q0 -46 24.5 -76t70.5 -30h62l-17 -100h-74zM155 -25q-50 0 -78.5 4t-40 15t-11.5 32q0 16 5.5 32t15.5 29q21 -4 42 -6.5t45.5 -4t56.5 -1.5h78l-39 -25q7 50 16 107.5t18 114t16.5 104.5
t13 80t6.5 40l21 -34l-66 76q25 20 57 31.5t59 11.5q28 0 39.5 -12.5t11.5 -42.5q0 -13 -6.5 -47.5t-16.5 -83.5t-21 -107t-21.5 -120t-17.5 -121l-31 28h275l-36 -10q2 28 9.5 85t18.5 130t24 150.5t25 148t22 121.5l19 -44l-66 76q23 19 55 31t60 12q26 0 39 -11.5
t13 -35.5q0 -19 -7.5 -59t-19 -96t-24 -121.5t-24 -134.5t-19 -137t-7.5 -128l-52 -77h-457zM813 -25l17 100q11 0 13 -13t-2 -37q-4 -22 -10.5 -36t-17.5 -14z" />
    <glyph glyph-name="lam_alefWaslaar" unicode="&#xfedf;&#xfb51;" horiz-adv-x="766" 
d="M155 -25q-50 0 -78.5 4t-40 15t-11.5 32q0 16 5.5 32t15.5 29q21 -4 42 -6.5t45.5 -4t56.5 -1.5h78l-39 -25q7 50 16 107.5t18 114t16.5 104.5t13 80t6.5 40l21 -34l-66 76q25 20 57 31.5t59 11.5q28 0 39.5 -12.5t11.5 -42.5q0 -13 -6.5 -47.5t-16.5 -83.5t-21 -107
t-21.5 -120t-17.5 -121l-31 28h275l-36 -10q2 28 9.5 85t18.5 130t24 150.5t25 148t22 121.5l19 -44l-66 76q23 19 55 31t60 12q26 0 39 -11.5t13 -35.5q0 -19 -7.5 -59t-19 -96t-24 -121.5t-24 -134.5t-19 -137t-7.5 -128l-52 -77h-457zM262 635q-23 0 -31.5 9.5t-8.5 25.5
q0 13 4 27t11 31q7 -1 14.5 -3.5t14.5 -3.5q-2 14 -2 31q0 53 20.5 87t53 51t67.5 17q46 0 78 -29t32 -88q0 -29 -8 -52.5t-20 -41.5t-24 -32q-5 2 -13.5 3t-19.5 1q-34 0 -62.5 -8t-54 -16.5t-51.5 -8.5zM477 707q8 53 -2 81.5t-30 39.5t-44 11q-46 0 -74.5 -31.5
t-30.5 -89.5q34 2 61 10t51 16t47 8q13 0 24 -3.5t11 -10.5z" />
    <glyph glyph-name="lam_alefWaslaar.fina" unicode="&#xfee0;&#xfb51;" horiz-adv-x="850" 
d="M262 635q-23 0 -31.5 9.5t-8.5 25.5q0 13 4 27t11 31q7 -1 14.5 -3.5t14.5 -3.5q-2 14 -2 31q0 53 20.5 87t53 51t67.5 17q46 0 78 -29t32 -88q0 -29 -8 -52.5t-20 -41.5t-24 -32q-5 2 -13.5 3t-19.5 1q-34 0 -62.5 -8t-54 -16.5t-51.5 -8.5zM477 707q8 53 -2 81.5
t-30 39.5t-44 11q-46 0 -74.5 -31.5t-30.5 -89.5q34 2 61 10t51 16t47 8q13 0 24 -3.5t11 -10.5zM739 -25q-38 0 -60 21t-31 55l42 -24h-96l90 253q-4 -29 -7.5 -54.5t-3.5 -44.5q0 -46 24.5 -76t70.5 -30h62l-17 -100h-74zM155 -25q-50 0 -78.5 4t-40 15t-11.5 32
q0 16 5.5 32t15.5 29q21 -4 42 -6.5t45.5 -4t56.5 -1.5h78l-39 -25q7 50 16 107.5t18 114t16.5 104.5t13 80t6.5 40l21 -34l-66 76q25 20 57 31.5t59 11.5q28 0 39.5 -12.5t11.5 -42.5q0 -13 -6.5 -47.5t-16.5 -83.5t-21 -107t-21.5 -120t-17.5 -121l-31 28h275l-36 -10
q2 28 9.5 85t18.5 130t24 150.5t25 148t22 121.5l19 -44l-66 76q23 19 55 31t60 12q26 0 39 -11.5t13 -35.5q0 -19 -7.5 -59t-19 -96t-24 -121.5t-24 -134.5t-19 -137t-7.5 -128l-52 -77h-457zM813 -25l17 100q11 0 13 -13t-2 -37q-4 -22 -10.5 -36t-17.5 -14z" />
    <glyph glyph-name="uni066E.init" unicode="&#x66e;" horiz-adv-x="316" 
d="M-49 -25l16 100h143l-22 -20q1 44 8.5 97.5t18 107t21.5 99t18.5 74.5t8.5 33l6 -46l-62 68q25 20 56.5 31t59.5 11q27 0 39.5 -12t12.5 -41q0 -7 -7.5 -38.5t-18.5 -79t-22.5 -102.5t-19.5 -109t-9 -97l-49 -76h-198zM-49 -25q-11 0 -13.5 13t1.5 37q5 23 11 36.5
t17 13.5z" />
    <glyph glyph-name="uni066E.medi" unicode="&#x66e;" horiz-adv-x="389" 
d="M-49 -25l16 100h148l-35 -35v36q0 22 6 55.5t14.5 72.5t17 79.5t14 77.5t5.5 66q0 21 -3 40.5t-8 35.5q20 12 41.5 19.5t40.5 7.5q27 0 39.5 -16.5t12.5 -48.5q0 -27 -7 -63t-16 -75t-16 -75.5t-7 -66.5q0 -51 24.5 -80.5t70.5 -29.5h46l-16 -100h-72q-37 0 -59.5 21
t-30.5 55l31 -24h-31l-34 -52h-192zM339 -25l17 100q11 0 13 -13t-2 -37q-4 -22 -10.5 -36t-17.5 -14zM-49 -25q-11 0 -13.5 13t1.5 37q5 23 11 36.5t17 13.5z" />
    <glyph glyph-name="uni066E.fina" unicode="&#x66e;" horiz-adv-x="1080" 
d="M956 -25q-38 0 -60.5 21t-30.5 55l42 -24h-97l104 253q-5 -28 -9 -54.5t-4 -45.5q0 -46 25 -75.5t71 -29.5h50l-17 -100h-74zM236 -25q-85 0 -123 40.5t-38 131.5q0 47 7.5 84.5t14.5 73t7 76.5q0 26 -3.5 45.5t-8.5 34.5q20 11 40 19.5t41 8.5q26 0 38.5 -16.5
t12.5 -51.5q0 -37 -9.5 -81.5t-19.5 -92.5t-10 -96q0 -47 15.5 -61.5t55.5 -14.5h537l-22 -20q1 44 8.5 97.5t18 107t21.5 99t18.5 74.5t8.5 33l6 -46l-62 68q25 20 56.5 31t58.5 11q28 0 40.5 -12t12.5 -41q0 -7 -7.5 -38.5t-18.5 -79t-22.5 -102.5t-19.5 -109t-9 -97
l-49 -76h-596zM1030 -25l17 100q11 0 13 -13t-2 -37q-4 -22 -10.5 -36t-17.5 -14z" />
    <glyph glyph-name="uni066F.init" unicode="&#x66f;" horiz-adv-x="676" 
d="M-49 -25l16 100h203l-23 -25q-23 35 -34.5 79t-11.5 97q0 83 24.5 153t69.5 121t106 79t134 28q46 0 82.5 -10t62.5 -25t43 -30t24 -25q0 -5 -6 -31.5t-15.5 -67t-20.5 -89t-20.5 -99t-16 -97t-7.5 -82.5l-49 -76h-561zM450 55q1 40 8 90t17.5 103t21.5 101.5t20.5 86.5
t14.5 57l1 -13q-9 8 -35 17t-62 9q-59 0 -110 -31.5t-82.5 -93.5t-31.5 -152q0 -54 11 -87t25 -49.5t22 -24.5l-31 7h242zM-49 -25q-11 0 -13.5 13t1.5 37q5 23 11 36.5t17 13.5z" />
    <glyph glyph-name="uni066F.medi" unicode="&#x66f;" horiz-adv-x="760" 
d="M636 -25q-37 0 -59.5 21t-30.5 55l41 -24h-96l104 254q-6 -28 -10 -55t-4 -46q0 -46 25 -75.5t71 -29.5h49l-16 -100h-74zM-49 -25l16 100h203l-23 -25q-23 35 -34.5 79t-11.5 97q0 83 24.5 153t69.5 121t106 79t134 28q46 0 82.5 -10t62.5 -25t43 -30t24 -25
q0 -5 -6 -31.5t-15.5 -67t-20.5 -89t-20.5 -99t-16 -97t-7.5 -82.5l-49 -76h-561zM450 55q1 40 8 90t17.5 103t21.5 101.5t20.5 86.5t14.5 57l1 -13q-9 8 -35 17t-62 9q-59 0 -110 -31.5t-82.5 -93.5t-31.5 -152q0 -54 11 -87t25 -49.5t22 -24.5l-31 7h242zM-49 -25
q-11 0 -13.5 13t1.5 37q5 23 11 36.5t17 13.5zM710 -25l17 100q11 0 13 -13t-2 -37q-4 -22 -10.5 -36t-17.5 -14z" />
    <glyph glyph-name="uni066F.fina" unicode="&#x66f;" horiz-adv-x="1200" 
d="M893 -25l64 100h209l-16 -100h-257zM463 -350q-95 0 -166.5 25.5t-122 68.5t-81.5 97t-45 111t-14 110q0 57 14 93.5t37.5 53.5t50.5 17q19 0 33 -7t22 -15t9 -10q-3 -1 -16.5 -15t-26 -45t-12.5 -85q0 -85 39.5 -153t111 -107t168.5 -39q110 0 198.5 52.5t151.5 151.5
t98 239.5t38 316.5l15 -38q-13 8 -43.5 21t-72.5 13q-43 0 -83 -18.5t-71 -54.5t-49 -87t-18 -117q0 -58 15 -92t44 -48t70 -14h150v-100h-152q-117 0 -177 65t-60 189q0 81 24 149.5t68.5 120t105.5 80t134 28.5q45 0 81 -10t62.5 -25t43.5 -30t24 -25q-1 -91 -14 -190
t-40.5 -196t-72.5 -183.5t-111 -153.5t-155 -105.5t-205 -38.5zM1150 -25l17 100q11 0 13 -13t-2 -37q-4 -22 -10.5 -36t-17.5 -14z" />
    <glyph glyph-name="uni06A1.init" unicode="&#x6a1;" horiz-adv-x="676" 
d="M-49 -25l16 100h203l-23 -25q-23 35 -34.5 79t-11.5 97q0 83 24.5 153t69.5 121t106 79t134 28q46 0 82.5 -10t62.5 -25t43 -30t24 -25q0 -5 -6 -31.5t-15.5 -67t-20.5 -89t-20.5 -99t-16 -97t-7.5 -82.5l-49 -76h-561zM450 55q1 40 8 90t17.5 103t21.5 101.5t20.5 86.5
t14.5 57l1 -13q-9 8 -35 17t-62 9q-59 0 -110 -31.5t-82.5 -93.5t-31.5 -152q0 -54 11 -87t25 -49.5t22 -24.5l-31 7h242zM-49 -25q-11 0 -13.5 13t1.5 37q5 23 11 36.5t17 13.5z" />
    <glyph glyph-name="uni06A1.medi" unicode="&#x6a1;" horiz-adv-x="760" 
d="M636 -25q-37 0 -59.5 21t-30.5 55l41 -24h-96l104 254q-6 -28 -10 -55t-4 -46q0 -46 25 -75.5t71 -29.5h49l-16 -100h-74zM-49 -25l16 100h203l-23 -25q-23 35 -34.5 79t-11.5 97q0 83 24.5 153t69.5 121t106 79t134 28q46 0 82.5 -10t62.5 -25t43 -30t24 -25
q0 -5 -6 -31.5t-15.5 -67t-20.5 -89t-20.5 -99t-16 -97t-7.5 -82.5l-49 -76h-561zM450 55q1 40 8 90t17.5 103t21.5 101.5t20.5 86.5t14.5 57l1 -13q-9 8 -35 17t-62 9q-59 0 -110 -31.5t-82.5 -93.5t-31.5 -152q0 -54 11 -87t25 -49.5t22 -24.5l-31 7h242zM-49 -25
q-11 0 -13.5 13t1.5 37q5 23 11 36.5t17 13.5zM710 -25l17 100q11 0 13 -13t-2 -37q-4 -22 -10.5 -36t-17.5 -14z" />
    <glyph glyph-name="uni06A1.fina" unicode="&#x6a1;" horiz-adv-x="1246" 
d="M1123 -25q-38 0 -60.5 21t-30.5 55l42 -24h-97l104 254q-6 -28 -10 -55t-4 -46q0 -46 25 -75.5t71 -29.5h49l-16 -100h-73zM236 -25q-85 0 -123 40.5t-38 131.5q0 47 7.5 84.5t14.5 73t7 76.5q0 26 -3.5 45.5t-8.5 34.5q20 11 40 19.5t41 8.5q26 0 38.5 -16.5t12.5 -51.5
q0 -37 -9.5 -81.5t-19.5 -92.5t-10 -96q0 -47 15.5 -61.5t55.5 -14.5h401l-23 -25q-23 35 -34.5 79t-11.5 97q0 83 24.5 153t69.5 121t106 79t134 28q46 0 82.5 -10t62.5 -25t43 -30t24 -25q0 -5 -6 -31.5t-15.5 -67t-20.5 -89t-20.5 -99t-16 -97t-7.5 -82.5l-49 -76h-763z
M937 55q1 40 8 90t17.5 103t21.5 101.5t20.5 86.5t14.5 57l1 -13q-9 8 -35 17t-62 9q-59 0 -110 -31.5t-82.5 -93.5t-31.5 -152q0 -54 11 -87t25 -49.5t22 -24.5l-31 7h242zM1196 -25l17 100q11 0 13 -13t-2 -37q-4 -22 -10.5 -36t-17.5 -14z" />
    <glyph glyph-name="uni06BA.init" unicode="&#x6ba;" horiz-adv-x="316" 
d="M-49 -25l16 100h143l-22 -20q1 44 8.5 97.5t18 107t21.5 99t18.5 74.5t8.5 33l6 -46l-62 68q25 20 56.5 31t59.5 11q27 0 39.5 -12t12.5 -41q0 -7 -7.5 -38.5t-18.5 -79t-22.5 -102.5t-19.5 -109t-9 -97l-49 -76h-198zM-49 -25q-11 0 -13.5 13t1.5 37q5 23 11 36.5
t17 13.5z" />
    <glyph glyph-name="uni06BA.medi" unicode="&#x6ba;" horiz-adv-x="389" 
d="M-49 -25l16 100h148l-35 -35v36q0 22 6 55.5t14.5 72.5t17 79.5t14 77.5t5.5 66q0 21 -3 40.5t-8 35.5q20 12 41.5 19.5t40.5 7.5q27 0 39.5 -16.5t12.5 -48.5q0 -27 -7 -63t-16 -75t-16 -75.5t-7 -66.5q0 -51 24.5 -80.5t70.5 -29.5h46l-16 -100h-72q-37 0 -59.5 21
t-30.5 55l31 -24h-31l-34 -52h-192zM339 -25l17 100q11 0 13 -13t-2 -37q-4 -22 -10.5 -36t-17.5 -14zM-49 -25q-11 0 -13.5 13t1.5 37q5 23 11 36.5t17 13.5z" />
    <glyph glyph-name="uni06C2.init" unicode="&#x6c2;" horiz-adv-x="316" 
d="M123 7l12 -32q-24 -12 -41.5 -33.5t-27.5 -44.5t-10 -42l51 -67q0 -22 -13 -42t-34 -32t-46 -12q-37 0 -57.5 25.5t-20.5 57.5q0 53 23 96t65.5 75t98.5 51zM-49 -25l16 100h143l-22 -20q1 44 8.5 97.5t18 107t21.5 99t18.5 74.5t8.5 33l6 -46l-62 68q25 20 56.5 31
t59.5 11q27 0 39.5 -12t12.5 -41q0 -7 -7.5 -38.5t-18.5 -79t-22.5 -102.5t-19.5 -109t-9 -97l-49 -76h-198zM-49 -25q-11 0 -13.5 13t1.5 37q5 23 11 36.5t17 13.5zM128 604q-24 0 -32 9.5t-8 25.5q0 14 4 29t11 29q11 -4 24 -7t27 -3t30 2.5t29 5.5l5 -19q-30 16 -48.5 36
t-27.5 43t-9 46t8 38.5t21.5 26t31.5 15t39 4.5q19 0 40 -3.5t39 -11t29.5 -18.5t11.5 -25q-1 -13 -13 -26t-38 -10q-16 2 -27.5 12t-17.5 23q-22 -1 -35 -14t-13 -36q0 -17 7 -32.5t19 -29t27 -25.5l-50 6q41 11 63 18.5t46 7.5t32 -8t8 -25q0 -31 -14 -59q-11 4 -24 6.5
t-29 2.5q-32 0 -61 -8.5t-54.5 -17t-50.5 -8.5z" />
    <glyph glyph-name="uni06C2.medi" unicode="&#x6c2;" horiz-adv-x="769" 
d="M292 -566q-67 0 -118 26.5t-80 85t-29 154.5q0 34 3 83.5t7.5 101t8.5 90.5h-133l16 100h177l58 -70q-4 -36 -9 -80t-9 -88t-6.5 -82.5t-2.5 -62.5q0 -84 32.5 -123.5t85.5 -39.5q24 0 52 8.5t53 26t42.5 45.5t20.5 67q5 52 10 112t9.5 117.5t7.5 102.5t3 67h244
l-16 -100h-157l37 24l-21 -297q-5 -65 -25.5 -111.5t-51.5 -77t-67.5 -48t-73 -24.5t-68.5 -7zM719 -25l17 100q11 0 13 -13t-2 -37q-4 -22 -10.5 -36t-17.5 -14zM-49 -25q-11 0 -13.5 13t1.5 37q5 23 11 36.5t17 13.5zM323 452q-24 0 -32 9.5t-8 25.5q0 14 4 29t11 29
q11 -4 24 -7t27 -3t30 2.5t29 5.5l5 -19q-30 16 -49 36t-27.5 43t-8.5 46t8 38.5t21.5 26t31.5 15t39 4.5q19 0 40 -3.5t39 -11t29.5 -18.5t11.5 -25q-1 -13 -13 -26t-38 -10q-16 2 -27.5 12t-17.5 23q-22 -1 -35 -14t-13 -36q0 -17 7 -32.5t19 -29t27 -25.5l-50 6
q41 11 63 18.5t46 7.5t32 -8t8 -25q0 -31 -14 -59q-11 4 -24 6.5t-29 2.5q-32 0 -61 -8.5t-54.5 -17t-50.5 -8.5z" />
    <glyph glyph-name="uni06C2.fina" unicode="&#x6c2;" horiz-adv-x="731" 
d="M292 679q-24 0 -32 9.5t-8 25.5q0 14 4 29t11 29q11 -4 24 -7t27 -3t30 2.5t29 5.5l5 -19q-30 16 -49 36t-27.5 43t-8.5 46t8 38.5t21.5 26t31.5 15t39 4.5q19 0 40 -3.5t39 -11t29.5 -18.5t11.5 -25q-1 -13 -13 -26t-38 -10q-16 2 -27.5 12t-17.5 23q-22 -1 -35 -14
t-13 -36q0 -17 7 -32.5t19 -29t27 -25.5l-50 6q41 11 63 18.5t46 7.5t32 -8t8 -25q0 -31 -14 -59q-11 4 -24 6.5t-29 2.5q-32 0 -61 -8.5t-54.5 -17t-50.5 -8.5zM421 -25l50 100h227l-17 -100h-260zM308 -25q-75 0 -130 30.5t-85 90t-30 145.5q0 83 28 150t76 114.5
t109.5 73t128.5 25.5q55 0 95.5 -15t67.5 -37t38 -45l-82 -455l-50 -77h-166zM416 68l79 445l5 -44q-10 15 -36 25t-61 10q-65 0 -117 -34t-82 -94t-30 -140t33.5 -120.5t100.5 -40.5h119zM681 -25l17 100q11 0 13 -13t-2 -37q-4 -22 -10.5 -36t-17.5 -14z" />
    <glyph glyph-name="uni06C3.fina" unicode="&#x6c3;" horiz-adv-x="728" 
d="M87 -128q-33 0 -49.5 31t-11.5 80l47 350q9 64 29 110t47 76.5t59.5 48.5t66 25.5t65.5 7.5q50 0 93.5 -14.5t77 -46t52 -82.5t18.5 -123q0 -34 -5.5 -81t-13 -95t-15.5 -84h149l-17 -100h-192l-58 70q7 34 14.5 75t13.5 83t10 79t4 61q0 56 -18.5 92t-48.5 53.5
t-66 17.5q-32 0 -63 -14.5t-54 -47t-31 -85.5q-6 -40 -13.5 -89t-14.5 -99t-13 -93.5t-9 -72.5q-4 -37 2 -65t19 -39q-14 -13 -33 -21t-41 -8zM678 -25l17 100q11 0 13 -13t-2 -37q-4 -22 -10.5 -36t-17.5 -14zM434 695q-28 0 -45.5 15t-17.5 38q0 36 24 57.5t61 21.5
q29 0 46 -14.5t17 -39.5q0 -34 -23.5 -56t-61.5 -22zM271 695q-28 0 -45 15t-17 38q0 36 24 57.5t61 21.5q29 0 45.5 -14.5t16.5 -39.5q0 -34 -23.5 -56t-61.5 -22z" />
    <glyph glyph-name="uniFB51" unicode="&#x671;" horiz-adv-x="373" arabic-form="final" 
d="M291 -25q-49 0 -97 15t-80 34l35 51h190l-16 -100h-32zM136 -25q-30 0 -47 18.5t-17 55.5q0 18 4 54.5t11 85.5t15 103.5t17 108.5t16.5 101.5t13.5 81t8 47.5l20 -36l-66 77q25 20 57 31.5t58 11.5q25 0 38.5 -11.5t13.5 -34.5q0 -17 -6.5 -54.5t-16.5 -88t-21.5 -109.5
t-21.5 -119t-16.5 -116t-6.5 -101q0 -24 2.5 -38t7 -23t11.5 -17q-16 -13 -35.5 -20.5t-38.5 -7.5zM323 -25l17 100q11 0 13 -13t-2 -37q-4 -22 -10.5 -36t-17.5 -14zM120 760q-23 0 -31.5 9.5t-8.5 25.5q0 13 4 27t11 31q7 -1 14.5 -3.5t14.5 -3.5q-2 14 -2 31
q0 53 20.5 87t53 51t67.5 17q46 0 78 -29t32 -88q0 -29 -8 -52.5t-20 -41.5t-24 -32q-5 2 -13.5 3t-19.5 1q-34 0 -62.5 -8t-54 -16.5t-51.5 -8.5zM335 832q8 53 -2 81.5t-30 39.5t-44 11q-46 0 -74.5 -31.5t-30.5 -89.5q34 2 61 10t51 16t47 8q13 0 24 -3.5t11 -10.5z" />
    <glyph glyph-name="uniFB57" unicode="&#x67e;" horiz-adv-x="1080" arabic-form="final" 
d="M956 -25q-38 0 -60.5 21t-30.5 55l42 -24h-97l104 253q-5 -28 -9 -54.5t-4 -45.5q0 -46 25 -75.5t71 -29.5h50l-17 -100h-74zM236 -25q-85 0 -123 40.5t-38 131.5q0 47 7.5 84.5t14.5 73t7 76.5q0 26 -3.5 45.5t-8.5 34.5q20 11 40 19.5t41 8.5q26 0 38.5 -16.5
t12.5 -51.5q0 -37 -9.5 -81.5t-19.5 -92.5t-10 -96q0 -47 15.5 -61.5t55.5 -14.5h537l-22 -20q1 44 8.5 97.5t18 107t21.5 99t18.5 74.5t8.5 33l6 -46l-62 68q25 20 56.5 31t58.5 11q28 0 40.5 -12t12.5 -41q0 -7 -7.5 -38.5t-18.5 -79t-22.5 -102.5t-19.5 -109t-9 -97
l-49 -76h-596zM1030 -25l17 100q11 0 13 -13t-2 -37q-4 -22 -10.5 -36t-17.5 -14zM494 -237q-28 0 -45 14.5t-17 38.5q0 35 24 57t61 22q29 0 45.5 -14.5t16.5 -39.5q0 -34 -23.5 -56t-61.5 -22zM391 -369q-26 0 -41.5 13.5t-15.5 35.5q0 32 21.5 51.5t55.5 19.5
q26 0 41.5 -13t15.5 -36q0 -31 -21.5 -51t-55.5 -20zM331 -237q-28 0 -45 14.5t-17 38.5q0 35 24 57t61 22q29 0 46 -14.5t17 -39.5q0 -34 -24 -56t-62 -22z" />
    <glyph glyph-name="uniFB58" unicode="&#x67e;" horiz-adv-x="316" arabic-form="initial" 
d="M-49 -25l16 100h143l-22 -20q1 44 8.5 97.5t18 107t21.5 99t18.5 74.5t8.5 33l6 -46l-62 68q25 20 56.5 31t59.5 11q27 0 39.5 -12t12.5 -41q0 -7 -7.5 -38.5t-18.5 -79t-22.5 -102.5t-19.5 -109t-9 -97l-49 -76h-198zM-49 -25q-11 0 -13.5 13t1.5 37q5 23 11 36.5
t17 13.5zM165 -237q-28 0 -45 14.5t-17 38.5q0 35 24 57t61 22q29 0 45.5 -14.5t16.5 -39.5q0 -34 -23.5 -56t-61.5 -22zM62 -369q-26 0 -41.5 13.5t-15.5 35.5q0 32 21.5 51.5t55.5 19.5q26 0 41.5 -13t15.5 -36q0 -31 -21.5 -51t-55.5 -20zM2 -237q-28 0 -45 14.5
t-17 38.5q0 35 24 57t61 22q29 0 46 -14.5t17 -39.5q0 -34 -24 -56t-62 -22z" />
    <glyph glyph-name="uniFB59" unicode="&#x67e;" horiz-adv-x="389" arabic-form="medial" 
d="M-49 -25l16 100h148l-35 -35v36q0 22 6 55.5t14.5 72.5t17 79.5t14 77.5t5.5 66q0 21 -3 40.5t-8 35.5q20 12 41.5 19.5t40.5 7.5q27 0 39.5 -16.5t12.5 -48.5q0 -27 -7 -63t-16 -75t-16 -75.5t-7 -66.5q0 -51 24.5 -80.5t70.5 -29.5h46l-16 -100h-72q-37 0 -59.5 21
t-30.5 55l31 -24h-31l-34 -52h-192zM339 -25l17 100q11 0 13 -13t-2 -37q-4 -22 -10.5 -36t-17.5 -14zM-49 -25q-11 0 -13.5 13t1.5 37q5 23 11 36.5t17 13.5zM158 -237q-28 0 -45 14.5t-17 38.5q0 35 24 57t61 22q29 0 45.5 -14.5t16.5 -39.5q0 -34 -23.5 -56t-61.5 -22z
M55 -369q-26 0 -41.5 13.5t-15.5 35.5q0 32 21.5 51.5t55.5 19.5q26 0 41.5 -13t15.5 -36q0 -31 -21.5 -51t-55.5 -20zM-5 -237q-28 0 -45 14.5t-17 38.5q0 35 24 57t61 22q29 0 46 -14.5t17 -39.5q0 -34 -24 -56t-62 -22z" />
    <glyph glyph-name="uniFB67" unicode="&#x679;" horiz-adv-x="1080" arabic-form="final" 
d="M956 -25q-38 0 -60.5 21t-30.5 55l42 -24h-97l104 253q-5 -28 -9 -54.5t-4 -45.5q0 -46 25 -75.5t71 -29.5h50l-17 -100h-74zM236 -25q-85 0 -123 40.5t-38 131.5q0 47 7.5 84.5t14.5 73t7 76.5q0 26 -3.5 45.5t-8.5 34.5q20 11 40 19.5t41 8.5q26 0 38.5 -16.5
t12.5 -51.5q0 -37 -9.5 -81.5t-19.5 -92.5t-10 -96q0 -47 15.5 -61.5t55.5 -14.5h537l-22 -20q1 44 8.5 97.5t18 107t21.5 99t18.5 74.5t8.5 33l6 -46l-62 68q25 20 56.5 31t58.5 11q28 0 40.5 -12t12.5 -41q0 -7 -7.5 -38.5t-18.5 -79t-22.5 -102.5t-19.5 -109t-9 -97
l-49 -76h-596zM1030 -25l17 100q11 0 13 -13t-2 -37q-4 -22 -10.5 -36t-17.5 -14zM475 595q-24 0 -32 9.5t-8 25.5q0 13 4 27t11 31q6 -1 14 -3.5t15 -3.5q-1 5 -1.5 14t-0.5 18q0 11 1 20.5t3 18.5q2 14 6 35t9.5 47.5t12 57t13.5 63.5l-22 26q13 10 29 16t30 6
q27 0 27 -27q0 -6 -8 -40t-19 -81q14 6 28.5 9.5t29.5 3.5q47 0 79 -29.5t32 -88.5q0 -29 -8 -52.5t-20 -41.5t-24 -32q-5 2 -14 3.5t-19 1.5q-34 0 -62.5 -8.5t-54.5 -17t-51 -8.5zM689 668q8 53 -1.5 81t-29.5 39t-44 11q-46 0 -74.5 -31.5t-30.5 -88.5q33 1 60.5 9.5
t51.5 16.5t47 8q13 0 23.5 -4t14.5 -11z" />
    <glyph glyph-name="uniFB68" unicode="&#x679;" horiz-adv-x="316" arabic-form="initial" 
d="M-49 -25l16 100h143l-22 -20q1 44 8.5 97.5t18 107t21.5 99t18.5 74.5t8.5 33l6 -46l-62 68q25 20 56.5 31t59.5 11q27 0 39.5 -12t12.5 -41q0 -7 -7.5 -38.5t-18.5 -79t-22.5 -102.5t-19.5 -109t-9 -97l-49 -76h-198zM-49 -25q-11 0 -13.5 13t1.5 37q5 23 11 36.5
t17 13.5zM151 620q-24 0 -32 9.5t-8 25.5q0 13 4 27t11 31q6 -1 14 -3.5t15 -3.5q-1 5 -1.5 14t-0.5 18q0 11 1 20.5t3 18.5q2 14 6 35t9.5 47.5t12 57t13.5 63.5l-22 26q13 10 29 16t30 6q27 0 27 -27q0 -6 -8 -40t-19 -81q14 6 28.5 9.5t29.5 3.5q47 0 79 -29.5t32 -88.5
q0 -29 -8 -52.5t-20 -41.5t-24 -32q-5 2 -14 3.5t-19 1.5q-34 0 -62.5 -8.5t-54.5 -17t-51 -8.5zM365 693q8 53 -1.5 81t-29.5 39t-44 11q-46 0 -74.5 -31.5t-30.5 -88.5q33 1 60.5 9.5t51.5 16.5t47 8q13 0 23.5 -4t14.5 -11z" />
    <glyph glyph-name="uniFB69" unicode="&#x679;" horiz-adv-x="389" arabic-form="medial" 
d="M-49 -25l16 100h148l-35 -35v36q0 22 6 55.5t14.5 72.5t17 79.5t14 77.5t5.5 66q0 21 -3 40.5t-8 35.5q20 12 41.5 19.5t40.5 7.5q27 0 39.5 -16.5t12.5 -48.5q0 -27 -7 -63t-16 -75t-16 -75.5t-7 -66.5q0 -51 24.5 -80.5t70.5 -29.5h46l-16 -100h-72q-37 0 -59.5 21
t-30.5 55l31 -24h-31l-34 -52h-192zM339 -25l17 100q11 0 13 -13t-2 -37q-4 -22 -10.5 -36t-17.5 -14zM-49 -25q-11 0 -13.5 13t1.5 37q5 23 11 36.5t17 13.5zM144 620q-24 0 -32 9.5t-8 25.5q0 13 4 27t11 31q6 -1 14 -3.5t15 -3.5q-1 5 -1.5 14t-0.5 18q0 11 1 20.5
t3 18.5q2 14 6 35t9.5 47.5t12 57t13.5 63.5l-22 26q13 10 29 16t30 6q27 0 27 -27q0 -6 -8 -40t-19 -81q14 6 28.5 9.5t29.5 3.5q47 0 79 -29.5t32 -88.5q0 -29 -8 -52.5t-20 -41.5t-24 -32q-5 2 -14 3.5t-19 1.5q-34 0 -62.5 -8.5t-54.5 -17t-51 -8.5zM358 693
q8 53 -1.5 81t-29.5 39t-44 11q-46 0 -74.5 -31.5t-30.5 -88.5q33 1 60.5 9.5t51.5 16.5t47 8q13 0 23.5 -4t14.5 -11z" />
    <glyph glyph-name="uniFB6B" unicode="&#x6a4;" horiz-adv-x="1246" arabic-form="final" 
d="M1123 -25q-38 0 -60.5 21t-30.5 55l42 -24h-97l104 254q-6 -28 -10 -55t-4 -46q0 -46 25 -75.5t71 -29.5h49l-16 -100h-73zM236 -25q-85 0 -123 40.5t-38 131.5q0 47 7.5 84.5t14.5 73t7 76.5q0 26 -3.5 45.5t-8.5 34.5q20 11 40 19.5t41 8.5q26 0 38.5 -16.5t12.5 -51.5
q0 -37 -9.5 -81.5t-19.5 -92.5t-10 -96q0 -47 15.5 -61.5t55.5 -14.5h401l-23 -25q-23 35 -34.5 79t-11.5 97q0 83 24.5 153t69.5 121t106 79t134 28q46 0 82.5 -10t62.5 -25t43 -30t24 -25q0 -5 -6 -31.5t-15.5 -67t-20.5 -89t-20.5 -99t-16 -97t-7.5 -82.5l-49 -76h-763z
M937 55q1 40 8 90t17.5 103t21.5 101.5t20.5 86.5t14.5 57l1 -13q-9 8 -35 17t-62 9q-59 0 -110 -31.5t-82.5 -93.5t-31.5 -152q0 -54 11 -87t25 -49.5t22 -24.5l-31 7h242zM1196 -25l17 100q11 0 13 -13t-2 -37q-4 -22 -10.5 -36t-17.5 -14zM1002 695q-28 0 -45 14.5
t-17 38.5q0 35 24 57t61 22q29 0 45.5 -14.5t16.5 -39.5q0 -34 -23.5 -56t-61.5 -22zM839 695q-28 0 -45 14.5t-17 38.5q0 35 24 57t61 22q29 0 46 -14.5t17 -39.5q0 -34 -24 -56t-62 -22zM943 840q-25 0 -41 13t-16 35q0 32 22 52t56 20q26 0 41.5 -13.5t15.5 -35.5
q0 -32 -21.5 -51.5t-56.5 -19.5z" />
    <glyph glyph-name="uniFB6C" unicode="&#x6a4;" horiz-adv-x="676" arabic-form="initial" 
d="M-49 -25l16 100h203l-23 -25q-23 35 -34.5 79t-11.5 97q0 83 24.5 153t69.5 121t106 79t134 28q46 0 82.5 -10t62.5 -25t43 -30t24 -25q0 -5 -6 -31.5t-15.5 -67t-20.5 -89t-20.5 -99t-16 -97t-7.5 -82.5l-49 -76h-561zM450 55q1 40 8 90t17.5 103t21.5 101.5t20.5 86.5
t14.5 57l1 -13q-9 8 -35 17t-62 9q-59 0 -110 -31.5t-82.5 -93.5t-31.5 -152q0 -54 11 -87t25 -49.5t22 -24.5l-31 7h242zM-49 -25q-11 0 -13.5 13t1.5 37q5 23 11 36.5t17 13.5zM515 695q-28 0 -45 14.5t-17 38.5q0 35 24 57t61 22q29 0 45.5 -14.5t16.5 -39.5
q0 -34 -23.5 -56t-61.5 -22zM352 695q-28 0 -45 14.5t-17 38.5q0 35 24 57t61 22q29 0 46 -14.5t17 -39.5q0 -34 -24 -56t-62 -22zM456 840q-25 0 -41 13t-16 35q0 32 22 52t56 20q26 0 41.5 -13.5t15.5 -35.5q0 -32 -21.5 -51.5t-56.5 -19.5z" />
    <glyph glyph-name="uniFB6D" unicode="&#x6a4;" horiz-adv-x="760" arabic-form="medial" 
d="M636 -25q-37 0 -59.5 21t-30.5 55l41 -24h-96l104 254q-6 -28 -10 -55t-4 -46q0 -46 25 -75.5t71 -29.5h49l-16 -100h-74zM-49 -25l16 100h203l-23 -25q-23 35 -34.5 79t-11.5 97q0 83 24.5 153t69.5 121t106 79t134 28q46 0 82.5 -10t62.5 -25t43 -30t24 -25
q0 -5 -6 -31.5t-15.5 -67t-20.5 -89t-20.5 -99t-16 -97t-7.5 -82.5l-49 -76h-561zM450 55q1 40 8 90t17.5 103t21.5 101.5t20.5 86.5t14.5 57l1 -13q-9 8 -35 17t-62 9q-59 0 -110 -31.5t-82.5 -93.5t-31.5 -152q0 -54 11 -87t25 -49.5t22 -24.5l-31 7h242zM-49 -25
q-11 0 -13.5 13t1.5 37q5 23 11 36.5t17 13.5zM710 -25l17 100q11 0 13 -13t-2 -37q-4 -22 -10.5 -36t-17.5 -14zM515 695q-28 0 -45 14.5t-17 38.5q0 35 24 57t61 22q29 0 45.5 -14.5t16.5 -39.5q0 -34 -23.5 -56t-61.5 -22zM352 695q-28 0 -45 14.5t-17 38.5q0 35 24 57
t61 22q29 0 46 -14.5t17 -39.5q0 -34 -24 -56t-62 -22zM456 840q-25 0 -41 13t-16 35q0 32 22 52t56 20q26 0 41.5 -13.5t15.5 -35.5q0 -32 -21.5 -51.5t-56.5 -19.5z" />
    <glyph glyph-name="uniFB7B" unicode="&#x686;" horiz-adv-x="971" arabic-form="final" 
d="M324 -389q-43 0 -74 23t-51.5 63t-30.5 92t-10 110q0 87 23.5 167t64.5 148.5t94 121t113 84.5l4 -8q-12 -1 -30 -1.5t-34.5 -1t-26.5 -0.5q-31 0 -68 3t-73.5 10.5t-66.5 22.5t-48 38t-18 57q0 17 4.5 31t14.5 29q48 -14 119.5 -30.5t153 -31t161.5 -23.5t144 -9
q28 0 47.5 3.5t37.5 14.5q13 -19 19 -34t6 -32q0 -38 -29 -53t-70 -15q-32 0 -65.5 7t-64.5 18l28 26l-10 -48q-61 -27 -116.5 -76.5t-98.5 -116t-67.5 -143t-24.5 -156.5q0 -67 16.5 -115.5t43.5 -81t60 -50.5q-5 -9 -15.5 -19t-26 -17t-35.5 -7zM511 -319q-26 0 -41.5 13
t-15.5 35q0 32 22 51.5t55 19.5q26 0 41.5 -13t15.5 -35q0 -32 -21 -51.5t-56 -19.5zM452 -188q-29 0 -46 15t-17 38q0 36 24 57.5t61 21.5q29 0 46 -14.5t17 -39.5q0 -34 -23.5 -56t-61.5 -22zM614 -188q-28 0 -45 15t-17 38q0 36 24 57.5t61 21.5q29 0 46 -14.5t17 -39.5
q0 -34 -24 -56t-62 -22zM824 -25q-84 0 -139 26t-85.5 70.5t-40 101.5t-2 120.5t27.5 126.5l104 7q-16 -50 -23 -100.5t-3.5 -95.5t21.5 -80t53 -55.5t90 -20.5h111l-17 -100h-97zM921 -25l17 100q11 0 13 -13t-2 -37q-4 -22 -10.5 -36t-17.5 -14z" />
    <glyph glyph-name="uniFB7C" unicode="&#x686;" horiz-adv-x="865" arabic-form="initial" 
d="M-49 -25l16 100h706l-35 -37q5 79 -15 141.5t-54.5 109.5t-76 78.5t-81.5 46.5q-16 -2 -40.5 -3.5t-41.5 -1.5q-31 0 -68 3t-73 10.5t-66 22.5t-48 38t-18 57q0 17 4.5 31t14.5 29q48 -14 119.5 -30.5t153 -31t161.5 -23.5t144 -9q28 0 47.5 3.5t37.5 14.5q13 -19 19 -34
t6 -32q0 -40 -30 -54t-75 -14q-15 0 -29 1.5t-29 3.5t-33 4.5t-42 5.5l34 7q63 -30 104 -73.5t64.5 -93.5t32 -98.5t4.5 -87.5l-55 -84h-758zM-49 -25q-11 0 -13.5 13t1.5 37q5 23 11 36.5t17 13.5zM372 -237q-28 0 -45 14.5t-17 38.5q0 35 24 57t61 22q29 0 45.5 -14.5
t16.5 -39.5q0 -34 -23.5 -56t-61.5 -22zM269 -369q-26 0 -41.5 13.5t-15.5 35.5q0 32 21.5 51.5t55.5 19.5q26 0 41.5 -13t15.5 -36q0 -31 -21.5 -51t-55.5 -20zM209 -237q-28 0 -45 14.5t-17 38.5q0 35 24 57t61 22q29 0 46 -14.5t17 -39.5q0 -34 -24 -56t-62 -22z" />
    <glyph glyph-name="uniFB7D" unicode="&#x686;" horiz-adv-x="937" arabic-form="medial" 
d="M831 -25q-37 0 -59 21.5t-31 52.5l43 -22h-68l38 142q5 -17 12.5 -39.5t27 -38.5t60.5 -16h50l-17 -100h-56zM-49 -25l16 100h706l-35 -37q5 79 -15 141.5t-54.5 109.5t-76 78.5t-81.5 46.5q-16 -2 -40.5 -3.5t-41.5 -1.5q-31 0 -68 3t-73 10.5t-66 22.5t-48 38t-18 57
q0 17 4.5 31t14.5 29q48 -14 119.5 -30.5t153 -31t161.5 -23.5t144 -9q28 0 47.5 3.5t37.5 14.5q13 -19 19 -34t6 -32q0 -40 -30 -54t-75 -14q-15 0 -29 1.5t-29 3.5t-33 4.5t-42 5.5l34 7q63 -30 104 -73.5t64.5 -93.5t32 -98.5t4.5 -87.5l-55 -84h-758zM-49 -25
q-11 0 -13.5 13t1.5 37q5 23 11 36.5t17 13.5zM887 -25l17 100q11 0 13 -13t-2 -37q-4 -22 -10.5 -36t-17.5 -14zM372 -237q-28 0 -45 14.5t-17 38.5q0 35 24 57t61 22q29 0 45.5 -14.5t16.5 -39.5q0 -34 -23.5 -56t-61.5 -22zM269 -369q-26 0 -41.5 13.5t-15.5 35.5
q0 32 21.5 51.5t55.5 19.5q26 0 41.5 -13t15.5 -36q0 -31 -21.5 -51t-55.5 -20zM209 -237q-28 0 -45 14.5t-17 38.5q0 35 24 57t61 22q29 0 46 -14.5t17 -39.5q0 -34 -24 -56t-62 -22z" />
    <glyph glyph-name="uniFB89" unicode="&#x688;" horiz-adv-x="704" arabic-form="final" 
d="M580 -25q-38 0 -60.5 21t-30.5 55l42 -24h-98l89 153q0 -46 24.5 -75.5t70.5 -29.5h54l-17 -100h-74zM163 -24q-76 0 -112 20t-36 62q0 12 2.5 24t5.5 20q20 -8 50 -17t59 -9h292l-31 -17q-1 28 6 66t16.5 80t17 83t7.5 75q0 76 -39 113t-95 37q-60 0 -98.5 -39
t-42.5 -107q-28 0 -50.5 6.5t-35.5 22.5t-13 44q0 44 31.5 83.5t85.5 64.5t122 25q75 0 130.5 -32t85.5 -88t30 -130q0 -41 -8 -85.5t-17.5 -86.5t-16.5 -76t-6 -54l-47 -85h-293zM654 -25l17 100q11 0 13 -13t-2 -37q-4 -22 -10.5 -36t-17.5 -14zM258 690q-24 0 -32 9.5
t-8 25.5q0 13 4 27t11 31q6 -1 14 -3.5t15 -3.5q-1 5 -1.5 14t-0.5 18q0 11 1 20.5t3 18.5q2 14 6 35t9.5 47.5t12 57t13.5 63.5l-22 26q13 10 29 16t30 6q27 0 27 -27q0 -6 -8 -40t-19 -81q14 6 28.5 9.5t29.5 3.5q47 0 79 -29.5t32 -88.5q0 -29 -8 -52.5t-20 -41.5
t-24 -32q-5 2 -14 3.5t-19 1.5q-34 0 -62.5 -8.5t-54.5 -17t-51 -8.5zM472 763q8 53 -1.5 81t-29.5 39t-44 11q-46 0 -74.5 -31.5t-30.5 -88.5q33 1 60.5 9.5t51.5 16.5t47 8q13 0 23.5 -4t14.5 -11z" />
    <glyph glyph-name="uniFB8B" unicode="&#x698;" horiz-adv-x="491" arabic-form="final" 
d="M378 -25q-38 0 -60 21t-30 55l42 -24h-81l66 158q0 -50 25 -79.5t71 -30.5h46l-16 -100h-63zM-6 -365q-45 0 -72 11t-39 28t-12 34q74 0 126.5 18t88 60.5t59.5 114t42 178.5q9 57 16 102t13 81t10.5 66t8.5 57t8 53l6 -48l-53 98q33 20 62.5 31t51.5 11q25 0 38 -13
t13 -27q0 -7 -5 -41t-13.5 -88t-19.5 -123t-23 -147q-15 -94 -37 -177t-57 -145.5t-86.5 -98t-125.5 -35.5zM441 -25l17 100q11 0 13 -13t-2 -37q-4 -22 -10.5 -36t-17.5 -14zM381 620q-28 0 -45 14.5t-17 38.5q0 35 24 57t61 22q29 0 45.5 -14.5t16.5 -39.5
q0 -34 -23.5 -56t-61.5 -22zM218 620q-28 0 -45 14.5t-17 38.5q0 35 24 57t61 22q29 0 46 -14.5t17 -39.5q0 -34 -24 -56t-62 -22zM322 765q-25 0 -41 13t-16 35q0 32 22 52t56 20q26 0 41.5 -13.5t15.5 -35.5q0 -32 -21.5 -51.5t-56.5 -19.5z" />
    <glyph glyph-name="uniFB8D" unicode="&#x691;" horiz-adv-x="491" arabic-form="final" 
d="M378 -25q-38 0 -60 21t-30 55l42 -24h-81l66 158q0 -50 25 -79.5t71 -30.5h46l-16 -100h-63zM-6 -365q-45 0 -72 11t-39 28t-12 34q74 0 126.5 18t88 60.5t59.5 114t42 178.5q9 57 16 102t13 81t10.5 66t8.5 57t8 53l6 -48l-53 98q33 20 62.5 31t51.5 11q25 0 38 -13
t13 -27q0 -7 -5 -41t-13.5 -88t-19.5 -123t-23 -147q-15 -94 -37 -177t-57 -145.5t-86.5 -98t-125.5 -35.5zM441 -25l17 100q11 0 13 -13t-2 -37q-4 -22 -10.5 -36t-17.5 -14zM230 620q-24 0 -32 9.5t-8 25.5q0 13 4 27t11 31q6 -1 14 -3.5t15 -3.5q-1 5 -1.5 14t-0.5 18
q0 11 1 20.5t3 18.5q2 14 6 35t9.5 47.5t12 57t13.5 63.5l-22 26q13 10 29 16t30 6q27 0 27 -27q0 -6 -8 -40t-19 -81q14 6 28.5 9.5t29.5 3.5q47 0 79 -29.5t32 -88.5q0 -29 -8 -52.5t-20 -41.5t-24 -32q-5 2 -14 3.5t-19 1.5q-34 0 -62.5 -8.5t-54.5 -17t-51 -8.5z
M444 693q8 53 -1.5 81t-29.5 39t-44 11q-46 0 -74.5 -31.5t-30.5 -88.5q33 1 60.5 9.5t51.5 16.5t47 8q13 0 23.5 -4t14.5 -11z" />
    <glyph glyph-name="uniFB8F" unicode="&#x6a9;" horiz-adv-x="1359" arabic-form="final" 
d="M1235 -25q-37 0 -59.5 21t-30.5 55l41 -24h-96l81 155q0 -46 25 -76.5t71 -30.5h59l-17 -100h-74zM236 -25q-85 0 -122.5 41t-37.5 134q0 42 5 67t10 49.5t5 61.5q0 27 -3 46.5t-8 35.5q19 11 39 19t41 8q27 0 39 -16.5t12 -52.5q0 -34 -7.5 -66.5t-15.5 -68t-8 -80.5
q0 -32 6.5 -49t22 -23t42.5 -6h806l-9 -16q1 43 4.5 78.5t3.5 72.5q0 51 -12 65t-43 14h-411q-54 0 -94.5 21.5t-63 70t-22.5 127.5q0 38 4.5 78.5t10 74t8.5 49.5q17 -4 57 -8t101 -4q38 0 91.5 1.5t113 4t116.5 4t103 1.5q51 0 79.5 -4t40 -14.5t11.5 -32.5q0 -15 -5 -32
t-15 -31q-30 6 -65.5 9t-85.5 3q-28 0 -70.5 -1t-92.5 -2t-102 -2.5t-100.5 -3t-86.5 -2.5l9 11q-4 -16 -9 -49.5t-5 -62.5q0 -55 22 -80.5t61 -25.5h420q74 0 110 -40.5t36 -132.5q0 -28 -2.5 -53.5t-5 -52.5t-3.5 -58l-50 -77h-875zM1309 -25l17 100q11 0 13 -13t-2 -37
q-4 -22 -10.5 -36t-17.5 -14z" />
    <glyph glyph-name="uniFB90" unicode="&#x6a9;" horiz-adv-x="914" arabic-form="initial" 
d="M-49 -25l16 100h748l-12 -16q2 43 5.5 78.5t3.5 72.5q0 51 -12 65t-43 14h-411q-54 0 -94.5 21.5t-63 70t-22.5 127.5q0 38 4.5 78.5t10 74t8.5 49.5q17 -4 56.5 -8t101.5 -4q38 0 91.5 1.5t112.5 4t116.5 4t103.5 1.5q51 0 79.5 -4t40 -14.5t11.5 -32.5q0 -15 -5 -32
t-15 -31q-31 6 -66 9t-85 3q-28 0 -70.5 -1t-92.5 -2t-102 -2.5t-100.5 -3t-86.5 -2.5l8 11q-4 -16 -8.5 -49.5t-4.5 -62.5q0 -55 22 -80.5t61 -25.5h420q74 0 110 -40.5t36 -132.5q0 -28 -2.5 -53.5t-5 -52.5t-3.5 -58l-50 -77h-811zM-49 -25q-11 0 -13.5 13t1.5 37
q5 23 11 36.5t17 13.5z" />
    <glyph glyph-name="uniFB91" unicode="&#x6a9;" horiz-adv-x="1010" arabic-form="medial" 
d="M886 -25q-38 0 -60.5 21t-30.5 55l42 -24h-97l82 155q0 -46 25 -76.5t71 -30.5h59l-17 -100h-74zM-49 -25l16 100h748l-12 -16q2 43 5.5 78.5t3.5 72.5q0 51 -12 65t-43 14h-411q-54 0 -94.5 21.5t-63 70t-22.5 127.5q0 38 4.5 78.5t10 74t8.5 49.5q17 -4 56.5 -8
t101.5 -4q38 0 91.5 1.5t112.5 4t116.5 4t103.5 1.5q51 0 79.5 -4t40 -14.5t11.5 -32.5q0 -15 -5 -32t-15 -31q-31 6 -66 9t-85 3q-28 0 -70.5 -1t-92.5 -2t-102 -2.5t-100.5 -3t-86.5 -2.5l8 11q-4 -16 -8.5 -49.5t-4.5 -62.5q0 -55 22 -80.5t61 -25.5h420q74 0 110 -40.5
t36 -132.5q0 -28 -2.5 -53.5t-5 -52.5t-3.5 -58l-50 -77h-811zM-49 -25q-11 0 -13.5 13t1.5 37q5 23 11 36.5t17 13.5zM960 -25l17 100q11 0 13 -13t-2 -37q-4 -22 -10.5 -36t-17.5 -14z" />
    <glyph glyph-name="uniFB93" unicode="&#x6af;" horiz-adv-x="1359" arabic-form="final" 
d="M579 781q-71 0 -97.5 9t-26.5 38q0 15 5.5 29t15.5 27q20 -3 42 -5.5t48 -4t56 -1.5q63 0 133.5 3.5t143 6.5t139.5 3q74 0 100.5 -9t26.5 -38q0 -28 -20 -56q-30 6 -65 9t-80 3q-62 0 -132.5 -3.5t-144 -7t-144.5 -3.5zM236 -25q-85 0 -122.5 41t-37.5 134q0 42 5 67
t10 49.5t5 61.5q0 27 -3 46.5t-8 35.5q19 11 39 19t41 8q27 0 39 -16.5t12 -52.5q0 -34 -7.5 -66.5t-15.5 -68t-8 -80.5q0 -32 6.5 -49t22 -23t42.5 -6h806l-9 -16q1 43 4.5 78.5t3.5 72.5q0 51 -12 65t-43 14h-411q-54 0 -94.5 21.5t-63 70t-22.5 127.5q0 38 4.5 78.5
t10 74t8.5 49.5q17 -4 57 -8t101 -4q38 0 91.5 1.5t113 4t116.5 4t103 1.5q51 0 79.5 -4t40 -14.5t11.5 -32.5q0 -15 -5 -32t-15 -31q-30 6 -65.5 9t-85.5 3q-28 0 -70.5 -1t-92.5 -2t-102 -2.5t-100.5 -3t-86.5 -2.5l9 11q-4 -16 -9 -49.5t-5 -62.5q0 -55 22 -80.5
t61 -25.5h420q74 0 110 -40.5t36 -132.5q0 -28 -2.5 -53.5t-5 -52.5t-3.5 -58l-50 -77h-875zM1309 -25l17 100q11 0 13 -13t-2 -37q-4 -22 -10.5 -36t-17.5 -14zM1235 -25q-37 0 -59.5 21t-30.5 55l41 -24h-96l81 155q0 -46 25 -76.5t71 -30.5h59l-17 -100h-74z" />
    <glyph glyph-name="uniFB94" unicode="&#x6af;" horiz-adv-x="914" arabic-form="initial" 
d="M237 811q-71 0 -97.5 9t-26.5 38q0 15 5.5 29t15.5 27q20 -3 42 -5.5t48 -4t56 -1.5q63 0 133.5 3.5t143 6.5t139.5 3q74 0 100.5 -9t26.5 -38q0 -28 -20 -56q-30 6 -65 9t-80 3q-62 0 -132.5 -3.5t-144 -7t-144.5 -3.5zM-49 -25q-11 0 -13.5 13t1.5 37q5 23 11 36.5
t17 13.5zM-49 -25l16 100h748l-12 -16q2 43 5.5 78.5t3.5 72.5q0 51 -12 65t-43 14h-411q-54 0 -94.5 21.5t-63 70t-22.5 127.5q0 38 4.5 78.5t10 74t8.5 49.5q17 -4 56.5 -8t101.5 -4q38 0 91.5 1.5t112.5 4t116.5 4t103.5 1.5q51 0 79.5 -4t40 -14.5t11.5 -32.5
q0 -15 -5 -32t-15 -31q-31 6 -66 9t-85 3q-28 0 -70.5 -1t-92.5 -2t-102 -2.5t-100.5 -3t-86.5 -2.5l8 11q-4 -16 -8.5 -49.5t-4.5 -62.5q0 -55 22 -80.5t61 -25.5h420q74 0 110 -40.5t36 -132.5q0 -28 -2.5 -53.5t-5 -52.5t-3.5 -58l-50 -77h-811z" />
    <glyph glyph-name="uniFB95" unicode="&#x6af;" horiz-adv-x="1010" arabic-form="medial" 
d="M226 794q-71 0 -97.5 9t-26.5 38q0 15 5.5 29t15.5 27q20 -3 42 -5.5t48 -4t56 -1.5q63 0 133.5 3.5t143 6.5t139.5 3q74 0 100.5 -9t26.5 -38q0 -28 -20 -56q-30 6 -65 9t-80 3q-62 0 -132.5 -3.5t-144 -7t-144.5 -3.5zM-49 -25q-11 0 -13.5 13t1.5 37q5 23 11 36.5
t17 13.5zM-49 -25l16 100h748l-12 -16q2 43 5.5 78.5t3.5 72.5q0 51 -12 65t-43 14h-411q-54 0 -94.5 21.5t-63 70t-22.5 127.5q0 38 4.5 78.5t10 74t8.5 49.5q17 -4 56.5 -8t101.5 -4q38 0 91.5 1.5t112.5 4t116.5 4t103.5 1.5q51 0 79.5 -4t40 -14.5t11.5 -32.5
q0 -15 -5 -32t-15 -31q-31 6 -66 9t-85 3q-28 0 -70.5 -1t-92.5 -2t-102 -2.5t-100.5 -3t-86.5 -2.5l8 11q-4 -16 -8.5 -49.5t-4.5 -62.5q0 -55 22 -80.5t61 -25.5h420q74 0 110 -40.5t36 -132.5q0 -28 -2.5 -53.5t-5 -52.5t-3.5 -58l-50 -77h-811zM960 -25l17 100
q11 0 13 -13t-2 -37q-4 -22 -10.5 -36t-17.5 -14zM886 -25q-38 0 -60.5 21t-30.5 55l42 -24h-97l82 155q0 -46 25 -76.5t71 -30.5h59l-17 -100h-74z" />
    <glyph glyph-name="uniFB9F" unicode="&#x6ba;" horiz-adv-x="904" arabic-form="final" 
d="M778 -25q-38 0 -60 21t-31 55l42 -24h-96l102 253q-4 -28 -9 -54t-5 -42q0 -49 24 -79t70 -30h55l-16 -100h-76zM344 -278q-87 0 -144.5 24.5t-91.5 63.5t-50.5 83t-21.5 83t-5 63q0 48 11 86.5t33 61t53 22.5q24 0 41.5 -10.5t25.5 -21.5q-24 -22 -39 -53t-15 -91
q0 -105 51.5 -158t157.5 -53q72 0 119 27.5t77 94.5t51 185l55 316l20 -34l-66 77q24 19 55.5 30.5t61.5 11.5q25 0 37 -10t12 -34q-13 -81 -26 -154.5t-23 -130.5t-17 -90q-10 -55 -25 -110.5t-39 -105.5t-62.5 -89t-96 -61.5t-139.5 -22.5zM854 -25l17 100q11 0 13 -13
t-2 -37q-4 -22 -10.5 -36t-17.5 -14z" />
    <glyph glyph-name="uniFBA7" unicode="&#x6c1;" horiz-adv-x="728" arabic-form="final" 
d="M87 -128q-33 0 -49.5 31t-11.5 80l47 350q9 64 29 110t47 76.5t59.5 48.5t66 25.5t65.5 7.5q50 0 93.5 -14.5t77 -46t52 -82.5t18.5 -123q0 -34 -5.5 -81t-13 -95t-15.5 -84h149l-17 -100h-192l-58 70q7 34 14.5 75t13.5 83t10 79t4 61q0 56 -18.5 92t-48.5 53.5
t-66 17.5q-32 0 -63 -14.5t-54 -47t-31 -85.5q-6 -40 -13.5 -89t-14.5 -99t-13 -93.5t-9 -72.5q-4 -37 2 -65t19 -39q-14 -13 -33 -21t-41 -8zM678 -25l17 100q11 0 13 -13t-2 -37q-4 -22 -10.5 -36t-17.5 -14z" />
    <glyph glyph-name="uniFBA8" unicode="&#x6c1;" horiz-adv-x="316" arabic-form="initial" 
d="M123 7l12 -32q-24 -12 -41.5 -33.5t-27.5 -44.5t-10 -42l51 -67q0 -22 -13 -42t-34 -32t-46 -12q-37 0 -57.5 25.5t-20.5 57.5q0 53 23 96t65.5 75t98.5 51zM-49 -25l16 100h143l-22 -20q1 44 8.5 97.5t18 107t21.5 99t18.5 74.5t8.5 33l6 -46l-62 68q25 20 56.5 31
t59.5 11q27 0 39.5 -12t12.5 -41q0 -7 -7.5 -38.5t-18.5 -79t-22.5 -102.5t-19.5 -109t-9 -97l-49 -76h-198zM-49 -25q-11 0 -13.5 13t1.5 37q5 23 11 36.5t17 13.5z" />
    <glyph glyph-name="uniFBA9" unicode="&#x6c1;" horiz-adv-x="769" arabic-form="medial" 
d="M292 -566q-67 0 -118 26.5t-80 85t-29 154.5q0 34 3 83.5t7.5 101t8.5 90.5h-133l16 100h177l58 -70q-4 -36 -9 -80t-9 -88t-6.5 -82.5t-2.5 -62.5q0 -84 32.5 -123.5t85.5 -39.5q24 0 52 8.5t53 26t42.5 45.5t20.5 67q5 52 10 112t9.5 117.5t7.5 102.5t3 67h244
l-16 -100h-157l37 24l-21 -297q-5 -65 -25.5 -111.5t-51.5 -77t-67.5 -48t-73 -24.5t-68.5 -7zM719 -25l17 100q11 0 13 -13t-2 -37q-4 -22 -10.5 -36t-17.5 -14zM-49 -25q-11 0 -13.5 13t1.5 37q5 23 11 36.5t17 13.5z" />
    <glyph glyph-name="uniFBAB" unicode="&#x6be;" horiz-adv-x="1106" arabic-form="final" 
d="M867 -25l57 100h148l-16 -100h-189zM425 -127q-26 0 -39.5 12.5t-18 32t-2.5 40.5t8 37l30 -20h-255q-47 0 -74 4.5t-38 15.5t-11 32q0 18 7.5 34.5t14.5 25.5q15 -3 34 -5.5t41 -4.5t45 -2h43l-35 -24q-2 79 20 146.5t63.5 119t98 83.5t122.5 39l-31 -25q8 40 20.5 73.5
t31 60.5t41.5 48t51 35t61 21t70 7q50 0 96 -14.5t82 -46t57 -83.5t21 -128q0 -57 -10 -108.5t-20 -105.5t-10 -121l-50 -77h-443l37 17q-3 -9 -3 -28.5t5 -37.5t16 -25q-14 -12 -35 -20t-41 -8zM379 41l60 316l16 -25q-42 -13 -73.5 -37.5t-52.5 -60.5t-31 -82.5
t-10 -102.5l-34 26h166zM491 41l-27 34h169l-42 -34l60 316l-1 -37q-4 4 -23.5 11t-49.5 11.5t-68 0.5l46 34zM702 41l-27 34h184l-34 -22q-2 38 4.5 78.5t15.5 82.5t16.5 84t7.5 84q0 63 -19 102t-52.5 57t-78.5 18q-38 0 -69 -13.5t-53 -44.5t-33 -82l-33 24
q62 -4 104 -18t68 -33.5t38.5 -39.5t13.5 -37zM1056 -25l17 100q11 0 13 -13t-2 -37q-4 -22 -10.5 -36t-17.5 -14z" />
    <glyph glyph-name="uniFBAC" unicode="&#x6be;" horiz-adv-x="929" arabic-form="initial" 
d="M309 -127q-30 0 -42.5 16t-13.5 40t2 46h-304l16 100h107q2 94 37 167.5t94.5 122t134.5 66.5q11 45 28 81.5t41 64t54.5 45.5t67.5 27.5t80 9.5q50 0 96.5 -14.5t82.5 -46t57 -83.5t21 -128q0 -57 -10 -108.5t-20.5 -105.5t-10.5 -121l-50 -77h-411q-2 -24 2 -45t17 -29
q-13 -12 -34 -20t-42 -8zM184 75h89l46 241q-60 -28 -96.5 -92.5t-38.5 -148.5zM385 75h96l40 238q-13 11 -35.5 18.5t-50.5 8.5zM595 75h123q3 67 12.5 120t18 100t8.5 96q0 58 -16 95t-48 55t-81 18q-42 0 -72.5 -13t-50.5 -39.5t-33 -67.5q74 -6 120.5 -35.5t62.5 -60.5z
M-49 -25q-11 0 -13.5 13t1.5 37q5 23 11 36.5t17 13.5z" />
    <glyph glyph-name="uniFBAD" unicode="&#x6be;" horiz-adv-x="994" arabic-form="medial" 
d="M766 -25l16 100h179l-17 -100h-178zM309 -127q-30 0 -42.5 16t-13.5 40t2 46h-304l16 100h107q2 94 37 167.5t94.5 122t134.5 66.5q11 45 28 81.5t41 64t54.5 45.5t67.5 27.5t80 9.5q50 0 96.5 -14.5t82.5 -46t57 -83.5t21 -128q0 -57 -10 -108.5t-20.5 -105.5
t-10.5 -121l-50 -77h-411q-2 -24 2 -45t17 -29q-13 -12 -34 -20t-42 -8zM184 75h89l46 241q-60 -28 -96.5 -92.5t-38.5 -148.5zM385 75h96l40 238q-13 11 -35.5 18.5t-50.5 8.5zM595 75h123q3 67 12.5 120t18 100t8.5 96q0 58 -16 95t-48 55t-81 18q-42 0 -72.5 -13
t-50.5 -39.5t-33 -67.5q74 -6 120.5 -35.5t62.5 -60.5zM-49 -25q-11 0 -13.5 13t1.5 37q5 23 11 36.5t17 13.5zM944 -25l17 100q11 0 13 -13t-2 -37q-4 -22 -10.5 -36t-17.5 -14z" />
    <glyph glyph-name="uniFBAF" unicode="&#x6d2;" horiz-adv-x="711" arabic-form="final" 
d="M178 -343q-52 0 -89 23t-57.5 72.5t-20.5 128.5q0 35 3.5 73.5t9 73.5t10.5 59q28 -5 63.5 -8.5t87.5 -3.5h492l-16 -100h-533q-2 -13 -4.5 -35.5t-2.5 -44.5q0 -71 24 -104.5t67 -33.5h91.5h107h100.5h72l-16 -100h-389zM660 -25l17 100q11 0 13 -13t-2 -37
q-4 -22 -10.5 -36t-17.5 -14z" />
    <glyph glyph-name="uniFBB1" unicode="&#x6d3;" horiz-adv-x="711" arabic-form="final" 
d="M178 -343q-52 0 -89 23t-57.5 72.5t-20.5 128.5q0 35 3.5 73.5t9 73.5t10.5 59q28 -5 63.5 -8.5t87.5 -3.5h492l-16 -100h-533q-2 -13 -4.5 -35.5t-2.5 -44.5q0 -71 24 -104.5t67 -33.5h91.5h107h100.5h72l-16 -100h-389zM660 -25l17 100q11 0 13 -13t-2 -37
q-4 -22 -10.5 -36t-17.5 -14zM104 220q-24 0 -32 9.5t-8 25.5q0 14 4 29t11 29q11 -4 24 -7t27 -3t30 2.5t29 5.5l5 -19q-30 16 -49 36t-27.5 43t-8.5 46t8 38.5t21.5 26t31.5 15t39 4.5q19 0 40 -3.5t39 -11t29.5 -18.5t11.5 -25q-1 -13 -13 -26t-38 -10q-16 2 -27.5 12
t-17.5 23q-22 -1 -35 -14t-13 -36q0 -17 7 -32.5t19 -29t27 -25.5l-50 6q41 11 63 18.5t46 7.5t32 -8t8 -25q0 -31 -14 -59q-11 4 -24 6.5t-29 2.5q-32 0 -61 -8.5t-54.5 -17t-50.5 -8.5z" />
    <glyph glyph-name="uniFBE8" unicode="&#x649;" horiz-adv-x="316" arabic-form="initial" 
d="M-49 -25l16 100h143l-22 -20q1 44 8.5 97.5t18 107t21.5 99t18.5 74.5t8.5 33l6 -46l-62 68q25 20 56.5 31t59.5 11q27 0 39.5 -12t12.5 -41q0 -7 -7.5 -38.5t-18.5 -79t-22.5 -102.5t-19.5 -109t-9 -97l-49 -76h-198zM-49 -25q-11 0 -13.5 13t1.5 37q5 23 11 36.5
t17 13.5z" />
    <glyph glyph-name="uniFBE9" unicode="&#x649;" horiz-adv-x="389" arabic-form="medial" 
d="M-49 -25l16 100h148l-35 -35v36q0 22 6 55.5t14.5 72.5t17 79.5t14 77.5t5.5 66q0 21 -3 40.5t-8 35.5q20 12 41.5 19.5t40.5 7.5q27 0 39.5 -16.5t12.5 -48.5q0 -27 -7 -63t-16 -75t-16 -75.5t-7 -66.5q0 -51 24.5 -80.5t70.5 -29.5h46l-16 -100h-72q-37 0 -59.5 21
t-30.5 55l31 -24h-31l-34 -52h-192zM339 -25l17 100q11 0 13 -13t-2 -37q-4 -22 -10.5 -36t-17.5 -14zM-49 -25q-11 0 -13.5 13t1.5 37q5 23 11 36.5t17 13.5z" />
    <glyph glyph-name="uniFBFD" unicode="&#x6cc;" horiz-adv-x="1098" arabic-form="final" 
d="M473 -314q-87 0 -163.5 27t-134.5 75.5t-90.5 113t-32.5 140.5t30.5 115t70.5 39q18 0 32 -7t22.5 -14.5t9.5 -10.5q-2 -1 -15.5 -16t-26 -43t-12.5 -67q0 -44 20.5 -88.5t60 -81.5t97 -59.5t132.5 -22.5t140.5 22.5t115 59t77.5 78t28 79.5l110 10q0 -57 -26 -109
t-71.5 -95.5t-105 -76t-128.5 -50.5t-140 -18zM802 -25q-50 0 -79 4t-40.5 15t-11.5 32q0 16 6 32t16 29q21 -4 41.5 -6.5t45.5 -4t57 -1.5h227l-16 -100h-246zM1047 -25l17 100q11 0 13 -13t-2 -37q-4 -22 -10.5 -36t-17.5 -14z" />
    <glyph glyph-name="uniFBFE" unicode="&#x6cc;" horiz-adv-x="316" arabic-form="initial" 
d="M-49 -25l16 100h143l-22 -20q1 44 8.5 97.5t18 107t21.5 99t18.5 74.5t8.5 33l6 -46l-62 68q25 20 56.5 31t59.5 11q27 0 39.5 -12t12.5 -41q0 -7 -7.5 -38.5t-18.5 -79t-22.5 -102.5t-19.5 -109t-9 -97l-49 -76h-198zM-49 -25q-11 0 -13.5 13t1.5 37q5 23 11 36.5
t17 13.5zM168 -237q-28 0 -45 14.5t-17 38.5q0 35 24 57t61 22q29 0 46 -14.5t17 -39.5q0 -34 -24 -56t-62 -22zM6 -237q-29 0 -46 14.5t-17 38.5q0 35 24 57t61 22q29 0 46 -14.5t17 -39.5q0 -34 -23.5 -56t-61.5 -22z" />
    <glyph glyph-name="uniFBFF" unicode="&#x6cc;" horiz-adv-x="389" arabic-form="medial" 
d="M-49 -25l16 100h148l-35 -35v36q0 22 6 55.5t14.5 72.5t17 79.5t14 77.5t5.5 66q0 21 -3 40.5t-8 35.5q20 12 41.5 19.5t40.5 7.5q27 0 39.5 -16.5t12.5 -48.5q0 -27 -7 -63t-16 -75t-16 -75.5t-7 -66.5q0 -51 24.5 -80.5t70.5 -29.5h46l-16 -100h-72q-37 0 -59.5 21
t-30.5 55l31 -24h-31l-34 -52h-192zM339 -25l17 100q11 0 13 -13t-2 -37q-4 -22 -10.5 -36t-17.5 -14zM-49 -25q-11 0 -13.5 13t1.5 37q5 23 11 36.5t17 13.5zM161 -237q-28 0 -45 14.5t-17 38.5q0 35 24 57t61 22q29 0 46 -14.5t17 -39.5q0 -34 -24 -56t-62 -22zM-1 -237
q-29 0 -46 14.5t-17 38.5q0 35 24 57t61 22q29 0 46 -14.5t17 -39.5q0 -34 -23.5 -56t-61.5 -22z" />
    <glyph glyph-name="uniFE82" unicode="&#x622;" horiz-adv-x="373" arabic-form="final" 
d="M291 -25q-49 0 -97 15t-80 34l35 51h190l-16 -100h-32zM136 -25q-30 0 -47 18.5t-17 55.5q0 18 4 54.5t11 85.5t15 103.5t17 108.5t16.5 101.5t13.5 81t8 47.5l20 -36l-66 77q25 20 57 31.5t58 11.5q25 0 38.5 -11.5t13.5 -34.5q0 -17 -6.5 -54.5t-16.5 -88t-21.5 -109.5
t-21.5 -119t-16.5 -116t-6.5 -101q0 -24 2.5 -38t7 -23t11.5 -17q-16 -13 -35.5 -20.5t-38.5 -7.5zM323 -25l17 100q11 0 13 -13t-2 -37q-4 -22 -10.5 -36t-17.5 -14zM124 760q-23 0 -31 9t-8 25q0 15 4 30t10 29q12 -4 25 -7.5t31 -3.5q32 0 59.5 9t53.5 17.5t51 8.5
q23 0 31 -9t8 -26q0 -28 -15 -58q-11 4 -24 6.5t-30 2.5q-32 0 -60 -8t-53.5 -16.5t-51.5 -8.5z" />
    <glyph glyph-name="uniFE84" unicode="&#x623;" horiz-adv-x="373" arabic-form="final" 
d="M291 -25q-49 0 -97 15t-80 34l35 51h190l-16 -100h-32zM136 -25q-30 0 -47 18.5t-17 55.5q0 18 4 54.5t11 85.5t15 103.5t17 108.5t16.5 101.5t13.5 81t8 47.5l20 -36l-66 77q25 20 57 31.5t58 11.5q25 0 38.5 -11.5t13.5 -34.5q0 -17 -6.5 -54.5t-16.5 -88t-21.5 -109.5
t-21.5 -119t-16.5 -116t-6.5 -101q0 -24 2.5 -38t7 -23t11.5 -17q-16 -13 -35.5 -20.5t-38.5 -7.5zM323 -25l17 100q11 0 13 -13t-2 -37q-4 -22 -10.5 -36t-17.5 -14zM127 759q-24 0 -32 9.5t-8 25.5q0 14 4 29t11 29q11 -4 24 -7t27 -3t30 2.5t29 5.5l5 -19q-30 16 -49 36
t-27.5 43t-8.5 46t8 38.5t21.5 26t31.5 15t39 4.5q19 0 40 -3.5t39 -11t29.5 -18.5t11.5 -25q-1 -13 -13 -26t-38 -10q-16 2 -27.5 12t-17.5 23q-22 -1 -35 -14t-13 -36q0 -17 7 -32.5t19 -29t27 -25.5l-50 6q41 11 63 18.5t46 7.5t32 -8t8 -25q0 -31 -14 -59q-11 4 -24 6.5
t-29 2.5q-32 0 -61 -8.5t-54.5 -17t-50.5 -8.5z" />
    <glyph glyph-name="uniFE86" unicode="&#x624;" horiz-adv-x="724" arabic-form="final" 
d="M505 -25l24 100h161l-16 -100h-169zM235 -365q-47 0 -74.5 11t-39 28t-11.5 34q61 0 105 9t75.5 31.5t55 64.5t41.5 107t36 159q9 46 17.5 95t16.5 98t14.5 94.5t12 83.5t9.5 64l11 -42q-13 8 -43.5 21t-72.5 13q-43 0 -83 -18.5t-71 -54.5t-49 -87t-18 -117
q0 -58 15 -92t44 -48t71 -14h149v-100h-152q-117 0 -177 65t-60 189q0 81 24 149.5t68.5 120t105.5 80t134 28.5q45 0 81 -10t62.5 -25t43.5 -30t24 -25q0 -6 -5 -46.5t-14 -102.5t-20 -134.5t-23 -142.5q-13 -76 -29 -144t-38.5 -125t-54 -99t-76 -65t-105.5 -23zM674 -25
l17 100q11 0 13 -13t-2 -37q-4 -22 -10.5 -36t-17.5 -14zM299 679q-24 0 -32 9.5t-8 25.5q0 14 4 29t11 29q11 -4 24 -7t27 -3t30 2.5t29 5.5l5 -19q-30 16 -49 36t-27.5 43t-8.5 46t8 38.5t21.5 26t31.5 15t39 4.5q19 0 40 -3.5t39 -11t29.5 -18.5t11.5 -25q-1 -13 -13 -26
t-38 -10q-16 2 -27.5 12t-17.5 23q-22 -1 -35 -14t-13 -36q0 -17 7 -32.5t19 -29t27 -25.5l-50 6q41 11 63 18.5t46 7.5t32 -8t8 -25q0 -31 -14 -59q-11 4 -24 6.5t-29 2.5q-32 0 -61 -8.5t-54.5 -17t-50.5 -8.5z" />
    <glyph glyph-name="uniFE88" unicode="&#x625;" horiz-adv-x="373" arabic-form="final" 
d="M291 -25q-49 0 -97 15t-80 34l35 51h190l-16 -100h-32zM134 -25q-31 0 -47.5 19.5t-16.5 55.5q0 20 5 63t13 101.5t18.5 124t21.5 132t21.5 126t18.5 104.5l19 -45l-66 76q25 20 57.5 31.5t57.5 11.5t38.5 -11.5t13.5 -34.5q0 -18 -7.5 -59t-19 -97.5t-24 -121.5
t-24 -132.5t-19 -130t-7.5 -112.5q0 -18 1.5 -31t6.5 -23t13 -19q-15 -13 -34 -20.5t-40 -7.5zM322 -25l17 100q11 0 13 -13t-2 -37q-4 -22 -10.5 -36t-17.5 -14zM12 -362q-23 0 -31 9t-8 25q0 14 4 29.5t10 28.5q12 -4 24.5 -6.5t27.5 -2.5q14 0 30 2t29 5l4 -19
q-29 16 -48 36.5t-27.5 43t-8.5 45.5t8 38.5t21.5 26t31.5 15t38 4.5t41 -3.5t39 -11t29 -18.5t11 -25q-1 -13 -12.5 -26t-37.5 -9q-17 1 -28.5 11t-16.5 23q-23 -1 -35.5 -14t-12.5 -36q0 -17 7 -32.5t19 -29t27 -25.5l-50 6q41 11 63 19t45 8q25 0 33 -8.5t8 -25.5
q0 -14 -4 -29.5t-11 -29.5q-11 4 -24 6.5t-29 2.5q-32 0 -60.5 -8t-54.5 -16.5t-51 -8.5z" />
    <glyph glyph-name="uniFE8A" unicode="&#x626;" horiz-adv-x="1098" arabic-form="final" 
d="M473 -314q-87 0 -163.5 27t-134.5 75.5t-90.5 113t-32.5 140.5t30.5 115t70.5 39q18 0 32 -7t22.5 -14.5t9.5 -10.5q-2 -1 -15.5 -16t-26 -43t-12.5 -67q0 -44 20.5 -88.5t60 -81.5t97 -59.5t132.5 -22.5t140.5 22.5t115 59t77.5 78t28 79.5l110 10q0 -57 -26 -109
t-71.5 -95.5t-105 -76t-128.5 -50.5t-140 -18zM802 -25q-50 0 -79 4t-40.5 15t-11.5 32q0 16 6 32t16 29q21 -4 41.5 -6.5t45.5 -4t57 -1.5h227l-16 -100h-246zM1047 -25l17 100q11 0 13 -13t-2 -37q-4 -22 -10.5 -36t-17.5 -14zM105 286q-24 0 -32 9.5t-8 25.5q0 14 4 29
t11 29q11 -4 24 -7t27 -3t30 2.5t29 5.5l5 -19q-30 16 -49 36t-27.5 43t-8.5 46t8 38.5t21.5 26t31.5 15t39 4.5q19 0 40 -3.5t39 -11t29.5 -18.5t11.5 -25q-1 -13 -13 -26t-38 -10q-16 2 -27.5 12t-17.5 23q-22 -1 -35 -14t-13 -36q0 -17 7 -32.5t19 -29t27 -25.5l-50 6
q41 11 63 18.5t46 7.5t32 -8t8 -25q0 -31 -14 -59q-11 4 -24 6.5t-29 2.5q-32 0 -61 -8.5t-54.5 -17t-50.5 -8.5z" />
    <glyph glyph-name="uniFE8B" unicode="&#x626;" horiz-adv-x="316" arabic-form="initial" 
d="M-49 -25l16 100h143l-22 -20q1 44 8.5 97.5t18 107t21.5 99t18.5 74.5t8.5 33l6 -46l-62 68q25 20 56.5 31t59.5 11q27 0 39.5 -12t12.5 -41q0 -7 -7.5 -38.5t-18.5 -79t-22.5 -102.5t-19.5 -109t-9 -97l-49 -76h-198zM-49 -25q-11 0 -13.5 13t1.5 37q5 23 11 36.5
t17 13.5zM128 604q-24 0 -32 9.5t-8 25.5q0 14 4 29t11 29q11 -4 24 -7t27 -3t30 2.5t29 5.5l5 -19q-30 16 -49 36t-27.5 43t-8.5 46t8 38.5t21.5 26t31.5 15t39 4.5q19 0 40 -3.5t39 -11t29.5 -18.5t11.5 -25q-1 -13 -13 -26t-38 -10q-16 2 -27.5 12t-17.5 23
q-22 -1 -35 -14t-13 -36q0 -17 7 -32.5t19 -29t27 -25.5l-50 6q41 11 63 18.5t46 7.5t32 -8t8 -25q0 -31 -14 -59q-11 4 -24 6.5t-29 2.5q-32 0 -61 -8.5t-54.5 -17t-50.5 -8.5z" />
    <glyph glyph-name="uniFE8C" unicode="&#x626;" horiz-adv-x="389" arabic-form="medial" 
d="M-49 -25l16 100h148l-35 -35v36q0 22 6 55.5t14.5 72.5t17 79.5t14 77.5t5.5 66q0 21 -3 40.5t-8 35.5q20 12 41.5 19.5t40.5 7.5q27 0 39.5 -16.5t12.5 -48.5q0 -27 -7 -63t-16 -75t-16 -75.5t-7 -66.5q0 -51 24.5 -80.5t70.5 -29.5h46l-16 -100h-72q-37 0 -59.5 21
t-30.5 55l31 -24h-31l-34 -52h-192zM339 -25l17 100q11 0 13 -13t-2 -37q-4 -22 -10.5 -36t-17.5 -14zM-49 -25q-11 0 -13.5 13t1.5 37q5 23 11 36.5t17 13.5zM121 604q-24 0 -32 9.5t-8 25.5q0 14 4 29t11 29q11 -4 24 -7t27 -3t30 2.5t29 5.5l5 -19q-30 16 -49 36
t-27.5 43t-8.5 46t8 38.5t21.5 26t31.5 15t39 4.5q19 0 40 -3.5t39 -11t29.5 -18.5t11.5 -25q-1 -13 -13 -26t-38 -10q-16 2 -27.5 12t-17.5 23q-22 -1 -35 -14t-13 -36q0 -17 7 -32.5t19 -29t27 -25.5l-50 6q41 11 63 18.5t46 7.5t32 -8t8 -25q0 -31 -14 -59q-11 4 -24 6.5
t-29 2.5q-32 0 -61 -8.5t-54.5 -17t-50.5 -8.5z" />
    <glyph glyph-name="uniFE8E" unicode="&#x627;" horiz-adv-x="373" arabic-form="final" 
d="M291 -25q-49 0 -97 15t-80 34l35 51h190l-16 -100h-32zM134 -25q-31 0 -47.5 19.5t-16.5 55.5q0 20 5 63t13 101.5t18.5 124t21.5 132t21.5 126t18.5 104.5l19 -45l-66 76q25 20 57.5 31.5t57.5 11.5t38.5 -11.5t13.5 -34.5q0 -18 -7.5 -59t-19 -97.5t-24 -121.5
t-24 -132.5t-19 -130t-7.5 -112.5q0 -18 1.5 -31t6.5 -23t13 -19q-15 -13 -34 -20.5t-40 -7.5zM322 -25l17 100q11 0 13 -13t-2 -37q-4 -22 -10.5 -36t-17.5 -14z" />
    <glyph glyph-name="uniFE90" unicode="&#x628;" horiz-adv-x="1080" arabic-form="final" 
d="M956 -25q-38 0 -60.5 21t-30.5 55l42 -24h-97l104 253q-5 -28 -9 -54.5t-4 -45.5q0 -46 25 -75.5t71 -29.5h50l-17 -100h-74zM236 -25q-85 0 -123 40.5t-38 131.5q0 47 7.5 84.5t14.5 73t7 76.5q0 26 -3.5 45.5t-8.5 34.5q20 11 40 19.5t41 8.5q26 0 38.5 -16.5
t12.5 -51.5q0 -37 -9.5 -81.5t-19.5 -92.5t-10 -96q0 -47 15.5 -61.5t55.5 -14.5h537l-22 -20q1 44 8.5 97.5t18 107t21.5 99t18.5 74.5t8.5 33l6 -46l-62 68q25 20 56.5 31t58.5 11q28 0 40.5 -12t12.5 -41q0 -7 -7.5 -38.5t-18.5 -79t-22.5 -102.5t-19.5 -109t-9 -97
l-49 -76h-596zM1030 -25l17 100q11 0 13 -13t-2 -37q-4 -22 -10.5 -36t-17.5 -14zM415 -238q-28 0 -45 15t-17 38q0 36 24 58t61 22q29 0 45.5 -15t16.5 -40q0 -34 -23.5 -56t-61.5 -22z" />
    <glyph glyph-name="uniFE91" unicode="&#x628;" horiz-adv-x="316" arabic-form="initial" 
d="M-49 -25l16 100h143l-22 -20q1 44 8.5 97.5t18 107t21.5 99t18.5 74.5t8.5 33l6 -46l-62 68q25 20 56.5 31t59.5 11q27 0 39.5 -12t12.5 -41q0 -7 -7.5 -38.5t-18.5 -79t-22.5 -102.5t-19.5 -109t-9 -97l-49 -76h-198zM-49 -25q-11 0 -13.5 13t1.5 37q5 23 11 36.5
t17 13.5zM86 -238q-28 0 -45 15t-17 38q0 36 24 58t61 22q29 0 45.5 -15t16.5 -40q0 -34 -23.5 -56t-61.5 -22z" />
    <glyph glyph-name="uniFE92" unicode="&#x628;" horiz-adv-x="389" arabic-form="medial" 
d="M-49 -25l16 100h148l-35 -35v36q0 22 6 55.5t14.5 72.5t17 79.5t14 77.5t5.5 66q0 21 -3 40.5t-8 35.5q20 12 41.5 19.5t40.5 7.5q27 0 39.5 -16.5t12.5 -48.5q0 -27 -7 -63t-16 -75t-16 -75.5t-7 -66.5q0 -51 24.5 -80.5t70.5 -29.5h46l-16 -100h-72q-37 0 -59.5 21
t-30.5 55l31 -24h-31l-34 -52h-192zM339 -25l17 100q11 0 13 -13t-2 -37q-4 -22 -10.5 -36t-17.5 -14zM-49 -25q-11 0 -13.5 13t1.5 37q5 23 11 36.5t17 13.5zM79 -238q-28 0 -45 15t-17 38q0 36 24 58t61 22q29 0 45.5 -15t16.5 -40q0 -34 -23.5 -56t-61.5 -22z" />
    <glyph glyph-name="uniFE94" unicode="&#x629;" horiz-adv-x="731" arabic-form="final" 
d="M469 695q-28 0 -45.5 15t-17.5 38q0 36 24 57.5t61 21.5q29 0 46 -14.5t17 -39.5q0 -34 -23.5 -56t-61.5 -22zM306 695q-28 0 -45 15t-17 38q0 36 24 57.5t61 21.5q29 0 45.5 -14.5t16.5 -39.5q0 -34 -23.5 -56t-61.5 -22zM421 -25l50 100h227l-17 -100h-260zM308 -25
q-75 0 -130 30.5t-85 90t-30 145.5q0 83 28 150t76 114.5t109.5 73t128.5 25.5q55 0 95.5 -15t67.5 -37t38 -45l-82 -455l-50 -77h-166zM416 68l79 445l5 -44q-10 15 -36 25t-61 10q-65 0 -117 -34t-82 -94t-30 -140t33.5 -120.5t100.5 -40.5h119zM681 -25l17 100
q11 0 13 -13t-2 -37q-4 -22 -10.5 -36t-17.5 -14z" />
    <glyph glyph-name="uniFE96" unicode="&#x62a;" horiz-adv-x="1080" arabic-form="final" 
d="M956 -25q-38 0 -60.5 21t-30.5 55l42 -24h-97l104 253q-5 -28 -9 -54.5t-4 -45.5q0 -46 25 -75.5t71 -29.5h50l-17 -100h-74zM236 -25q-85 0 -123 40.5t-38 131.5q0 47 7.5 84.5t14.5 73t7 76.5q0 26 -3.5 45.5t-8.5 34.5q20 11 40 19.5t41 8.5q26 0 38.5 -16.5
t12.5 -51.5q0 -37 -9.5 -81.5t-19.5 -92.5t-10 -96q0 -47 15.5 -61.5t55.5 -14.5h537l-22 -20q1 44 8.5 97.5t18 107t21.5 99t18.5 74.5t8.5 33l6 -46l-62 68q25 20 56.5 31t58.5 11q28 0 40.5 -12t12.5 -41q0 -7 -7.5 -38.5t-18.5 -79t-22.5 -102.5t-19.5 -109t-9 -97
l-49 -76h-596zM1030 -25l17 100q11 0 13 -13t-2 -37q-4 -22 -10.5 -36t-17.5 -14zM630 595q-28 0 -45.5 15t-17.5 38q0 36 24 57.5t61 21.5q29 0 46 -14.5t17 -39.5q0 -34 -23.5 -56t-61.5 -22zM467 595q-28 0 -45 15t-17 38q0 36 24 57.5t61 21.5q29 0 45.5 -14.5
t16.5 -39.5q0 -34 -23.5 -56t-61.5 -22z" />
    <glyph glyph-name="uniFE97" unicode="&#x62a;" horiz-adv-x="316" arabic-form="initial" 
d="M-49 -25l16 100h143l-22 -20q1 44 8.5 97.5t18 107t21.5 99t18.5 74.5t8.5 33l6 -46l-62 68q25 20 56.5 31t59.5 11q27 0 39.5 -12t12.5 -41q0 -7 -7.5 -38.5t-18.5 -79t-22.5 -102.5t-19.5 -109t-9 -97l-49 -76h-198zM-49 -25q-11 0 -13.5 13t1.5 37q5 23 11 36.5
t17 13.5zM306 620q-28 0 -45.5 15t-17.5 38q0 36 24 57.5t61 21.5q29 0 46 -14.5t17 -39.5q0 -34 -23.5 -56t-61.5 -22zM143 620q-28 0 -45 15t-17 38q0 36 24 57.5t61 21.5q29 0 45.5 -14.5t16.5 -39.5q0 -34 -23.5 -56t-61.5 -22z" />
    <glyph glyph-name="uniFE98" unicode="&#x62a;" horiz-adv-x="389" arabic-form="medial" 
d="M-49 -25l16 100h148l-35 -35v36q0 22 6 55.5t14.5 72.5t17 79.5t14 77.5t5.5 66q0 21 -3 40.5t-8 35.5q20 12 41.5 19.5t40.5 7.5q27 0 39.5 -16.5t12.5 -48.5q0 -27 -7 -63t-16 -75t-16 -75.5t-7 -66.5q0 -51 24.5 -80.5t70.5 -29.5h46l-16 -100h-72q-37 0 -59.5 21
t-30.5 55l31 -24h-31l-34 -52h-192zM339 -25l17 100q11 0 13 -13t-2 -37q-4 -22 -10.5 -36t-17.5 -14zM-49 -25q-11 0 -13.5 13t1.5 37q5 23 11 36.5t17 13.5zM299 620q-28 0 -45.5 15t-17.5 38q0 36 24 57.5t61 21.5q29 0 46 -14.5t17 -39.5q0 -34 -23.5 -56t-61.5 -22z
M136 620q-28 0 -45 15t-17 38q0 36 24 57.5t61 21.5q29 0 45.5 -14.5t16.5 -39.5q0 -34 -23.5 -56t-61.5 -22z" />
    <glyph glyph-name="uniFE9A" unicode="&#x62b;" horiz-adv-x="1080" arabic-form="final" 
d="M956 -25q-38 0 -60.5 21t-30.5 55l42 -24h-97l104 253q-5 -28 -9 -54.5t-4 -45.5q0 -46 25 -75.5t71 -29.5h50l-17 -100h-74zM236 -25q-85 0 -123 40.5t-38 131.5q0 47 7.5 84.5t14.5 73t7 76.5q0 26 -3.5 45.5t-8.5 34.5q20 11 40 19.5t41 8.5q26 0 38.5 -16.5
t12.5 -51.5q0 -37 -9.5 -81.5t-19.5 -92.5t-10 -96q0 -47 15.5 -61.5t55.5 -14.5h537l-22 -20q1 44 8.5 97.5t18 107t21.5 99t18.5 74.5t8.5 33l6 -46l-62 68q25 20 56.5 31t58.5 11q28 0 40.5 -12t12.5 -41q0 -7 -7.5 -38.5t-18.5 -79t-22.5 -102.5t-19.5 -109t-9 -97
l-49 -76h-596zM1030 -25l17 100q11 0 13 -13t-2 -37q-4 -22 -10.5 -36t-17.5 -14zM626 595q-28 0 -45 14.5t-17 38.5q0 35 24 57t61 22q29 0 45.5 -14.5t16.5 -39.5q0 -34 -23.5 -56t-61.5 -22zM463 595q-28 0 -45 14.5t-17 38.5q0 35 24 57t61 22q29 0 46 -14.5t17 -39.5
q0 -34 -24 -56t-62 -22zM567 740q-25 0 -41 13t-16 35q0 32 22 52t56 20q26 0 41.5 -13.5t15.5 -35.5q0 -32 -21.5 -51.5t-56.5 -19.5z" />
    <glyph glyph-name="uniFE9B" unicode="&#x62b;" horiz-adv-x="316" arabic-form="initial" 
d="M-49 -25l16 100h143l-22 -20q1 44 8.5 97.5t18 107t21.5 99t18.5 74.5t8.5 33l6 -46l-62 68q25 20 56.5 31t59.5 11q27 0 39.5 -12t12.5 -41q0 -7 -7.5 -38.5t-18.5 -79t-22.5 -102.5t-19.5 -109t-9 -97l-49 -76h-198zM-49 -25q-11 0 -13.5 13t1.5 37q5 23 11 36.5
t17 13.5zM302 620q-28 0 -45 14.5t-17 38.5q0 35 24 57t61 22q29 0 45.5 -14.5t16.5 -39.5q0 -34 -23.5 -56t-61.5 -22zM139 620q-28 0 -45 14.5t-17 38.5q0 35 24 57t61 22q29 0 46 -14.5t17 -39.5q0 -34 -24 -56t-62 -22zM243 765q-25 0 -41 13t-16 35q0 32 22 52t56 20
q26 0 41.5 -13.5t15.5 -35.5q0 -32 -21.5 -51.5t-56.5 -19.5z" />
    <glyph glyph-name="uniFE9C" unicode="&#x62b;" horiz-adv-x="389" arabic-form="medial" 
d="M-49 -25l16 100h148l-35 -35v36q0 22 6 55.5t14.5 72.5t17 79.5t14 77.5t5.5 66q0 21 -3 40.5t-8 35.5q20 12 41.5 19.5t40.5 7.5q27 0 39.5 -16.5t12.5 -48.5q0 -27 -7 -63t-16 -75t-16 -75.5t-7 -66.5q0 -51 24.5 -80.5t70.5 -29.5h46l-16 -100h-72q-37 0 -59.5 21
t-30.5 55l31 -24h-31l-34 -52h-192zM339 -25l17 100q11 0 13 -13t-2 -37q-4 -22 -10.5 -36t-17.5 -14zM-49 -25q-11 0 -13.5 13t1.5 37q5 23 11 36.5t17 13.5zM295 620q-28 0 -45 14.5t-17 38.5q0 35 24 57t61 22q29 0 45.5 -14.5t16.5 -39.5q0 -34 -23.5 -56t-61.5 -22z
M132 620q-28 0 -45 14.5t-17 38.5q0 35 24 57t61 22q29 0 46 -14.5t17 -39.5q0 -34 -24 -56t-62 -22zM236 765q-25 0 -41 13t-16 35q0 32 22 52t56 20q26 0 41.5 -13.5t15.5 -35.5q0 -32 -21.5 -51.5t-56.5 -19.5z" />
    <glyph glyph-name="uniFE9E" unicode="&#x62c;" horiz-adv-x="971" arabic-form="final" 
d="M841 -25q-84 0 -144 26t-97.5 70.5t-54 101.5t-14 120.5t22.5 126.5l102 7q-19 -63 -18 -125t23.5 -113.5t68 -82.5t114.5 -31h93l-16 -100h-80zM510 -474q-110 0 -190.5 46.5t-123.5 132t-43 200.5q0 93 27.5 179t77.5 159.5t117.5 129t148.5 87.5l-70 -50l-88 -1
q-32 0 -69.5 3t-74 11t-66 22.5t-47.5 38t-18 56.5q0 16 5 30t15 30q48 -14 119.5 -30.5t153 -31t161 -24t143.5 -9.5q29 0 48.5 4t36.5 14q14 -19 19.5 -33.5t5.5 -31.5q0 -38 -29 -53t-69 -15q-22 0 -50 3t-55.5 8.5t-48.5 12.5l27 16l-13 -39q-62 -23 -115.5 -71.5
t-94 -114.5t-63.5 -143t-23 -158q0 -77 20 -130t54.5 -85.5t78 -47t90.5 -14.5q69 0 114 25.5t67 67t22 88.5q44 0 67.5 -20.5t26.5 -52.5t-14 -68t-54 -68t-93.5 -52.5t-132.5 -20.5zM920 -25l17 100q11 0 13 -13t-2 -37q-4 -22 -10.5 -36t-17.5 -14zM507 -160
q-29 0 -46 14.5t-17 38.5q0 35 24 57t61 22q29 0 46 -14.5t17 -39.5q0 -34 -23.5 -56t-61.5 -22z" />
    <glyph glyph-name="uniFE9F" unicode="&#x62c;" horiz-adv-x="865" arabic-form="initial" 
d="M-49 -25l16 100h706l-35 -37q5 79 -15 141.5t-54.5 109.5t-76 78.5t-81.5 46.5q-16 -2 -40.5 -3.5t-41.5 -1.5q-31 0 -68 3t-73 10.5t-66 22.5t-48 38t-18 57q0 17 4.5 31t14.5 29q48 -14 119.5 -30.5t153 -31t161.5 -23.5t144 -9q28 0 47.5 3.5t37.5 14.5q13 -19 19 -34
t6 -32q0 -40 -30 -54t-75 -14q-15 0 -29 1.5t-29 3.5t-33 4.5t-42 5.5l34 7q63 -30 104 -73.5t64.5 -93.5t32 -98.5t4.5 -87.5l-55 -84h-758zM-49 -25q-11 0 -13.5 13t1.5 37q5 23 11 36.5t17 13.5zM293 -238q-28 0 -45 15t-17 38q0 36 24 58t61 22q29 0 45.5 -15t16.5 -40
q0 -34 -23.5 -56t-61.5 -22z" />
    <glyph glyph-name="uniFEA0" unicode="&#x62c;" horiz-adv-x="937" arabic-form="medial" 
d="M831 -25q-37 0 -59 21.5t-31 52.5l43 -22h-68l38 142q5 -17 12.5 -39.5t27 -38.5t60.5 -16h50l-17 -100h-56zM-49 -25l16 100h706l-35 -37q5 79 -15 141.5t-54.5 109.5t-76 78.5t-81.5 46.5q-16 -2 -40.5 -3.5t-41.5 -1.5q-31 0 -68 3t-73 10.5t-66 22.5t-48 38t-18 57
q0 17 4.5 31t14.5 29q48 -14 119.5 -30.5t153 -31t161.5 -23.5t144 -9q28 0 47.5 3.5t37.5 14.5q13 -19 19 -34t6 -32q0 -40 -30 -54t-75 -14q-15 0 -29 1.5t-29 3.5t-33 4.5t-42 5.5l34 7q63 -30 104 -73.5t64.5 -93.5t32 -98.5t4.5 -87.5l-55 -84h-758zM-49 -25
q-11 0 -13.5 13t1.5 37q5 23 11 36.5t17 13.5zM887 -25l17 100q11 0 13 -13t-2 -37q-4 -22 -10.5 -36t-17.5 -14zM293 -238q-28 0 -45 15t-17 38q0 36 24 58t61 22q29 0 45.5 -15t16.5 -40q0 -34 -23.5 -56t-61.5 -22z" />
    <glyph glyph-name="uniFEA2" unicode="&#x62d;" horiz-adv-x="971" arabic-form="final" 
d="M841 -25q-84 0 -144 26t-97.5 70.5t-54 101.5t-14 120.5t22.5 126.5l102 7q-19 -63 -18 -125t23.5 -113.5t68 -82.5t114.5 -31h93l-16 -100h-80zM510 -474q-110 0 -190.5 46.5t-123.5 132t-43 200.5q0 93 27.5 179t77.5 159.5t117.5 129t148.5 87.5l-70 -50l-88 -1
q-32 0 -69.5 3t-74 11t-66 22.5t-47.5 38t-18 56.5q0 16 5 30t15 30q48 -14 119.5 -30.5t153 -31t161 -24t143.5 -9.5q29 0 48.5 4t36.5 14q14 -19 19.5 -33.5t5.5 -31.5q0 -38 -29 -53t-69 -15q-22 0 -50 3t-55.5 8.5t-48.5 12.5l27 16l-13 -39q-62 -23 -115.5 -71.5
t-94 -114.5t-63.5 -143t-23 -158q0 -77 20 -130t54.5 -85.5t78 -47t90.5 -14.5q69 0 114 25.5t67 67t22 88.5q44 0 67.5 -20.5t26.5 -52.5t-14 -68t-54 -68t-93.5 -52.5t-132.5 -20.5zM920 -25l17 100q11 0 13 -13t-2 -37q-4 -22 -10.5 -36t-17.5 -14z" />
    <glyph glyph-name="uniFEA3" unicode="&#x62d;" horiz-adv-x="865" arabic-form="initial" 
d="M-49 -25l16 100h706l-35 -37q5 79 -15 141.5t-54.5 109.5t-76 78.5t-81.5 46.5q-16 -2 -40.5 -3.5t-41.5 -1.5q-31 0 -68 3t-73 10.5t-66 22.5t-48 38t-18 57q0 17 4.5 31t14.5 29q48 -14 119.5 -30.5t153 -31t161.5 -23.5t144 -9q28 0 47.5 3.5t37.5 14.5q13 -19 19 -34
t6 -32q0 -40 -30 -54t-75 -14q-15 0 -29 1.5t-29 3.5t-33 4.5t-42 5.5l34 7q63 -30 104 -73.5t64.5 -93.5t32 -98.5t4.5 -87.5l-55 -84h-758zM-49 -25q-11 0 -13.5 13t1.5 37q5 23 11 36.5t17 13.5z" />
    <glyph glyph-name="uniFEA4" unicode="&#x62d;" horiz-adv-x="937" arabic-form="medial" 
d="M831 -25q-37 0 -59 21.5t-31 52.5l43 -22h-68l38 142q5 -17 12.5 -39.5t27 -38.5t60.5 -16h50l-17 -100h-56zM-49 -25l16 100h706l-35 -37q5 79 -15 141.5t-54.5 109.5t-76 78.5t-81.5 46.5q-16 -2 -40.5 -3.5t-41.5 -1.5q-31 0 -68 3t-73 10.5t-66 22.5t-48 38t-18 57
q0 17 4.5 31t14.5 29q48 -14 119.5 -30.5t153 -31t161.5 -23.5t144 -9q28 0 47.5 3.5t37.5 14.5q13 -19 19 -34t6 -32q0 -40 -30 -54t-75 -14q-15 0 -29 1.5t-29 3.5t-33 4.5t-42 5.5l34 7q63 -30 104 -73.5t64.5 -93.5t32 -98.5t4.5 -87.5l-55 -84h-758zM-49 -25
q-11 0 -13.5 13t1.5 37q5 23 11 36.5t17 13.5zM887 -25l17 100q11 0 13 -13t-2 -37q-4 -22 -10.5 -36t-17.5 -14z" />
    <glyph glyph-name="uniFEA6" unicode="&#x62e;" horiz-adv-x="971" arabic-form="final" 
d="M841 -25q-84 0 -144 26t-97.5 70.5t-54 101.5t-14 120.5t22.5 126.5l102 7q-19 -63 -18 -125t23.5 -113.5t68 -82.5t114.5 -31h93l-16 -100h-80zM510 -474q-110 0 -190.5 46.5t-123.5 132t-43 200.5q0 93 27.5 179t77.5 159.5t117.5 129t148.5 87.5l-70 -50l-88 -1
q-32 0 -69.5 3t-74 11t-66 22.5t-47.5 38t-18 56.5q0 16 5 30t15 30q48 -14 119.5 -30.5t153 -31t161 -24t143.5 -9.5q29 0 48.5 4t36.5 14q14 -19 19.5 -33.5t5.5 -31.5q0 -38 -29 -53t-69 -15q-22 0 -50 3t-55.5 8.5t-48.5 12.5l27 16l-13 -39q-62 -23 -115.5 -71.5
t-94 -114.5t-63.5 -143t-23 -158q0 -77 20 -130t54.5 -85.5t78 -47t90.5 -14.5q69 0 114 25.5t67 67t22 88.5q44 0 67.5 -20.5t26.5 -52.5t-14 -68t-54 -68t-93.5 -52.5t-132.5 -20.5zM920 -25l17 100q11 0 13 -13t-2 -37q-4 -22 -10.5 -36t-17.5 -14zM472 650
q-29 0 -46 14.5t-17 38.5q0 35 24 57t61 22q29 0 46 -14.5t17 -39.5q0 -34 -23.5 -56t-61.5 -22z" />
    <glyph glyph-name="uniFEA7" unicode="&#x62e;" horiz-adv-x="865" arabic-form="initial" 
d="M-49 -25l16 100h706l-35 -37q5 79 -15 141.5t-54.5 109.5t-76 78.5t-81.5 46.5q-16 -2 -40.5 -3.5t-41.5 -1.5q-31 0 -68 3t-73 10.5t-66 22.5t-48 38t-18 57q0 17 4.5 31t14.5 29q48 -14 119.5 -30.5t153 -31t161.5 -23.5t144 -9q28 0 47.5 3.5t37.5 14.5q13 -19 19 -34
t6 -32q0 -40 -30 -54t-75 -14q-15 0 -29 1.5t-29 3.5t-33 4.5t-42 5.5l34 7q63 -30 104 -73.5t64.5 -93.5t32 -98.5t4.5 -87.5l-55 -84h-758zM-49 -25q-11 0 -13.5 13t1.5 37q5 23 11 36.5t17 13.5zM435 650q-29 0 -46 14.5t-17 38.5q0 35 24 57t61 22q29 0 46 -14.5
t17 -39.5q0 -34 -23.5 -56t-61.5 -22z" />
    <glyph glyph-name="uniFEA8" unicode="&#x62e;" horiz-adv-x="937" arabic-form="medial" 
d="M831 -25q-37 0 -59 21.5t-31 52.5l43 -22h-68l38 142q5 -17 12.5 -39.5t27 -38.5t60.5 -16h50l-17 -100h-56zM-49 -25l16 100h706l-35 -37q5 79 -15 141.5t-54.5 109.5t-76 78.5t-81.5 46.5q-16 -2 -40.5 -3.5t-41.5 -1.5q-31 0 -68 3t-73 10.5t-66 22.5t-48 38t-18 57
q0 17 4.5 31t14.5 29q48 -14 119.5 -30.5t153 -31t161.5 -23.5t144 -9q28 0 47.5 3.5t37.5 14.5q13 -19 19 -34t6 -32q0 -40 -30 -54t-75 -14q-15 0 -29 1.5t-29 3.5t-33 4.5t-42 5.5l34 7q63 -30 104 -73.5t64.5 -93.5t32 -98.5t4.5 -87.5l-55 -84h-758zM-49 -25
q-11 0 -13.5 13t1.5 37q5 23 11 36.5t17 13.5zM887 -25l17 100q11 0 13 -13t-2 -37q-4 -22 -10.5 -36t-17.5 -14zM435 650q-29 0 -46 14.5t-17 38.5q0 35 24 57t61 22q29 0 46 -14.5t17 -39.5q0 -34 -23.5 -56t-61.5 -22z" />
    <glyph glyph-name="uniFEAA" unicode="&#x62f;" horiz-adv-x="704" arabic-form="final" 
d="M580 -25q-38 0 -60.5 21t-30.5 55l42 -24h-98l89 153q0 -46 24.5 -75.5t70.5 -29.5h54l-17 -100h-74zM163 -24q-76 0 -112 20t-36 62q0 12 2.5 24t5.5 20q20 -8 50 -17t59 -9h292l-31 -17q-1 28 6 66t16.5 80t17 83t7.5 75q0 76 -39 113t-95 37q-60 0 -98.5 -39
t-42.5 -107q-28 0 -50.5 6.5t-35.5 22.5t-13 44q0 44 31.5 83.5t85.5 64.5t122 25q75 0 130.5 -32t85.5 -88t30 -130q0 -41 -8 -85.5t-17.5 -86.5t-16.5 -76t-6 -54l-47 -85h-293zM654 -25l17 100q11 0 13 -13t-2 -37q-4 -22 -10.5 -36t-17.5 -14z" />
    <glyph glyph-name="uniFEAC" unicode="&#x630;" horiz-adv-x="704" arabic-form="final" 
d="M580 -25q-38 0 -60.5 21t-30.5 55l42 -24h-98l89 153q0 -46 24.5 -75.5t70.5 -29.5h54l-17 -100h-74zM163 -24q-76 0 -112 20t-36 62q0 12 2.5 24t5.5 20q20 -8 50 -17t59 -9h292l-31 -17q-1 28 6 66t16.5 80t17 83t7.5 75q0 76 -39 113t-95 37q-60 0 -98.5 -39
t-42.5 -107q-28 0 -50.5 6.5t-35.5 22.5t-13 44q0 44 31.5 83.5t85.5 64.5t122 25q75 0 130.5 -32t85.5 -88t30 -130q0 -41 -8 -85.5t-17.5 -86.5t-16.5 -76t-6 -54l-47 -85h-293zM654 -25l17 100q11 0 13 -13t-2 -37q-4 -22 -10.5 -36t-17.5 -14zM331 690q-29 0 -46 14.5
t-17 38.5q0 35 24 57t61 22q29 0 46 -14.5t17 -39.5q0 -34 -23.5 -56t-61.5 -22z" />
    <glyph glyph-name="uniFEAE" unicode="&#x631;" horiz-adv-x="491" arabic-form="final" 
d="M378 -25q-38 0 -60 21t-30 55l42 -24h-81l66 158q0 -50 25 -79.5t71 -30.5h46l-16 -100h-63zM-6 -365q-45 0 -72 11t-39 28t-12 34q74 0 126.5 18t88 60.5t59.5 114t42 178.5q9 57 16 102t13 81t10.5 66t8.5 57t8 53l6 -48l-53 98q33 20 62.5 31t51.5 11q25 0 38 -13
t13 -27q0 -7 -5 -41t-13.5 -88t-19.5 -123t-23 -147q-15 -94 -37 -177t-57 -145.5t-86.5 -98t-125.5 -35.5zM441 -25l17 100q11 0 13 -13t-2 -37q-4 -22 -10.5 -36t-17.5 -14z" />
    <glyph glyph-name="uniFEB0" unicode="&#x632;" horiz-adv-x="491" arabic-form="final" 
d="M378 -25q-38 0 -60 21t-30 55l42 -24h-81l66 158q0 -50 25 -79.5t71 -30.5h46l-16 -100h-63zM-6 -365q-45 0 -72 11t-39 28t-12 34q74 0 126.5 18t88 60.5t59.5 114t42 178.5q9 57 16 102t13 81t10.5 66t8.5 57t8 53l6 -48l-53 98q33 20 62.5 31t51.5 11q25 0 38 -13
t13 -27q0 -7 -5 -41t-13.5 -88t-19.5 -123t-23 -147q-15 -94 -37 -177t-57 -145.5t-86.5 -98t-125.5 -35.5zM441 -25l17 100q11 0 13 -13t-2 -37q-4 -22 -10.5 -36t-17.5 -14zM303 620q-29 0 -46 14.5t-17 38.5q0 35 24 57t61 22q29 0 46 -14.5t17 -39.5q0 -34 -23.5 -56
t-61.5 -22z" />
    <glyph glyph-name="uniFEB2" unicode="&#x633;" horiz-adv-x="1536" arabic-form="final" 
d="M1414 -25q-38 0 -60.5 21t-30.5 55l31 -24h-105l137 319q-8 -42 -17 -85t-9 -76q0 -51 25 -80.5t71 -29.5h46l-16 -100h-72zM331 -278q-66 0 -120 20t-93.5 57.5t-60.5 90t-21 117.5q0 60 16.5 107t42.5 73.5t54 26.5q22 0 43 -12.5t28 -24.5q-16 -13 -33 -38t-29 -59
t-12 -76q0 -31 8.5 -63t29.5 -59t57 -43.5t90 -16.5q70 0 121 28t86.5 76.5t57.5 111.5t31.5 133.5t9.5 141.5q0 28 -1.5 56.5t-4 51.5t-6.5 34q21 12 40 19.5t38 7.5q29 0 40.5 -17.5t11.5 -51.5q0 -32 -7.5 -70.5t-15.5 -78.5t-8 -76q0 -54 23.5 -83.5t70.5 -29.5h123
l-35 -35v36q0 26 7.5 66t18 85.5t18 90t7.5 80.5q0 21 -3 40.5t-8 35.5q20 12 41.5 19.5t40.5 7.5q27 0 39.5 -17t12.5 -49q0 -35 -10 -78.5t-20 -88t-10 -82.5q0 -52 25 -81.5t71 -29.5h122l-32 -35v36q0 21 5.5 54t14 72t17 80t14 78.5t5.5 66.5q0 22 -3 41.5t-8 34.5
q21 12 42 19.5t40 7.5q27 0 39.5 -17t12.5 -46q0 -30 -9.5 -77.5t-22.5 -105.5t-23 -118t-11 -114l-49 -77h-196q-38 0 -60.5 21t-30.5 55l31 -24h-31l-34 -52h-210q-37 0 -59.5 21t-30.5 55l55 -54h-43q-22 -60 -54.5 -110.5t-75.5 -87t-98 -57t-122 -20.5zM1485 -25
l17 100q11 0 13 -13t-2 -37q-4 -22 -10.5 -36t-17.5 -14z" />
    <glyph glyph-name="uniFEB3" unicode="&#x633;" horiz-adv-x="943" arabic-form="initial" 
d="M-49 -25l16 100h154l-34 -35v36q0 26 7.5 63t17 78.5t16.5 83t7 77.5q0 22 -3 41.5t-8 35.5q20 12 41.5 19.5t40.5 7.5q27 0 39.5 -17.5t12.5 -49.5q0 -34 -9.5 -72.5t-19 -78.5t-9.5 -77q0 -53 25 -82.5t71 -29.5h123l-34 -35v36q0 26 7.5 66t17.5 85.5t17.5 90
t7.5 80.5q0 21 -3 40.5t-8 35.5q21 12 42 19.5t40 7.5q27 0 39.5 -17t12.5 -49q0 -35 -10 -78.5t-20 -88t-10 -82.5q0 -52 25 -81.5t71 -29.5h122l-32 -35v36q0 21 6 54t14.5 72t16.5 80t14 78.5t6 66.5q0 22 -3.5 41.5t-8.5 34.5q21 12 42 19.5t40 7.5q27 0 39.5 -17
t12.5 -46q0 -30 -9.5 -77.5t-22.5 -105.5t-23 -118t-11 -114l-49 -77h-196q-38 0 -60.5 21t-30.5 55l31 -24h-30l-34 -52h-194q-38 0 -60.5 21t-30.5 55l31 -24h-30l-34 -52h-199zM-49 -25q-11 0 -13.5 13t1.5 37q5 23 11 36.5t17 13.5z" />
    <glyph glyph-name="uniFEB4" unicode="&#x633;" horiz-adv-x="1033" arabic-form="medial" 
d="M912 -25q-38 0 -60.5 21t-30.5 55l31 -24h-105l137 319q-8 -42 -17 -85t-9 -76q0 -51 25 -80.5t71 -29.5h46l-17 -100h-71zM-49 -25l16 100h154l-34 -35v36q0 26 7.5 63t17 78.5t16.5 83t7 77.5q0 22 -3 41.5t-8 35.5q20 12 41.5 19.5t40.5 7.5q27 0 39.5 -17.5
t12.5 -49.5q0 -34 -9.5 -72.5t-19 -78.5t-9.5 -77q0 -53 25 -82.5t71 -29.5h123l-34 -35v36q0 26 7.5 66t17.5 85.5t17.5 90t7.5 80.5q0 21 -3 40.5t-8 35.5q21 12 42 19.5t40 7.5q27 0 39.5 -17t12.5 -49q0 -35 -10 -78.5t-20 -88t-10 -82.5q0 -52 25 -81.5t71 -29.5h122
l-32 -35v36q0 21 6 54t14.5 72t16.5 80t14 78.5t6 66.5q0 22 -3.5 41.5t-8.5 34.5q21 12 42 19.5t40 7.5q27 0 39.5 -17t12.5 -46q0 -30 -9.5 -77.5t-22.5 -105.5t-23 -118t-11 -114l-49 -77h-196q-38 0 -60.5 21t-30.5 55l31 -24h-30l-34 -52h-194q-38 0 -60.5 21t-30.5 55
l31 -24h-30l-34 -52h-199zM-49 -25q-11 0 -13.5 13t1.5 37q5 23 11 36.5t17 13.5zM983 -25l17 100q11 0 13 -13t-2 -37q-4 -22 -10.5 -36t-17.5 -14z" />
    <glyph glyph-name="uniFEB6" unicode="&#x634;" horiz-adv-x="1536" arabic-form="final" 
d="M1414 -25q-38 0 -60.5 21t-30.5 55l31 -24h-105l137 319q-8 -42 -17 -85t-9 -76q0 -51 25 -80.5t71 -29.5h46l-16 -100h-72zM331 -278q-66 0 -120 20t-93.5 57.5t-60.5 90t-21 117.5q0 60 16.5 107t42.5 73.5t54 26.5q22 0 43 -12.5t28 -24.5q-16 -13 -33 -38t-29 -59
t-12 -76q0 -31 8.5 -63t29.5 -59t57 -43.5t90 -16.5q70 0 121 28t86.5 76.5t57.5 111.5t31.5 133.5t9.5 141.5q0 28 -1.5 56.5t-4 51.5t-6.5 34q21 12 40 19.5t38 7.5q29 0 40.5 -17.5t11.5 -51.5q0 -32 -7.5 -70.5t-15.5 -78.5t-8 -76q0 -54 23.5 -83.5t70.5 -29.5h123
l-35 -35v36q0 26 7.5 66t18 85.5t18 90t7.5 80.5q0 21 -3 40.5t-8 35.5q20 12 41.5 19.5t40.5 7.5q27 0 39.5 -17t12.5 -49q0 -35 -10 -78.5t-20 -88t-10 -82.5q0 -52 25 -81.5t71 -29.5h122l-32 -35v36q0 21 5.5 54t14 72t17 80t14 78.5t5.5 66.5q0 22 -3 41.5t-8 34.5
q21 12 42 19.5t40 7.5q27 0 39.5 -17t12.5 -46q0 -30 -9.5 -77.5t-22.5 -105.5t-23 -118t-11 -114l-49 -77h-196q-38 0 -60.5 21t-30.5 55l31 -24h-31l-34 -52h-210q-37 0 -59.5 21t-30.5 55l55 -54h-43q-22 -60 -54.5 -110.5t-75.5 -87t-98 -57t-122 -20.5zM1485 -25
l17 100q11 0 13 -13t-2 -37q-4 -22 -10.5 -36t-17.5 -14zM1111 620q-28 0 -45 14.5t-17 38.5q0 35 24 57t61 22q29 0 45.5 -14.5t16.5 -39.5q0 -34 -23.5 -56t-61.5 -22zM948 620q-28 0 -45 14.5t-17 38.5q0 35 24 57t61 22q29 0 46 -14.5t17 -39.5q0 -34 -24 -56t-62 -22z
M1052 765q-25 0 -41 13t-16 35q0 32 22 52t56 20q26 0 41.5 -13.5t15.5 -35.5q0 -32 -21.5 -51.5t-56.5 -19.5z" />
    <glyph glyph-name="uniFEB7" unicode="&#x634;" horiz-adv-x="943" arabic-form="initial" 
d="M-49 -25l16 100h154l-34 -35v36q0 26 7.5 63t17 78.5t16.5 83t7 77.5q0 22 -3 41.5t-8 35.5q20 12 41.5 19.5t40.5 7.5q27 0 39.5 -17.5t12.5 -49.5q0 -34 -9.5 -72.5t-19 -78.5t-9.5 -77q0 -53 25 -82.5t71 -29.5h123l-34 -35v36q0 26 7.5 66t17.5 85.5t17.5 90
t7.5 80.5q0 21 -3 40.5t-8 35.5q21 12 42 19.5t40 7.5q27 0 39.5 -17t12.5 -49q0 -35 -10 -78.5t-20 -88t-10 -82.5q0 -52 25 -81.5t71 -29.5h122l-32 -35v36q0 21 6 54t14.5 72t16.5 80t14 78.5t6 66.5q0 22 -3.5 41.5t-8.5 34.5q21 12 42 19.5t40 7.5q27 0 39.5 -17
t12.5 -46q0 -30 -9.5 -77.5t-22.5 -105.5t-23 -118t-11 -114l-49 -77h-196q-38 0 -60.5 21t-30.5 55l31 -24h-30l-34 -52h-194q-38 0 -60.5 21t-30.5 55l31 -24h-30l-34 -52h-199zM-49 -25q-11 0 -13.5 13t1.5 37q5 23 11 36.5t17 13.5zM613 620q-28 0 -45 14.5t-17 38.5
q0 35 24 57t61 22q29 0 45.5 -14.5t16.5 -39.5q0 -34 -23.5 -56t-61.5 -22zM450 620q-28 0 -45 14.5t-17 38.5q0 35 24 57t61 22q29 0 46 -14.5t17 -39.5q0 -34 -24 -56t-62 -22zM554 765q-25 0 -41 13t-16 35q0 32 22 52t56 20q26 0 41.5 -13.5t15.5 -35.5
q0 -32 -21.5 -51.5t-56.5 -19.5z" />
    <glyph glyph-name="uniFEB8" unicode="&#x634;" horiz-adv-x="1033" arabic-form="medial" 
d="M912 -25q-38 0 -60.5 21t-30.5 55l31 -24h-105l137 319q-8 -42 -17 -85t-9 -76q0 -51 25 -80.5t71 -29.5h46l-17 -100h-71zM-49 -25l16 100h154l-34 -35v36q0 26 7.5 63t17 78.5t16.5 83t7 77.5q0 22 -3 41.5t-8 35.5q20 12 41.5 19.5t40.5 7.5q27 0 39.5 -17.5
t12.5 -49.5q0 -34 -9.5 -72.5t-19 -78.5t-9.5 -77q0 -53 25 -82.5t71 -29.5h123l-34 -35v36q0 26 7.5 66t17.5 85.5t17.5 90t7.5 80.5q0 21 -3 40.5t-8 35.5q21 12 42 19.5t40 7.5q27 0 39.5 -17t12.5 -49q0 -35 -10 -78.5t-20 -88t-10 -82.5q0 -52 25 -81.5t71 -29.5h122
l-32 -35v36q0 21 6 54t14.5 72t16.5 80t14 78.5t6 66.5q0 22 -3.5 41.5t-8.5 34.5q21 12 42 19.5t40 7.5q27 0 39.5 -17t12.5 -46q0 -30 -9.5 -77.5t-22.5 -105.5t-23 -118t-11 -114l-49 -77h-196q-38 0 -60.5 21t-30.5 55l31 -24h-30l-34 -52h-194q-38 0 -60.5 21t-30.5 55
l31 -24h-30l-34 -52h-199zM-49 -25q-11 0 -13.5 13t1.5 37q5 23 11 36.5t17 13.5zM983 -25l17 100q11 0 13 -13t-2 -37q-4 -22 -10.5 -36t-17.5 -14zM613 620q-28 0 -45 14.5t-17 38.5q0 35 24 57t61 22q29 0 45.5 -14.5t16.5 -39.5q0 -34 -23.5 -56t-61.5 -22zM450 620
q-28 0 -45 14.5t-17 38.5q0 35 24 57t61 22q29 0 46 -14.5t17 -39.5q0 -34 -24 -56t-62 -22zM554 765q-25 0 -41 13t-16 35q0 32 22 52t56 20q26 0 41.5 -13.5t15.5 -35.5q0 -32 -21.5 -51.5t-56.5 -19.5z" />
    <glyph glyph-name="uniFEBA" unicode="&#x635;" horiz-adv-x="1695" arabic-form="final" 
d="M1431 -25q-25 0 -47 10.5t-35.5 31t-13.5 48.5q0 21 5.5 47.5t11 57t5.5 60.5l90 22q-3 -34 -7 -66t-1.5 -57t16.5 -39.5t46 -14.5h161l-17 -100h-214zM321 -278q-66 0 -120.5 20t-94 57.5t-60.5 90t-21 117.5q0 61 17 107.5t43 73.5t53 27q23 0 43.5 -12.5t28.5 -25.5
q-16 -13 -33.5 -38t-29 -59t-11.5 -76q0 -31 8.5 -62.5t29.5 -58.5t57 -43.5t90 -16.5q69 0 120.5 28t87 76.5t57 111t31 133t9.5 141.5q0 28 -1.5 56.5t-3.5 51.5t-6 34q21 12 40 19.5t38 7.5q28 0 40 -17.5t12 -51.5q0 -17 -2.5 -36.5t-6.5 -39.5l-26 10q29 51 68 93.5
t88.5 73t110.5 47.5t134 17q104 0 180 -34t118 -97t42 -150q0 -70 -27 -129t-75.5 -102t-114.5 -67t-144 -24h-449l30 22q-22 -60 -54.5 -110.5t-75.5 -87t-98 -57t-122 -20.5zM694 59l-39 16h435q76 0 132 29t87 79.5t31 113.5q0 44 -15 77.5t-44.5 56.5t-72 35t-97.5 12
q-91 0 -159.5 -27t-117 -72t-79.5 -100t-45.5 -112.5t-15.5 -107.5zM1645 -25l17 100q11 0 13 -13t-2 -37q-4 -22 -10.5 -36t-17.5 -14z" />
    <glyph glyph-name="uniFEBB" unicode="&#x635;" horiz-adv-x="1028" arabic-form="initial" 
d="M-49 -25l16 100h161l-34 -32q-3 57 4.5 101t18 82.5t19 78.5t8.5 91q0 32 -4 50t-8 22q11 9 30.5 19t41.5 10q26 0 38.5 -14.5t15.5 -37t-0.5 -48.5t-11.5 -50h-28q29 51 68 93t88.5 73t110.5 48t134 17q104 0 180.5 -34t118.5 -97t42 -150q0 -70 -27 -129t-75.5 -102
t-114.5 -67t-144 -24h-648zM198 59l-35 16h436q76 0 132 29t87 79.5t31 113.5q0 44 -15 77.5t-44.5 56.5t-72.5 35t-98 12q-91 0 -160 -27t-118 -72t-80.5 -100t-46.5 -112.5t-16 -107.5zM-49 -25q-11 0 -13.5 13t1.5 37q5 23 11 36.5t17 13.5z" />
    <glyph glyph-name="uniFEBC" unicode="&#x635;" horiz-adv-x="1204" arabic-form="medial" 
d="M940 -25q-26 0 -48 10.5t-35 31t-13 48.5q0 21 5.5 47.5t11 57t5.5 60.5l90 22q-3 -34 -7 -66t-1.5 -57t16.5 -39.5t46 -14.5h160l-16 -100h-214zM-49 -25l16 100h161l-34 -32q-3 57 4.5 101t18 82.5t19 78.5t8.5 91q0 32 -4 50t-8 22q11 9 30.5 19t41.5 10
q26 0 38.5 -14.5t15.5 -37t-0.5 -48.5t-11.5 -50h-28q29 51 68 93t88.5 73t110.5 48t134 17q104 0 180.5 -34t118.5 -97t42 -150q0 -70 -27 -129t-75.5 -102t-114.5 -67t-144 -24h-648zM198 59l-35 16h436q76 0 132 29t87 79.5t31 113.5q0 44 -15 77.5t-44.5 56.5t-72.5 35
t-98 12q-91 0 -160 -27t-118 -72t-80.5 -100t-46.5 -112.5t-16 -107.5zM-49 -25q-11 0 -13.5 13t1.5 37q5 23 11 36.5t17 13.5zM1154 -25l17 100q11 0 13 -13t-2 -37q-4 -22 -10.5 -36t-17.5 -14z" />
    <glyph glyph-name="uniFEBE" unicode="&#x636;" horiz-adv-x="1695" arabic-form="final" 
d="M1431 -25q-25 0 -47 10.5t-35.5 31t-13.5 48.5q0 21 5.5 47.5t11 57t5.5 60.5l90 22q-3 -34 -7 -66t-1.5 -57t16.5 -39.5t46 -14.5h161l-17 -100h-214zM321 -278q-66 0 -120.5 20t-94 57.5t-60.5 90t-21 117.5q0 61 17 107.5t43 73.5t53 27q23 0 43.5 -12.5t28.5 -25.5
q-16 -13 -33.5 -38t-29 -59t-11.5 -76q0 -31 8.5 -62.5t29.5 -58.5t57 -43.5t90 -16.5q69 0 120.5 28t87 76.5t57 111t31 133t9.5 141.5q0 28 -1.5 56.5t-3.5 51.5t-6 34q21 12 40 19.5t38 7.5q28 0 40 -17.5t12 -51.5q0 -17 -2.5 -36.5t-6.5 -39.5l-26 10q29 51 68 93.5
t88.5 73t110.5 47.5t134 17q104 0 180 -34t118 -97t42 -150q0 -70 -27 -129t-75.5 -102t-114.5 -67t-144 -24h-449l30 22q-22 -60 -54.5 -110.5t-75.5 -87t-98 -57t-122 -20.5zM694 59l-39 16h435q76 0 132 29t87 79.5t31 113.5q0 44 -15 77.5t-44.5 56.5t-72 35t-97.5 12
q-91 0 -159.5 -27t-117 -72t-79.5 -100t-45.5 -112.5t-15.5 -107.5zM1645 -25l17 100q11 0 13 -13t-2 -37q-4 -22 -10.5 -36t-17.5 -14zM1089 698q-29 0 -46 14.5t-17 38.5q0 35 24 57t61 22q29 0 46 -14.5t17 -39.5q0 -34 -23.5 -56t-61.5 -22z" />
    <glyph glyph-name="uniFEBF" unicode="&#x636;" horiz-adv-x="1028" arabic-form="initial" 
d="M-49 -25l16 100h161l-34 -32q-3 57 4.5 101t18 82.5t19 78.5t8.5 91q0 32 -4 50t-8 22q11 9 30.5 19t41.5 10q26 0 38.5 -14.5t15.5 -37t-0.5 -48.5t-11.5 -50h-28q29 51 68 93t88.5 73t110.5 48t134 17q104 0 180.5 -34t118.5 -97t42 -150q0 -70 -27 -129t-75.5 -102
t-114.5 -67t-144 -24h-648zM198 59l-35 16h436q76 0 132 29t87 79.5t31 113.5q0 44 -15 77.5t-44.5 56.5t-72.5 35t-98 12q-91 0 -160 -27t-118 -72t-80.5 -100t-46.5 -112.5t-16 -107.5zM-49 -25q-11 0 -13.5 13t1.5 37q5 23 11 36.5t17 13.5zM578 698q-29 0 -46 14.5
t-17 38.5q0 35 24 57t61 22q29 0 46 -14.5t17 -39.5q0 -34 -23.5 -56t-61.5 -22z" />
    <glyph glyph-name="uniFEC0" unicode="&#x636;" horiz-adv-x="1204" arabic-form="medial" 
d="M940 -25q-26 0 -48 10.5t-35 31t-13 48.5q0 21 5.5 47.5t11 57t5.5 60.5l90 22q-3 -34 -7 -66t-1.5 -57t16.5 -39.5t46 -14.5h160l-16 -100h-214zM-49 -25l16 100h161l-34 -32q-3 57 4.5 101t18 82.5t19 78.5t8.5 91q0 32 -4 50t-8 22q11 9 30.5 19t41.5 10
q26 0 38.5 -14.5t15.5 -37t-0.5 -48.5t-11.5 -50h-28q29 51 68 93t88.5 73t110.5 48t134 17q104 0 180.5 -34t118.5 -97t42 -150q0 -70 -27 -129t-75.5 -102t-114.5 -67t-144 -24h-648zM198 59l-35 16h436q76 0 132 29t87 79.5t31 113.5q0 44 -15 77.5t-44.5 56.5t-72.5 35
t-98 12q-91 0 -160 -27t-118 -72t-80.5 -100t-46.5 -112.5t-16 -107.5zM-49 -25q-11 0 -13.5 13t1.5 37q5 23 11 36.5t17 13.5zM1154 -25l17 100q11 0 13 -13t-2 -37q-4 -22 -10.5 -36t-17.5 -14zM578 698q-29 0 -46 14.5t-17 38.5q0 35 24 57t61 22q29 0 46 -14.5t17 -39.5
q0 -34 -23.5 -56t-61.5 -22z" />
    <glyph glyph-name="uniFEC2" unicode="&#x637;" horiz-adv-x="1283" arabic-form="final" 
d="M1021 -25q-25 0 -47 10.5t-35.5 31t-13.5 48.5q0 21 5.5 47.5t11 57t5.5 60.5l90 22q-3 -34 -7 -66t-1.5 -57t16.5 -39.5t46 -14.5h158l-16 -100h-212zM105 -25q-48 0 -75.5 4.5t-38.5 16t-11 31.5q0 17 6.5 32.5t15.5 27.5q29 -5 63.5 -8.5t78.5 -3.5h68l-28 -10
q-1 24 3.5 68t13 101.5t19.5 121t22.5 126.5t22 119.5t17.5 98.5l18 -44l-66 76q25 20 57 31.5t58 11.5t39 -11.5t13 -37.5q0 -25 -10.5 -78t-27 -130.5t-33.5 -175.5l-10 27q55 97 151 153t230 56q104 0 180 -34t118 -97t42 -150q0 -70 -27 -129t-75.5 -102t-114.5 -67
t-144 -24h-575zM288 59l-29 16h421q76 0 132 29t87 79.5t31 113.5q0 44 -15 77.5t-44.5 56.5t-72 35t-97.5 12q-91 0 -159 -27t-116 -72t-78.5 -100t-44.5 -112t-15 -108zM1232 -25l17 100q11 0 13 -13t-2 -37q-4 -22 -10.5 -36t-17.5 -14z" />
    <glyph glyph-name="uniFEC3" unicode="&#x637;" horiz-adv-x="1029" arabic-form="initial" 
d="M-49 -25l16 100h166l-29 -10q-1 24 3.5 68t13 101.5t19.5 121t22.5 126.5t22 119.5t17.5 98.5l18 -44l-66 76q25 20 57 31.5t58 11.5t39 -11.5t13 -37.5q0 -25 -10.5 -78t-27 -130.5t-33.5 -175.5l-10 27q55 97 151.5 153t229.5 56q104 0 180.5 -34t118 -97t41.5 -150
q0 -70 -27 -129t-75.5 -102t-114 -67t-143.5 -24h-650zM208 59l-28 16h421q76 0 132 29t87 79.5t31 113.5q0 44 -15.5 77.5t-45 56.5t-72 35t-97.5 12q-91 0 -159 -27t-116 -72t-78.5 -100t-44.5 -112t-15 -108zM-49 -25q-11 0 -13.5 13t1.5 37q5 23 11 36.5t17 13.5z" />
    <glyph glyph-name="uniFEC4" unicode="&#x637;" horiz-adv-x="1205" arabic-form="medial" 
d="M942 -25q-26 0 -48 10.5t-35.5 31t-13.5 48.5q0 21 5.5 47.5t11 57t5.5 60.5l90 22q-3 -34 -6.5 -66t-1 -57t16.5 -39.5t46 -14.5h159l-16 -100h-213zM-49 -25l16 100h166l-29 -10q-1 24 3.5 68t13 101.5t19.5 121t22.5 126.5t22 119.5t17.5 98.5l18 -44l-66 76
q25 20 57 31.5t58 11.5t39 -11.5t13 -37.5q0 -25 -10.5 -78t-27 -130.5t-33.5 -175.5l-10 27q55 97 151.5 153t229.5 56q104 0 180.5 -34t118 -97t41.5 -150q0 -70 -27 -129t-75.5 -102t-114 -67t-143.5 -24h-650zM208 59l-28 16h421q76 0 132 29t87 79.5t31 113.5
q0 44 -15.5 77.5t-45 56.5t-72 35t-97.5 12q-91 0 -159 -27t-116 -72t-78.5 -100t-44.5 -112t-15 -108zM-49 -25q-11 0 -13.5 13t1.5 37q5 23 11 36.5t17 13.5zM1154 -25l17 100q11 0 13 -13t-2 -37q-4 -22 -10.5 -36t-17.5 -14z" />
    <glyph glyph-name="uniFEC6" unicode="&#x638;" horiz-adv-x="1283" arabic-form="final" 
d="M1021 -25q-25 0 -47 10.5t-35.5 31t-13.5 48.5q0 21 5.5 47.5t11 57t5.5 60.5l90 22q-3 -34 -7 -66t-1.5 -57t16.5 -39.5t46 -14.5h158l-16 -100h-212zM105 -25q-48 0 -75.5 4.5t-38.5 16t-11 31.5q0 17 6.5 32.5t15.5 27.5q29 -5 63.5 -8.5t78.5 -3.5h68l-28 -10
q-1 24 3.5 68t13 101.5t19.5 121t22.5 126.5t22 119.5t17.5 98.5l18 -44l-66 76q25 20 57 31.5t58 11.5t39 -11.5t13 -37.5q0 -25 -10.5 -78t-27 -130.5t-33.5 -175.5l-10 27q55 97 151 153t230 56q104 0 180 -34t118 -97t42 -150q0 -70 -27 -129t-75.5 -102t-114.5 -67
t-144 -24h-575zM288 59l-29 16h421q76 0 132 29t87 79.5t31 113.5q0 44 -15 77.5t-44.5 56.5t-72 35t-97.5 12q-91 0 -159 -27t-116 -72t-78.5 -100t-44.5 -112t-15 -108zM1232 -25l17 100q11 0 13 -13t-2 -37q-4 -22 -10.5 -36t-17.5 -14zM631 698q-29 0 -46 14.5t-17 38.5
q0 35 24 57t61 22q29 0 46 -14.5t17 -39.5q0 -34 -23.5 -56t-61.5 -22z" />
    <glyph glyph-name="uniFEC7" unicode="&#x638;" horiz-adv-x="1029" arabic-form="initial" 
d="M-49 -25l16 100h166l-29 -10q-1 24 3.5 68t13 101.5t19.5 121t22.5 126.5t22 119.5t17.5 98.5l18 -44l-66 76q25 20 57 31.5t58 11.5t39 -11.5t13 -37.5q0 -25 -10.5 -78t-27 -130.5t-33.5 -175.5l-10 27q55 97 151.5 153t229.5 56q104 0 180.5 -34t118 -97t41.5 -150
q0 -70 -27 -129t-75.5 -102t-114 -67t-143.5 -24h-650zM208 59l-28 16h421q76 0 132 29t87 79.5t31 113.5q0 44 -15.5 77.5t-45 56.5t-72 35t-97.5 12q-91 0 -159 -27t-116 -72t-78.5 -100t-44.5 -112t-15 -108zM-49 -25q-11 0 -13.5 13t1.5 37q5 23 11 36.5t17 13.5z
M551 698q-29 0 -46 14.5t-17 38.5q0 35 24 57t61 22q29 0 46 -14.5t17 -39.5q0 -34 -23.5 -56t-61.5 -22z" />
    <glyph glyph-name="uniFEC8" unicode="&#x638;" horiz-adv-x="1205" arabic-form="medial" 
d="M942 -25q-26 0 -48 10.5t-35.5 31t-13.5 48.5q0 21 5.5 47.5t11 57t5.5 60.5l90 22q-3 -34 -6.5 -66t-1 -57t16.5 -39.5t46 -14.5h159l-16 -100h-213zM-49 -25l16 100h166l-29 -10q-1 24 3.5 68t13 101.5t19.5 121t22.5 126.5t22 119.5t17.5 98.5l18 -44l-66 76
q25 20 57 31.5t58 11.5t39 -11.5t13 -37.5q0 -25 -10.5 -78t-27 -130.5t-33.5 -175.5l-10 27q55 97 151.5 153t229.5 56q104 0 180.5 -34t118 -97t41.5 -150q0 -70 -27 -129t-75.5 -102t-114 -67t-143.5 -24h-650zM208 59l-28 16h421q76 0 132 29t87 79.5t31 113.5
q0 44 -15.5 77.5t-45 56.5t-72 35t-97.5 12q-91 0 -159 -27t-116 -72t-78.5 -100t-44.5 -112t-15 -108zM-49 -25q-11 0 -13.5 13t1.5 37q5 23 11 36.5t17 13.5zM1154 -25l17 100q11 0 13 -13t-2 -37q-4 -22 -10.5 -36t-17.5 -14zM636 698q-29 0 -46 14.5t-17 38.5
q0 35 24 57t61 22q29 0 46 -14.5t17 -39.5q0 -34 -23.5 -56t-61.5 -22z" />
    <glyph glyph-name="uniFECA" unicode="&#x639;" horiz-adv-x="886" arabic-form="final" 
d="M356 -476q-96 0 -171 32t-118.5 89.5t-43.5 132.5q0 68 35.5 125t98.5 97.5t143 58.5l-18 -21l-194 355q0 50 22 93.5t61.5 76t93 51t117.5 18.5q70 0 128 -22.5t101 -64.5t66.5 -100.5t23.5 -130.5q0 -63 -17.5 -111t-46 -83t-61.5 -59l-16 14h293l-17 -100h-411
q-86 0 -151.5 -27t-102.5 -72t-37 -98q0 -45 27 -79.5t77 -54.5t119 -20q73 0 117 20t66.5 50t30 60.5t7.5 51.5q19 0 36.5 -3t31.5 -12t22.5 -26t8.5 -44q0 -52 -29 -89.5t-77 -61t-104.5 -35t-110.5 -11.5zM379 86q6 0 29.5 5t54 18.5t59.5 38.5t48.5 66t19.5 101
q0 58 -22 107t-69 79.5t-122 30.5q-55 0 -90 -15t-55 -35.5t-28 -37.5t-8 -22zM836 -25l17 100q11 0 13 -13t-2 -37q-4 -22 -10.5 -36t-17.5 -14z" />
    <glyph glyph-name="uniFECB" unicode="&#x639;" horiz-adv-x="772" arabic-form="initial" 
d="M-49 -25l16 100h153q62 0 115 -8.5t81 -15.5l7 -15q-86 41 -133 112t-47 166q0 72 25.5 131t71 101.5t106 65.5t130.5 23q54 0 101.5 -13t83 -35t56 -49t20.5 -55q0 -24 -15.5 -46t-42 -36t-59.5 -14t-52.5 14t-28 36t-8.5 46q0 17 3.5 34t8.5 31l14 -24q-17 5 -36.5 7.5
t-39.5 2.5q-41 0 -81.5 -12t-73.5 -38t-53 -67t-20 -99q0 -63 23 -105.5t60.5 -69t81 -41t85 -20t73.5 -6.5t44 -1h38l-14 -100h-693zM-49 -25q-11 0 -13.5 13t1.5 37q5 23 11 36.5t17 13.5z" />
    <glyph glyph-name="uniFECC" unicode="&#x639;" horiz-adv-x="872" arabic-form="medial" 
d="M-49 -25l16 100h337l-19 -37l-194 355q0 50 22 93.5t61.5 76t93 51t116.5 18.5q70 0 128.5 -22.5t101.5 -64.5t66.5 -100.5t23.5 -130.5q0 -63 -17.5 -111t-46 -83t-62.5 -59l-15 14h275l-16 -100h-871zM382 86q6 0 29.5 5t54 18.5t59.5 38.5t48.5 66t19.5 101
q0 58 -22 107t-69.5 79.5t-122.5 30.5q-54 0 -89.5 -15t-55.5 -35.5t-28 -37.5t-8 -22zM821 -25l17 100q11 0 13 -13t-2 -37q-4 -22 -10.5 -36t-17.5 -14zM-49 -25q-11 0 -13.5 13t1.5 37q5 23 11 36.5t17 13.5z" />
    <glyph glyph-name="uniFECE" unicode="&#x63a;" horiz-adv-x="886" arabic-form="final" 
d="M356 -476q-96 0 -171 32t-118.5 89.5t-43.5 132.5q0 68 35.5 125t98.5 97.5t143 58.5l-18 -21l-194 355q0 50 22 93.5t61.5 76t93 51t117.5 18.5q70 0 128 -22.5t101 -64.5t66.5 -100.5t23.5 -130.5q0 -63 -17.5 -111t-46 -83t-61.5 -59l-16 14h293l-17 -100h-411
q-86 0 -151.5 -27t-102.5 -72t-37 -98q0 -45 27 -79.5t77 -54.5t119 -20q73 0 117 20t66.5 50t30 60.5t7.5 51.5q19 0 36.5 -3t31.5 -12t22.5 -26t8.5 -44q0 -52 -29 -89.5t-77 -61t-104.5 -35t-110.5 -11.5zM379 86q6 0 29.5 5t54 18.5t59.5 38.5t48.5 66t19.5 101
q0 58 -22 107t-69 79.5t-122 30.5q-55 0 -90 -15t-55 -35.5t-28 -37.5t-8 -22zM836 -25l17 100q11 0 13 -13t-2 -37q-4 -22 -10.5 -36t-17.5 -14zM389 730q-29 0 -46 14.5t-17 38.5q0 35 24 57t61 22q29 0 46 -14.5t17 -39.5q0 -34 -23.5 -56t-61.5 -22z" />
    <glyph glyph-name="uniFECF" unicode="&#x63a;" horiz-adv-x="772" arabic-form="initial" 
d="M-49 -25l16 100h153q62 0 115 -8.5t81 -15.5l7 -15q-86 41 -133 112t-47 166q0 72 25.5 131t71 101.5t106 65.5t130.5 23q54 0 101.5 -13t83 -35t56 -49t20.5 -55q0 -24 -15.5 -46t-42 -36t-59.5 -14t-52.5 14t-28 36t-8.5 46q0 17 3.5 34t8.5 31l14 -24q-17 5 -36.5 7.5
t-39.5 2.5q-41 0 -81.5 -12t-73.5 -38t-53 -67t-20 -99q0 -63 23 -105.5t60.5 -69t81 -41t85 -20t73.5 -6.5t44 -1h38l-14 -100h-693zM-49 -25q-11 0 -13.5 13t1.5 37q5 23 11 36.5t17 13.5zM460 730q-29 0 -46 14.5t-17 38.5q0 35 24 57t61 22q29 0 46 -14.5t17 -39.5
q0 -34 -23.5 -56t-61.5 -22z" />
    <glyph glyph-name="uniFED0" unicode="&#x63a;" horiz-adv-x="872" arabic-form="medial" 
d="M-49 -25l16 100h337l-19 -37l-194 355q0 50 22 93.5t61.5 76t93 51t116.5 18.5q70 0 128.5 -22.5t101.5 -64.5t66.5 -100.5t23.5 -130.5q0 -63 -17.5 -111t-46 -83t-62.5 -59l-15 14h275l-16 -100h-871zM382 86q6 0 29.5 5t54 18.5t59.5 38.5t48.5 66t19.5 101
q0 58 -22 107t-69.5 79.5t-122.5 30.5q-54 0 -89.5 -15t-55.5 -35.5t-28 -37.5t-8 -22zM821 -25l17 100q11 0 13 -13t-2 -37q-4 -22 -10.5 -36t-17.5 -14zM-49 -25q-11 0 -13.5 13t1.5 37q5 23 11 36.5t17 13.5zM380 730q-29 0 -46 14.5t-17 38.5q0 35 24 57t61 22
q29 0 46 -14.5t17 -39.5q0 -34 -23.5 -56t-61.5 -22z" />
    <glyph glyph-name="uniFED2" unicode="&#x641;" horiz-adv-x="1246" arabic-form="final" 
d="M1123 -25q-38 0 -60.5 21t-30.5 55l42 -24h-97l104 254q-6 -28 -10 -55t-4 -46q0 -46 25 -75.5t71 -29.5h49l-16 -100h-73zM236 -25q-85 0 -123 40.5t-38 131.5q0 47 7.5 84.5t14.5 73t7 76.5q0 26 -3.5 45.5t-8.5 34.5q20 11 40 19.5t41 8.5q26 0 38.5 -16.5t12.5 -51.5
q0 -37 -9.5 -81.5t-19.5 -92.5t-10 -96q0 -47 15.5 -61.5t55.5 -14.5h401l-23 -25q-23 35 -34.5 79t-11.5 97q0 83 24.5 153t69.5 121t106 79t134 28q46 0 82.5 -10t62.5 -25t43 -30t24 -25q0 -5 -6 -31.5t-15.5 -67t-20.5 -89t-20.5 -99t-16 -97t-7.5 -82.5l-49 -76h-763z
M937 55q1 40 8 90t17.5 103t21.5 101.5t20.5 86.5t14.5 57l1 -13q-9 8 -35 17t-62 9q-59 0 -110 -31.5t-82.5 -93.5t-31.5 -152q0 -54 11 -87t25 -49.5t22 -24.5l-31 7h242zM1196 -25l17 100q11 0 13 -13t-2 -37q-4 -22 -10.5 -36t-17.5 -14zM924 695q-29 0 -46 14.5
t-17 38.5q0 35 24 57t61 22q29 0 46 -14.5t17 -39.5q0 -34 -23.5 -56t-61.5 -22z" />
    <glyph glyph-name="uniFED3" unicode="&#x641;" horiz-adv-x="676" arabic-form="initial" 
d="M-49 -25l16 100h203l-23 -25q-23 35 -34.5 79t-11.5 97q0 83 24.5 153t69.5 121t106 79t134 28q46 0 82.5 -10t62.5 -25t43 -30t24 -25q0 -5 -6 -31.5t-15.5 -67t-20.5 -89t-20.5 -99t-16 -97t-7.5 -82.5l-49 -76h-561zM450 55q1 40 8 90t17.5 103t21.5 101.5t20.5 86.5
t14.5 57l1 -13q-9 8 -35 17t-62 9q-59 0 -110 -31.5t-82.5 -93.5t-31.5 -152q0 -54 11 -87t25 -49.5t22 -24.5l-31 7h242zM-49 -25q-11 0 -13.5 13t1.5 37q5 23 11 36.5t17 13.5zM437 695q-29 0 -46 14.5t-17 38.5q0 35 24 57t61 22q29 0 46 -14.5t17 -39.5q0 -34 -23.5 -56
t-61.5 -22z" />
    <glyph glyph-name="uniFED4" unicode="&#x641;" horiz-adv-x="760" arabic-form="medial" 
d="M636 -25q-37 0 -59.5 21t-30.5 55l41 -24h-96l104 254q-6 -28 -10 -55t-4 -46q0 -46 25 -75.5t71 -29.5h49l-16 -100h-74zM-49 -25l16 100h203l-23 -25q-23 35 -34.5 79t-11.5 97q0 83 24.5 153t69.5 121t106 79t134 28q46 0 82.5 -10t62.5 -25t43 -30t24 -25
q0 -5 -6 -31.5t-15.5 -67t-20.5 -89t-20.5 -99t-16 -97t-7.5 -82.5l-49 -76h-561zM450 55q1 40 8 90t17.5 103t21.5 101.5t20.5 86.5t14.5 57l1 -13q-9 8 -35 17t-62 9q-59 0 -110 -31.5t-82.5 -93.5t-31.5 -152q0 -54 11 -87t25 -49.5t22 -24.5l-31 7h242zM-49 -25
q-11 0 -13.5 13t1.5 37q5 23 11 36.5t17 13.5zM710 -25l17 100q11 0 13 -13t-2 -37q-4 -22 -10.5 -36t-17.5 -14zM437 695q-29 0 -46 14.5t-17 38.5q0 35 24 57t61 22q29 0 46 -14.5t17 -39.5q0 -34 -23.5 -56t-61.5 -22z" />
    <glyph glyph-name="uniFED6" unicode="&#x642;" horiz-adv-x="1200" arabic-form="final" 
d="M893 -25l64 100h209l-16 -100h-257zM463 -350q-95 0 -166.5 25.5t-122 68.5t-81.5 97t-45 111t-14 110q0 57 14 93.5t37.5 53.5t50.5 17q19 0 33 -7t22 -15t9 -10q-3 -1 -16.5 -15t-26 -45t-12.5 -85q0 -85 39.5 -153t111 -107t168.5 -39q110 0 198.5 52.5t151.5 151.5
t98 239.5t38 316.5l15 -38q-13 8 -43.5 21t-72.5 13q-43 0 -83 -18.5t-71 -54.5t-49 -87t-18 -117q0 -58 15 -92t44 -48t70 -14h150v-100h-152q-117 0 -177 65t-60 189q0 81 24 149.5t68.5 120t105.5 80t134 28.5q45 0 81 -10t62.5 -25t43.5 -30t24 -25q-1 -91 -14 -190
t-40.5 -196t-72.5 -183.5t-111 -153.5t-155 -105.5t-205 -38.5zM1150 -25l17 100q11 0 13 -13t-2 -37q-4 -22 -10.5 -36t-17.5 -14zM942 695q-28 0 -45.5 15t-17.5 38q0 36 24 57.5t61 21.5q29 0 46 -14.5t17 -39.5q0 -34 -23.5 -56t-61.5 -22zM779 695q-28 0 -45 15t-17 38
q0 36 24 57.5t61 21.5q29 0 45.5 -14.5t16.5 -39.5q0 -34 -23.5 -56t-61.5 -22z" />
    <glyph glyph-name="uniFED7" unicode="&#x642;" horiz-adv-x="676" arabic-form="initial" 
d="M-49 -25l16 100h203l-23 -25q-23 35 -34.5 79t-11.5 97q0 83 24.5 153t69.5 121t106 79t134 28q46 0 82.5 -10t62.5 -25t43 -30t24 -25q0 -5 -6 -31.5t-15.5 -67t-20.5 -89t-20.5 -99t-16 -97t-7.5 -82.5l-49 -76h-561zM450 55q1 40 8 90t17.5 103t21.5 101.5t20.5 86.5
t14.5 57l1 -13q-9 8 -35 17t-62 9q-59 0 -110 -31.5t-82.5 -93.5t-31.5 -152q0 -54 11 -87t25 -49.5t22 -24.5l-31 7h242zM-49 -25q-11 0 -13.5 13t1.5 37q5 23 11 36.5t17 13.5zM519 695q-28 0 -45.5 15t-17.5 38q0 36 24 57.5t61 21.5q29 0 46 -14.5t17 -39.5
q0 -34 -23.5 -56t-61.5 -22zM356 695q-28 0 -45 15t-17 38q0 36 24 57.5t61 21.5q29 0 45.5 -14.5t16.5 -39.5q0 -34 -23.5 -56t-61.5 -22z" />
    <glyph glyph-name="uniFED8" unicode="&#x642;" horiz-adv-x="760" arabic-form="medial" 
d="M636 -25q-37 0 -59.5 21t-30.5 55l41 -24h-96l104 254q-6 -28 -10 -55t-4 -46q0 -46 25 -75.5t71 -29.5h49l-16 -100h-74zM-49 -25l16 100h203l-23 -25q-23 35 -34.5 79t-11.5 97q0 83 24.5 153t69.5 121t106 79t134 28q46 0 82.5 -10t62.5 -25t43 -30t24 -25
q0 -5 -6 -31.5t-15.5 -67t-20.5 -89t-20.5 -99t-16 -97t-7.5 -82.5l-49 -76h-561zM450 55q1 40 8 90t17.5 103t21.5 101.5t20.5 86.5t14.5 57l1 -13q-9 8 -35 17t-62 9q-59 0 -110 -31.5t-82.5 -93.5t-31.5 -152q0 -54 11 -87t25 -49.5t22 -24.5l-31 7h242zM-49 -25
q-11 0 -13.5 13t1.5 37q5 23 11 36.5t17 13.5zM710 -25l17 100q11 0 13 -13t-2 -37q-4 -22 -10.5 -36t-17.5 -14zM519 695q-28 0 -45.5 15t-17.5 38q0 36 24 57.5t61 21.5q29 0 46 -14.5t17 -39.5q0 -34 -23.5 -56t-61.5 -22zM356 695q-28 0 -45 15t-17 38q0 36 24 57.5
t61 21.5q29 0 45.5 -14.5t16.5 -39.5q0 -34 -23.5 -56t-61.5 -22z" />
    <glyph glyph-name="uniFEDA" unicode="&#x643;" horiz-adv-x="1073" arabic-form="final" 
d="M949 -25q-38 0 -60.5 21t-30.5 55l42 -24h-97l103 253q-4 -28 -7 -54t-3 -42q0 -49 24 -79t70 -30h50l-17 -100h-74zM238 -25q-86 0 -123.5 41t-37.5 134q0 42 5 67t10 49.5t5 61.5q0 27 -3 46.5t-8 35.5q20 11 39.5 19t41.5 8q27 0 39 -16.5t12 -52.5q0 -34 -7.5 -66.5
t-15.5 -68t-8 -80.5q0 -32 6.5 -49t22 -23t42.5 -6h538l-28 -10q2 28 9.5 85t18.5 130t24 151t25 148.5t22 121.5l18 -45l-66 76q23 19 55 31t60 12q26 0 39 -11.5t13 -35.5q0 -19 -7 -59t-18.5 -95.5t-24.5 -121t-24.5 -135t-18.5 -137.5t-7 -128l-50 -77h-598zM1023 -25
l17 100q11 0 13 -13t-2 -37q-4 -22 -10.5 -36t-17.5 -14zM407 399q-24 0 -32 9.5t-8 25.5q0 14 4 29t11 29q11 -4 24 -7t27 -3t30 2.5t29 5.5l5 -19q-30 16 -49 36t-27.5 43t-8.5 46t8 38.5t21.5 26t31.5 15t39 4.5q19 0 40 -3.5t39 -11t29.5 -18.5t11.5 -25q-1 -13 -13 -26
t-38 -10q-16 2 -27.5 12t-17.5 23q-22 -1 -35 -14t-13 -36q0 -17 7 -32.5t19 -29t27 -25.5l-50 6q41 11 63 18.5t46 7.5t32 -8t8 -25q0 -31 -14 -59q-11 4 -24 6.5t-29 2.5q-32 0 -61 -8.5t-54.5 -17t-50.5 -8.5z" />
    <glyph glyph-name="uniFEDB" unicode="&#x643;" horiz-adv-x="914" arabic-form="initial" 
d="M-49 -25l16 100h748l-12 -16q2 43 5.5 78.5t3.5 72.5q0 51 -12 65t-43 14h-411q-54 0 -94.5 21.5t-63 70t-22.5 127.5q0 38 4.5 78.5t10 74t8.5 49.5q17 -4 56.5 -8t101.5 -4q38 0 91.5 1.5t112.5 4t116.5 4t103.5 1.5q51 0 79.5 -4t40 -14.5t11.5 -32.5q0 -15 -5 -32
t-15 -31q-31 6 -66 9t-85 3q-28 0 -70.5 -1t-92.5 -2t-102 -2.5t-100.5 -3t-86.5 -2.5l8 11q-4 -16 -8.5 -49.5t-4.5 -62.5q0 -55 22 -80.5t61 -25.5h420q74 0 110 -40.5t36 -132.5q0 -28 -2.5 -53.5t-5 -52.5t-3.5 -58l-50 -77h-811zM-49 -25q-11 0 -13.5 13t1.5 37
q5 23 11 36.5t17 13.5z" />
    <glyph glyph-name="uniFEDC" unicode="&#x643;" horiz-adv-x="1010" arabic-form="medial" 
d="M886 -25q-38 0 -60.5 21t-30.5 55l42 -24h-97l82 155q0 -46 25 -76.5t71 -30.5h59l-17 -100h-74zM-49 -25l16 100h748l-12 -16q2 43 5.5 78.5t3.5 72.5q0 51 -12 65t-43 14h-411q-54 0 -94.5 21.5t-63 70t-22.5 127.5q0 38 4.5 78.5t10 74t8.5 49.5q17 -4 56.5 -8
t101.5 -4q38 0 91.5 1.5t112.5 4t116.5 4t103.5 1.5q51 0 79.5 -4t40 -14.5t11.5 -32.5q0 -15 -5 -32t-15 -31q-31 6 -66 9t-85 3q-28 0 -70.5 -1t-92.5 -2t-102 -2.5t-100.5 -3t-86.5 -2.5l8 11q-4 -16 -8.5 -49.5t-4.5 -62.5q0 -55 22 -80.5t61 -25.5h420q74 0 110 -40.5
t36 -132.5q0 -28 -2.5 -53.5t-5 -52.5t-3.5 -58l-50 -77h-811zM-49 -25q-11 0 -13.5 13t1.5 37q5 23 11 36.5t17 13.5zM960 -25l17 100q11 0 13 -13t-2 -37q-4 -22 -10.5 -36t-17.5 -14z" />
    <glyph glyph-name="uniFEDE" unicode="&#x644;" horiz-adv-x="901" arabic-form="final" 
d="M783 -25q-38 0 -60.5 21t-30.5 55l42 -24h-97l104 255q-5 -29 -9 -55.5t-4 -45.5q0 -46 24.5 -76t70.5 -30h44l-16 -100h-68zM348 -278q-87 0 -144.5 24.5t-91.5 63.5t-51 83t-22 83t-5 63q0 48 11.5 86.5t33.5 61t53 22.5q24 0 41.5 -10.5t25.5 -21.5q-24 -22 -39 -53
t-15 -91q0 -105 51 -158t157 -53q72 0 119 27.5t77.5 94.5t50.5 185l101 569l3 -36l-61 70q23 19 55 30.5t57 11.5q28 0 41.5 -12t13.5 -21q0 -19 -5.5 -63.5t-14.5 -104t-20 -126t-22.5 -131t-21 -118.5t-16.5 -87q-10 -55 -25 -110t-39.5 -105t-63 -89.5t-96 -62
t-138.5 -22.5zM851 -25l17 100q11 0 13 -13t-2 -37q-4 -22 -10.5 -36t-17.5 -14z" />
    <glyph glyph-name="uniFEDF" unicode="&#x644;" horiz-adv-x="305" arabic-form="initial" 
d="M-49 -25l16 100h154l-36 -10q1 28 8.5 85t19 130t24 150.5t25 148t22.5 121.5l18 -44l-66 76q23 19 55 31t60 12q26 0 39 -11.5t13 -35.5q0 -19 -7.5 -59t-19 -95.5t-24 -121t-24 -134.5t-19 -137t-7.5 -129l-49 -77h-202zM-49 -25q-11 0 -13.5 13t1.5 37q5 23 11 36.5
t17 13.5z" />
    <glyph glyph-name="uniFEE0" unicode="&#x644;" horiz-adv-x="402" arabic-form="medial" 
d="M278 -25q-38 0 -60.5 21t-30.5 55l42 -24h-97l91 253q-4 -29 -7.5 -54.5t-3.5 -44.5q0 -46 24 -76t70 -30h62l-16 -100h-74zM-49 -25l16 100h154l-36 -10q1 28 8.5 85t19 130t24 150.5t25 148t22.5 121.5l18 -44l-66 76q23 19 55 31t60 12q26 0 39 -11.5t13 -35.5
q0 -19 -7.5 -59t-19 -95.5t-24 -121t-24 -134.5t-19 -137t-7.5 -129l-49 -77h-202zM-49 -25q-11 0 -13.5 13t1.5 37q5 23 11 36.5t17 13.5zM352 -25l17 100q11 0 13 -13t-2 -37q-4 -22 -10.5 -36t-17.5 -14z" />
    <glyph glyph-name="uniFEE2" unicode="&#x645;" horiz-adv-x="745" arabic-form="final" 
d="M353 -25l21 100h338l-17 -100h-342zM-23 -366q-22 0 -37 7.5t-29 20.5q4 5 12.5 12.5t20 23t21.5 44.5q10 27 17 59t12.5 62t8.5 49q10 55 27.5 88.5t46.5 50.5t71 24l-38 -46l73 463q21 36 56 61.5t80.5 38.5t95.5 13q75 0 128 -29t80.5 -84t27.5 -134q0 -77 -25 -151
t-69.5 -134.5t-105.5 -97.5h-260q-32 0 -50 -17t-24 -49l-29 -139q-9 -39 -20 -70t-32 -48.5t-59 -17.5zM222 41l-29 34h256l-46 -7q28 16 60 56.5t55 100.5t23 134q0 69 -27 107.5t-98 38.5q-46 0 -85.5 -16.5t-52.5 -41.5l16 47zM695 -25l17 100q11 0 13 -13t-2 -37
q-4 -22 -10.5 -36t-17.5 -14z" />
    <glyph glyph-name="uniFEE3" unicode="&#x645;" horiz-adv-x="732" arabic-form="initial" 
d="M-49 -25l16 100h55q37 0 66.5 16.5t48.5 40.5t22 46l49 314q20 36 55.5 61.5t81 38.5t95.5 13q75 0 127.5 -29t80.5 -84t28 -134q0 -77 -25 -151t-69.5 -134.5t-105.5 -97.5h-314l-15 52h-7q-13 -16 -40.5 -34t-59.5 -18h-89zM247 41l-30 34h257l-46 -7q27 16 59 56.5
t55 100.5t23 134q0 69 -27 107.5t-97 38.5q-47 0 -86 -16.5t-52 -41.5l16 47zM-49 -25q-11 0 -13.5 13t1.5 37q5 23 11 36.5t17 13.5z" />
    <glyph glyph-name="uniFEE4" unicode="&#x645;" horiz-adv-x="753" arabic-form="medial" 
d="M288 -25l15 100h416l-16 -100h-415zM-49 -25l16 100h55q37 0 66.5 16.5t48.5 40.5t22 46l49 314q20 36 55.5 61.5t81 38.5t95.5 13q75 0 127.5 -29t80.5 -84t28 -134q0 -77 -25 -151t-69.5 -134.5t-105.5 -97.5h-314l-15 52h-7q-13 -16 -40.5 -34t-59.5 -18h-89zM247 41
l-30 34h257l-46 -7q27 16 59 56.5t55 100.5t23 134q0 69 -27 107.5t-97 38.5q-47 0 -86 -16.5t-52 -41.5l16 47zM-49 -25q-11 0 -13.5 13t1.5 37q5 23 11 36.5t17 13.5zM702 -25l17 100q11 0 13 -13t-2 -37q-4 -22 -10.5 -36t-17.5 -14z" />
    <glyph glyph-name="uniFEE6" unicode="&#x646;" horiz-adv-x="904" arabic-form="final" 
d="M778 -25q-38 0 -60 21t-31 55l42 -24h-96l102 253q-4 -28 -9 -54t-5 -42q0 -49 24 -79t70 -30h55l-16 -100h-76zM344 -278q-87 0 -144.5 24.5t-91.5 63.5t-50.5 83t-21.5 83t-5 63q0 48 11 86.5t33 61t53 22.5q24 0 41.5 -10.5t25.5 -21.5q-24 -22 -39 -53t-15 -91
q0 -105 51.5 -158t157.5 -53q72 0 119 27.5t77 94.5t51 185l55 316l20 -34l-66 77q24 19 55.5 30.5t61.5 11.5q25 0 37 -10t12 -34q-13 -81 -26 -154.5t-23 -130.5t-17 -90q-10 -55 -25 -110.5t-39 -105.5t-62.5 -89t-96 -61.5t-139.5 -22.5zM854 -25l17 100q11 0 13 -13
t-2 -37q-4 -22 -10.5 -36t-17.5 -14zM436 529q-29 0 -46 14.5t-17 38.5q0 35 24 57t61 22q29 0 46 -14.5t17 -39.5q0 -34 -23.5 -56t-61.5 -22z" />
    <glyph glyph-name="uniFEE7" unicode="&#x646;" horiz-adv-x="316" arabic-form="initial" 
d="M-49 -25l16 100h143l-22 -20q1 44 8.5 97.5t18 107t21.5 99t18.5 74.5t8.5 33l6 -46l-62 68q25 20 56.5 31t59.5 11q27 0 39.5 -12t12.5 -41q0 -7 -7.5 -38.5t-18.5 -79t-22.5 -102.5t-19.5 -109t-9 -97l-49 -76h-198zM-49 -25q-11 0 -13.5 13t1.5 37q5 23 11 36.5
t17 13.5zM224 620q-29 0 -46 14.5t-17 38.5q0 35 24 57t61 22q29 0 46 -14.5t17 -39.5q0 -34 -23.5 -56t-61.5 -22z" />
    <glyph glyph-name="uniFEE8" unicode="&#x646;" horiz-adv-x="389" arabic-form="medial" 
d="M-49 -25l16 100h148l-35 -35v36q0 22 6 55.5t14.5 72.5t17 79.5t14 77.5t5.5 66q0 21 -3 40.5t-8 35.5q20 12 41.5 19.5t40.5 7.5q27 0 39.5 -16.5t12.5 -48.5q0 -27 -7 -63t-16 -75t-16 -75.5t-7 -66.5q0 -51 24.5 -80.5t70.5 -29.5h46l-16 -100h-72q-37 0 -59.5 21
t-30.5 55l31 -24h-31l-34 -52h-192zM339 -25l17 100q11 0 13 -13t-2 -37q-4 -22 -10.5 -36t-17.5 -14zM-49 -25q-11 0 -13.5 13t1.5 37q5 23 11 36.5t17 13.5zM217 620q-29 0 -46 14.5t-17 38.5q0 35 24 57t61 22q29 0 46 -14.5t17 -39.5q0 -34 -23.5 -56t-61.5 -22z" />
    <glyph glyph-name="uniFEEA" unicode="&#x647;" horiz-adv-x="731" arabic-form="final" 
d="M421 -25l50 100h227l-17 -100h-260zM308 -25q-75 0 -130 30.5t-85 90t-30 145.5q0 83 28 150t76 114.5t109.5 73t128.5 25.5q55 0 95.5 -15t67.5 -37t38 -45l-82 -455l-50 -77h-166zM416 68l79 445l5 -44q-10 15 -36 25t-61 10q-65 0 -117 -34t-82 -94t-30 -140
t33.5 -120.5t100.5 -40.5h119zM681 -25l17 100q11 0 13 -13t-2 -37q-4 -22 -10.5 -36t-17.5 -14z" />
    <glyph glyph-name="uniFEEB" unicode="&#x647;" horiz-adv-x="929" arabic-form="initial" 
d="M309 -127q-30 0 -42.5 16t-13.5 40t2 46h-304l16 100h107q2 94 37 167.5t94.5 122t134.5 66.5q11 45 28 81.5t41 64t54.5 45.5t67.5 27.5t80 9.5q50 0 96.5 -14.5t82.5 -46t57 -83.5t21 -128q0 -57 -10 -108.5t-20.5 -105.5t-10.5 -121l-50 -77h-411q-2 -24 2 -45t17 -29
q-13 -12 -34 -20t-42 -8zM184 75h89l46 241q-60 -28 -96.5 -92.5t-38.5 -148.5zM385 75h96l40 238q-13 11 -35.5 18.5t-50.5 8.5zM595 75h123q3 67 12.5 120t18 100t8.5 96q0 58 -16 95t-48 55t-81 18q-42 0 -72.5 -13t-50.5 -39.5t-33 -67.5q74 -6 120.5 -35.5t62.5 -60.5z
M-49 -25q-11 0 -13.5 13t1.5 37q5 23 11 36.5t17 13.5z" />
    <glyph glyph-name="uniFEEC" unicode="&#x647;" horiz-adv-x="994" arabic-form="medial" 
d="M766 -25l16 100h179l-17 -100h-178zM309 -127q-30 0 -42.5 16t-13.5 40t2 46h-304l16 100h107q2 94 37 167.5t94.5 122t134.5 66.5q11 45 28 81.5t41 64t54.5 45.5t67.5 27.5t80 9.5q50 0 96.5 -14.5t82.5 -46t57 -83.5t21 -128q0 -57 -10 -108.5t-20.5 -105.5
t-10.5 -121l-50 -77h-411q-2 -24 2 -45t17 -29q-13 -12 -34 -20t-42 -8zM184 75h89l46 241q-60 -28 -96.5 -92.5t-38.5 -148.5zM385 75h96l40 238q-13 11 -35.5 18.5t-50.5 8.5zM595 75h123q3 67 12.5 120t18 100t8.5 96q0 58 -16 95t-48 55t-81 18q-42 0 -72.5 -13
t-50.5 -39.5t-33 -67.5q74 -6 120.5 -35.5t62.5 -60.5zM-49 -25q-11 0 -13.5 13t1.5 37q5 23 11 36.5t17 13.5zM944 -25l17 100q11 0 13 -13t-2 -37q-4 -22 -10.5 -36t-17.5 -14z" />
    <glyph glyph-name="uniFEEE" unicode="&#x648;" horiz-adv-x="724" arabic-form="final" 
d="M505 -25l24 100h161l-16 -100h-169zM235 -365q-47 0 -74.5 11t-39 28t-11.5 34q61 0 105 9t75.5 31.5t55 64.5t41.5 107t36 159q9 46 17.5 95t16.5 98t14.5 94.5t12 83.5t9.5 64l11 -42q-13 8 -43.5 21t-72.5 13q-43 0 -83 -18.5t-71 -54.5t-49 -87t-18 -117
q0 -58 15 -92t44 -48t71 -14h149v-100h-152q-117 0 -177 65t-60 189q0 81 24 149.5t68.5 120t105.5 80t134 28.5q45 0 81 -10t62.5 -25t43.5 -30t24 -25q0 -6 -5 -46.5t-14 -102.5t-20 -134.5t-23 -142.5q-13 -76 -29 -144t-38.5 -125t-54 -99t-76 -65t-105.5 -23zM674 -25
l17 100q11 0 13 -13t-2 -37q-4 -22 -10.5 -36t-17.5 -14z" />
    <glyph glyph-name="uniFEF0" unicode="&#x649;" horiz-adv-x="1098" arabic-form="final" 
d="M473 -314q-87 0 -163.5 27t-134.5 75.5t-90.5 113t-32.5 140.5t30.5 115t70.5 39q18 0 32 -7t22.5 -14.5t9.5 -10.5q-2 -1 -15.5 -16t-26 -43t-12.5 -67q0 -44 20.5 -88.5t60 -81.5t97 -59.5t132.5 -22.5t140.5 22.5t115 59t77.5 78t28 79.5l110 10q0 -57 -26 -109
t-71.5 -95.5t-105 -76t-128.5 -50.5t-140 -18zM802 -25q-50 0 -79 4t-40.5 15t-11.5 32q0 16 6 32t16 29q21 -4 41.5 -6.5t45.5 -4t57 -1.5h227l-16 -100h-246zM1047 -25l17 100q11 0 13 -13t-2 -37q-4 -22 -10.5 -36t-17.5 -14z" />
    <glyph glyph-name="uniFEF2" unicode="&#x64a;" horiz-adv-x="1098" arabic-form="final" 
d="M473 -314q-87 0 -163.5 27t-134.5 75.5t-90.5 113t-32.5 140.5t30.5 115t70.5 39q18 0 32 -7t22.5 -14.5t9.5 -10.5q-2 -1 -15.5 -16t-26 -43t-12.5 -67q0 -44 20.5 -88.5t60 -81.5t97 -59.5t132.5 -22.5t140.5 22.5t115 59t77.5 78t28 79.5l110 10q0 -57 -26 -109
t-71.5 -95.5t-105 -76t-128.5 -50.5t-140 -18zM802 -25q-50 0 -79 4t-40.5 15t-11.5 32q0 16 6 32t16 29q21 -4 41.5 -6.5t45.5 -4t57 -1.5h227l-16 -100h-246zM1047 -25l17 100q11 0 13 -13t-2 -37q-4 -22 -10.5 -36t-17.5 -14zM485 -522q-28 0 -45 14.5t-17 38.5
q0 35 24 57t61 22q29 0 46 -14.5t17 -39.5q0 -34 -24 -56t-62 -22zM323 -522q-29 0 -46 14.5t-17 38.5q0 35 24 57t61 22q29 0 46 -14.5t17 -39.5q0 -34 -23.5 -56t-61.5 -22z" />
    <glyph glyph-name="uniFEF3" unicode="&#x64a;" horiz-adv-x="316" arabic-form="initial" 
d="M-49 -25l16 100h143l-22 -20q1 44 8.5 97.5t18 107t21.5 99t18.5 74.5t8.5 33l6 -46l-62 68q25 20 56.5 31t59.5 11q27 0 39.5 -12t12.5 -41q0 -7 -7.5 -38.5t-18.5 -79t-22.5 -102.5t-19.5 -109t-9 -97l-49 -76h-198zM-49 -25q-11 0 -13.5 13t1.5 37q5 23 11 36.5
t17 13.5zM168 -237q-28 0 -45 14.5t-17 38.5q0 35 24 57t61 22q29 0 46 -14.5t17 -39.5q0 -34 -24 -56t-62 -22zM6 -237q-29 0 -46 14.5t-17 38.5q0 35 24 57t61 22q29 0 46 -14.5t17 -39.5q0 -34 -23.5 -56t-61.5 -22z" />
    <glyph glyph-name="uniFEF4" unicode="&#x64a;" horiz-adv-x="389" arabic-form="medial" 
d="M-49 -25l16 100h148l-35 -35v36q0 22 6 55.5t14.5 72.5t17 79.5t14 77.5t5.5 66q0 21 -3 40.5t-8 35.5q20 12 41.5 19.5t40.5 7.5q27 0 39.5 -16.5t12.5 -48.5q0 -27 -7 -63t-16 -75t-16 -75.5t-7 -66.5q0 -51 24.5 -80.5t70.5 -29.5h46l-16 -100h-72q-37 0 -59.5 21
t-30.5 55l31 -24h-31l-34 -52h-192zM339 -25l17 100q11 0 13 -13t-2 -37q-4 -22 -10.5 -36t-17.5 -14zM-49 -25q-11 0 -13.5 13t1.5 37q5 23 11 36.5t17 13.5zM161 -237q-28 0 -45 14.5t-17 38.5q0 35 24 57t61 22q29 0 46 -14.5t17 -39.5q0 -34 -24 -56t-62 -22zM-1 -237
q-29 0 -46 14.5t-17 38.5q0 35 24 57t61 22q29 0 46 -14.5t17 -39.5q0 -34 -23.5 -56t-61.5 -22z" />
    <glyph glyph-name=".notdef" horiz-adv-x="633" 
d="M-49 -25l116 735h633l-116 -735h-633zM88 53h384l92 578h-383z" />
    <glyph glyph-name=".null" 
 />
    <glyph glyph-name="nonmarkingreturn" horiz-adv-x="333" 
 />
    <glyph glyph-name="NULL" 
 />
    <glyph glyph-name="NULL" 
 />
    <glyph glyph-name="CR" unicode="&#xd;" horiz-adv-x="324" 
 />
    <glyph glyph-name="space" unicode=" " horiz-adv-x="324" 
 />
    <glyph glyph-name="exclam" unicode="!" horiz-adv-x="364" 
d="M190 249q-23 0 -31 13t-8 34q0 19 5.5 53t13 75.5t15 85t13 82.5t5.5 67q0 20 -3.5 43t-15.5 37q19 18 44.5 27t55.5 9q41 0 58.5 -24.5t17.5 -61.5q0 -21 -8 -61t-21.5 -89.5t-29 -100.5t-30.5 -95t-26 -72q-12 -11 -28 -16.5t-27 -5.5zM147 -25q-30 0 -50.5 20.5
t-20.5 48.5q0 23 10.5 42t29.5 30.5t43 11.5q31 0 51 -20t20 -49q0 -22 -11 -41t-30 -31t-42 -12z" />
    <glyph glyph-name="quotedbl" unicode="&#x22;" horiz-adv-x="443" 
d="M340 446q-24 0 -32.5 14t-8.5 36q0 32 13 68t26 74.5t13 77.5q0 23 -7 43q18 11 38 16t36 5q23 0 32 -14t9 -36q0 -32 -13 -68t-26 -74t-13 -78q0 -23 7 -43q-18 -10 -37.5 -15.5t-36.5 -5.5zM128 446q-24 0 -32.5 14t-8.5 36q0 32 13 68t26 74.5t13 77.5q0 23 -7 43
q18 11 38 16t36 5q24 0 32.5 -14t8.5 -36q0 -32 -13 -68t-26 -74t-13 -78q0 -23 7 -43q-18 -10 -37.5 -15.5t-36.5 -5.5z" />
    <glyph glyph-name="numbersign" unicode="#" horiz-adv-x="843" 
d="M164 -98q-14 0 -28.5 4.5t-25.5 11.5q49 149 103 355.5t117 486.5q13 58 64 58q14 0 28.5 -4t25.5 -12q-49 -148 -103 -354.5t-117 -487.5q-13 -58 -64 -58zM454 -98q-14 0 -28.5 4.5t-25.5 11.5q49 149 103 355.5t117 486.5q13 58 64 58q14 0 28.5 -4t25.5 -12
q-49 -148 -103 -354.5t-117 -487.5q-13 -58 -64 -58zM159 168q-69 0 -92.5 10.5t-23.5 38.5q0 27 21 54q20 -3 42 -5.5t47 -4t52 -1.5q70 0 145 6.5t153.5 13t159.5 6.5q68 0 91.5 -10t23.5 -38q0 -30 -19 -55q-31 6 -66 8.5t-74 2.5q-70 0 -145.5 -6.5t-154 -13
t-160.5 -6.5zM207 468q-69 0 -92.5 10.5t-23.5 38.5q0 27 21 54q20 -3 42 -5.5t47 -4t52 -1.5q70 0 145 6.5t153.5 13t159.5 6.5q68 0 91.5 -10t23.5 -38q0 -30 -19 -55q-31 6 -66 8.5t-74 2.5q-70 0 -145.5 -6.5t-154 -13t-160.5 -6.5z" />
    <glyph glyph-name="dollar" unicode="$" horiz-adv-x="678" 
d="M303 -24q-70 0 -123 14.5t-82 41.5t-29 66q0 23 11 42t30 31q29 -59 79 -90.5t108 -31.5q74 0 123.5 28t49.5 83q0 33 -26 54.5t-66.5 38.5t-86.5 34.5t-86.5 41.5t-66.5 61t-26 92q0 48 24 88t68.5 69.5t105.5 46t135 16.5q58 0 103 -12t71 -34t26 -51
q0 -41 -27.5 -62.5t-68.5 -21.5q-43 0 -72 27.5t-44 76.5q-91 -11 -142 -46t-51 -83q0 -31 25.5 -51.5t66 -36.5t86 -33.5t86 -41.5t66 -60.5t25.5 -90.5q0 -42 -19.5 -79t-57 -65.5t-92 -45t-123.5 -16.5zM262 -195q-14 0 -28.5 3.5t-25.5 10.5q10 41 21.5 85.5t22.5 93.5
l92 5q-6 -34 -11.5 -68t-12.5 -69q-11 -61 -58 -61zM371 633q11 46 22 94.5t23 100.5q13 58 62 58q14 0 28 -4t25 -12q-17 -52 -34.5 -112t-36.5 -125h-89z" />
    <glyph glyph-name="percent" unicode="%" horiz-adv-x="1086" 
d="M262 272q-82 0 -130 51.5t-48 138.5q0 73 32 128t89 86t131 31q13 0 28 -2.5t25 -6.5q3 -3 4 -10.5t2 -18.5q46 -11 69 -49.5t23 -101.5q0 -69 -30 -125t-80.5 -88.5t-114.5 -32.5zM267 339q34 0 60 22.5t41.5 61.5t15.5 88q0 112 -96 112q-11 0 -22 -2t-23 -6
q-27 -32 -41.5 -76.5t-14.5 -85.5q0 -52 22 -83t58 -31zM384 -40q-14 0 -27.5 4.5t-23.5 11.5q50 95 105 207t117.5 249t132.5 306q23 58 74 58q14 0 27.5 -4t23.5 -12q-73 -133 -158.5 -320.5t-195.5 -441.5q-26 -58 -75 -58zM801 -23q-82 0 -130 51.5t-48 138.5
q0 73 32 128t89 86t131 31q13 0 28 -2.5t25 -6.5q3 -3 4 -10.5t2 -18.5q46 -11 69 -49.5t23 -101.5q0 -69 -30 -125t-80.5 -88.5t-114.5 -32.5zM806 44q34 0 60 22.5t41.5 61.5t15.5 88q0 112 -96 112q-11 0 -22 -2t-23 -6q-27 -32 -41.5 -76.5t-14.5 -85.5q0 -52 22 -83
t58 -31z" />
    <glyph glyph-name="ampersand" unicode="&#x26;" horiz-adv-x="761" 
d="M364 327q-71 0 -127 25.5t-88 70t-32 101.5q0 56 23.5 102t67.5 79.5t105 51.5t135 18q77 0 125 -29.5t48 -75.5q0 -37 -25 -58.5t-66 -21.5q-43 0 -73 30t-44 79q-80 -15 -126.5 -59.5t-46.5 -109.5q0 -37 18.5 -66t51 -46t73.5 -17q74 0 129.5 12.5t99.5 25t82 12.5
q60 0 60 -42q0 -13 -4 -28t-13 -32q-25 3 -42 4.5t-31 1.5q-34 0 -84.5 -7t-107 -14t-108.5 -7zM247 -92q-59 0 -103.5 22t-69 62t-24.5 93q0 58 25 112.5t71.5 100.5t108.5 78l62 -8q-71 -57 -106 -115t-35 -116q0 -63 31 -96.5t92 -33.5q50 0 96 25t82.5 71t59 110.5
t25.5 143.5l58 6q3 -100 -23 -183t-75.5 -144t-119.5 -94.5t-155 -33.5z" />
    <glyph glyph-name="quotesingle" unicode="'" horiz-adv-x="231" 
d="M128 446q-24 0 -32.5 14t-8.5 36q0 32 13 68t26 74.5t13 77.5q0 23 -7 43q18 11 38 16t36 5q24 0 32.5 -14t8.5 -36q0 -32 -13 -68t-26 -74t-13 -78q0 -23 7 -43q-18 -10 -37.5 -15.5t-36.5 -5.5z" />
    <glyph glyph-name="parenleft" unicode="(" horiz-adv-x="415" 
d="M237 -156q-62 0 -96.5 90.5t-34.5 256.5q0 83 14 169t38.5 165t54.5 141t63.5 98.5t64.5 36.5q17 0 30.5 -5t29.5 -20q-39 -37 -73 -96.5t-59.5 -134t-39.5 -155t-14 -159.5q0 -120 25.5 -204t80.5 -147q-16 -16 -38.5 -26t-45.5 -10z" />
    <glyph glyph-name="parenright" unicode=")" horiz-adv-x="415" 
d="M178 801q62 0 96.5 -90.5t34.5 -256.5q0 -83 -14 -169t-38.5 -165t-54.5 -141t-63 -98.5t-65 -36.5q-17 0 -30 5t-30 20q39 37 73 96.5t59.5 134t39.5 155t14 159.5q0 120 -25.5 204t-80.5 147q17 17 39.5 26.5t44.5 9.5z" />
    <glyph glyph-name="asterisk" unicode="*" horiz-adv-x="592" 
d="M398 300q-17 0 -35.5 22.5t-33 71t-20.5 126.5l-85 -165q-30 5 -55.5 15.5t-41 23.5t-15.5 25q0 18 18 41.5t59 50t109 52.5l-186 31q-2 10 -3 21.5t-1 21.5q0 42 10.5 63t27.5 21q33 0 66.5 -20.5t65 -51.5t56.5 -61l-31 186q24 11 48.5 18.5t42.5 7.5q27 0 36.5 -9
t9.5 -36q0 -21 -5 -47.5t-20 -62t-45 -84.5l166 87q17 -16 30 -35.5t20.5 -37.5t7.5 -31q0 -16 -21.5 -27t-62.5 -11q-18 0 -38.5 -0.5t-48.5 2t-69 12.5l133 -132q-12 -25 -28.5 -45t-32.5 -31.5t-28 -11.5z" />
    <glyph glyph-name="plus" unicode="+" horiz-adv-x="706" 
d="M312 142q-22 0 -28.5 13.5t-0.5 48.5l61 381q50 18 78 18q23 0 28.5 -13.5t0.5 -48.5l-60 -381q-25 -8 -44.5 -13t-34.5 -5zM198 315q-35 0 -48.5 9t-13.5 31q0 14 5 33t13 42h381q35 0 48.5 -8t13.5 -31q0 -29 -18 -76h-381z" />
    <glyph glyph-name="comma" unicode="," horiz-adv-x="334" 
d="M60 -177l-12 32q24 13 41.5 34t27.5 44t10 42l-51 67q1 23 13.5 42.5t34 31.5t45.5 12q38 0 58 -25.5t20 -57.5q0 -53 -23 -96t-65 -75t-99 -51z" />
    <glyph glyph-name="hyphen" unicode="-" horiz-adv-x="505" 
d="M115 231q-21 0 -34.5 10.5t-13.5 40.5t18 63q13 -2 23.5 -3t22.5 -1q36 0 69.5 5.5t65 13.5t63.5 13.5t66 5.5q21 0 35 -10.5t14 -39.5q0 -13 -4.5 -29.5t-14.5 -33.5q-12 2 -22.5 3t-22.5 1q-37 0 -70 -6t-64.5 -13.5t-63.5 -13.5t-67 -6z" />
    <glyph glyph-name="period" unicode="." horiz-adv-x="286" 
d="M137 -25q-30 0 -50.5 20.5t-20.5 48.5q0 23 10.5 42t29 30.5t43.5 11.5q31 0 51 -20t20 -49q0 -22 -11 -41t-30 -31t-42 -12z" />
    <glyph glyph-name="slash" unicode="/" horiz-adv-x="398" 
d="M84 -80q-14 0 -28.5 4.5t-25.5 11.5q49 149 103 355.5t117 486.5q13 58 64 58q14 0 28.5 -4t25.5 -12q-49 -148 -103 -354.5t-117 -487.5q-13 -58 -64 -58z" />
    <glyph glyph-name="zero" unicode="0" horiz-adv-x="730" 
d="M339 -25q-80 0 -138.5 38t-90 108t-31.5 164q0 124 48 217.5t134.5 145.5t199.5 52q19 0 42.5 -4.5t38.5 -10.5q5 -5 7 -17t3 -31q63 -17 96 -81t33 -165q0 -88 -26 -163.5t-73 -132.5t-109 -88.5t-134 -31.5zM348 51q60 0 106.5 42.5t73 116.5t26.5 170q0 112 -41.5 167
t-128.5 55q-19 0 -38.5 -4t-42.5 -12q-32 -46 -53.5 -98.5t-32.5 -107.5t-11 -108q0 -102 39 -161.5t103 -59.5z" />
    <glyph glyph-name="one" unicode="1" horiz-adv-x="465" 
d="M240 -25q-35 0 -53 26.5t-18 77.5q0 42 4 88t12 100.5t21 119t31 142.5q-51 0 -83.5 20t-39.5 56q52 15 89 31.5t63 31t46 23.5t39 9q40 0 40 -46q0 -19 -9.5 -62.5t-23.5 -103t-28.5 -127.5t-24 -138t-9.5 -133q0 -27 4.5 -50.5t12.5 -43.5q-39 -21 -73 -21z" />
    <glyph glyph-name="two" unicode="2" horiz-adv-x="656" 
d="M194 53l-87 42q113 74 190 140.5t116 127t39 115.5q0 65 -29.5 97t-88.5 32q-38 0 -69.5 -21.5t-50.5 -58.5t-23 -84q-37 5 -57 26t-20 55q0 53 31 92.5t87 61.5t131 22q65 0 113.5 -23.5t75.5 -66t27 -98.5q0 -67 -38 -135.5t-122.5 -146.5t-224.5 -177zM476 -30
q-37 0 -74.5 5.5t-85 19t-116.5 38.5q-29 -30 -52.5 -42.5t-50.5 -12.5t-45.5 18t-18.5 44q0 43 35 70t88 27q29 0 70.5 -10.5t87.5 -23.5t88.5 -23.5t73.5 -10.5l110 60q14 -22 19.5 -37t5.5 -29q0 -26 -18 -47.5t-48.5 -33.5t-68.5 -12z" />
    <glyph glyph-name="three" unicode="3" horiz-adv-x="662" 
d="M199 -156q-85 0 -126.5 23t-41.5 69q0 29 23.5 48t57.5 19q30 0 59 -22t48 -60q61 0 110.5 23.5t78.5 63t29 87.5q0 29 -11 56t-29 47.5t-40 26.5q-31 -21 -59.5 -32.5t-52.5 -11.5q-27 0 -45.5 16.5t-18.5 40.5q0 35 30.5 56t80.5 21q79 0 140.5 -27.5t96.5 -75
t35 -109.5q0 -56 -27 -103.5t-76.5 -82.5t-116 -54t-145.5 -19zM394 250l-100 34q47 18 82.5 47.5t55 67t19.5 79.5q0 65 -29 97t-88 32q-40 0 -73.5 -21.5t-54.5 -58.5t-25 -84q-36 5 -56.5 26t-20.5 55q0 53 32.5 92.5t90.5 61.5t136 22q63 0 111.5 -24t76 -66.5
t27.5 -97.5q0 -71 -47.5 -138.5t-136.5 -123.5z" />
    <glyph glyph-name="four" unicode="4" horiz-adv-x="676" 
d="M194 0q-78 0 -114 22t-36 69q0 27 16.5 65t42.5 84t55 96.5t55 102t42.5 100.5t16.5 91q0 13 -1.5 25t-6.5 28q20 10 37 13.5t34 3.5q81 0 81 -98q0 -89 -71.5 -214.5t-217.5 -293.5h332l-29 -75q-30 -5 -71 -9.5t-84 -7t-81 -2.5zM487 -170q-41 0 -63.5 26.5t-22.5 75.5
q0 25 7.5 66t21.5 95.5t33.5 119t43.5 135.5q12 9 25.5 15.5t28 10t26.5 3.5q17 0 24 -5t7 -19q0 -19 -10.5 -60t-24 -95t-24 -115.5t-10.5 -123.5q0 -66 24 -105q-26 -13 -45 -18.5t-41 -5.5z" />
    <glyph glyph-name="five" unicode="5" horiz-adv-x="619" 
d="M199 -155q-85 0 -125 23t-40 70q0 29 24.5 47.5t58.5 18.5q31 0 59 -22t47 -59q59 0 107 23t76.5 62t28.5 86q0 35 -18.5 71t-59.5 61t-108 25q-28 0 -50 -5t-31 -5q-10 0 -15.5 7.5t-5.5 15.5l60 348l107 -36l-42 -253q86 0 151.5 -28t103 -77.5t37.5 -113.5
q0 -56 -27.5 -103.5t-77 -82.5t-116 -54t-144.5 -19zM394 546q-123 0 -180.5 23.5t-57.5 69.5q0 30 16.5 45.5t49.5 15.5q29 0 52.5 -19.5t37.5 -49.5q38 2 82.5 12t91.5 26.5t90 36.5q7 -10 10.5 -27t3.5 -34q0 -36 -26 -58t-70.5 -31.5t-99.5 -9.5z" />
    <glyph glyph-name="six" unicode="6" horiz-adv-x="705" 
d="M333 -25q-69 0 -123 30.5t-85 91.5t-31 153t28.5 177.5t76 158t105 127t116 84.5t108.5 30q34 0 53.5 -12.5t33.5 -45.5q-44 -16 -94.5 -41.5t-101.5 -67t-98 -105t-85 -155.5h6q45 61 94 81t95 20q68 0 115 -30t71 -82.5t24 -118.5q0 -63 -25 -117t-68 -94t-98.5 -62
t-116.5 -22zM348 53q26 0 54.5 13.5t53.5 40t41 68t16 96.5q0 37 -12 71.5t-42 57t-84 22.5q-31 0 -67 -22.5t-61.5 -68t-25.5 -113.5q0 -41 12 -79t39.5 -62t75.5 -24z" />
    <glyph glyph-name="seven" unicode="7" horiz-adv-x="565" 
d="M242 -121q-38 0 -60.5 22.5t-22.5 74.5q0 75 31 175.5t87 213.5t129 228l129 41q-39 -60 -80 -137.5t-75 -165t-55 -176t-21 -170.5q0 -25 2 -44t12 -39q-20 -13 -39.5 -18t-36.5 -5zM343 551q-96 0 -155.5 9.5t-86.5 30.5t-27 55q0 18 5 35.5t12 29.5q37 -16 79 -29
t85.5 -23t84.5 -16t77 -8q17 31 41.5 50t52.5 19q33 0 50 -15.5t17 -44.5q0 -49 -57 -71t-178 -22z" />
    <glyph glyph-name="eight" unicode="8" horiz-adv-x="660" 
d="M321 -26q-113 0 -180 49t-67 135q0 28 9.5 57t33.5 59t67.5 60.5t111.5 61.5q80 36 121 70.5t55.5 68.5t14.5 67q0 44 -29.5 70t-80.5 26q-52 0 -89 -25.5t-37 -75.5q0 -39 25.5 -70.5t66 -59.5t86 -56.5t86 -61t66 -72t25.5 -90.5q0 -62 -36 -110.5t-100.5 -75.5
t-148.5 -27zM331 58q40 0 73 13.5t53.5 40.5t20.5 66q0 33 -25.5 62.5t-66 57.5t-86 58t-86 64t-66 74.5t-25.5 90.5q0 59 31.5 103.5t89 69t134.5 24.5q102 0 161 -49t59 -131q0 -68 -58 -130.5t-166 -110.5q-54 -24 -97 -55.5t-67.5 -69t-24.5 -78.5q0 -46 41.5 -73
t104.5 -27z" />
    <glyph glyph-name="nine" unicode="9" horiz-adv-x="685" 
d="M187 -152q-34 0 -53 12.5t-33 45.5q44 16 94.5 41.5t101.5 67.5t98 105.5t84 154.5h-6q-45 -61 -93.5 -81t-95.5 -20q-68 0 -115 30.5t-71 83t-24 117.5q0 64 24.5 117.5t68 93.5t99 62t116.5 22q70 0 123.5 -30.5t84.5 -91.5t31 -153t-28.5 -177.5t-76 -158t-105 -127
t-116 -84.5t-108.5 -30zM340 253q32 0 67.5 22.5t61 68t25.5 113.5q0 41 -12 79t-39.5 62t-75.5 24q-26 0 -55 -13.5t-54 -40t-41 -67.5t-16 -97q0 -37 12.5 -71.5t43 -57t83.5 -22.5z" />
    <glyph glyph-name="colon" unicode=":" horiz-adv-x="333" 
d="M137 -25q-30 0 -50.5 20.5t-20.5 48.5q0 23 10.5 42t29 30.5t43.5 11.5q31 0 51 -20t20 -49q0 -22 -11 -41t-30 -31t-42 -12zM190 406q-30 0 -50.5 20.5t-20.5 48.5q0 23 10.5 42t29 30.5t43.5 11.5q31 0 51 -20t20 -49q0 -22 -11 -41t-30 -31t-42 -12z" />
    <glyph glyph-name="semicolon" unicode=";" horiz-adv-x="333" 
d="M60 -177l-12 32q24 13 41.5 34t27.5 44t10 42l-51 67q1 23 13.5 42.5t34 31.5t45.5 12q38 0 58 -25.5t20 -57.5q0 -53 -23 -96t-65 -75t-99 -51zM190 406q-30 0 -50.5 20.5t-20.5 48.5q0 23 10.5 42t29 30.5t43.5 11.5q31 0 51 -20t20 -49q0 -22 -11 -41t-30 -31t-42 -12
z" />
    <glyph glyph-name="less" unicode="&#x3c;" horiz-adv-x="753" 
d="M190 436l377 -200q23 -13 34.5 -23t11.5 -22q0 -9 -8.5 -23t-21 -29t-24.5 -27l-378 201q-22 12 -33.5 22t-11.5 22q0 10 8.5 24t21 28.5t24.5 26.5zM620 625q17 0 26 -14.5t13.5 -37t6.5 -47.5l-388 -176q-13 -6 -23 -9.5t-18 -3.5q-20 0 -32 23q-7 13 -10 32t-5 44
l387 176q14 6 24.5 9.5t18.5 3.5z" />
    <glyph glyph-name="equal" unicode="=" horiz-adv-x="706" 
d="M178 187q-35 0 -48.5 9t-13.5 31q0 14 5 33t13 42h381q35 0 48.5 -8t13.5 -31q0 -29 -18 -76h-381zM219 443q-35 0 -48.5 9t-13.5 31q0 14 5 33t13 42h381q35 0 48.5 -8t13.5 -31q0 -29 -18 -76h-381z" />
    <glyph glyph-name="greater" unicode="&#x3e;" horiz-adv-x="753" 
d="M589 301l-377 200q-22 13 -34 23t-12 22q0 10 8.5 23.5t21 28.5t24.5 27l378 -201q23 -12 34 -22t11 -22q0 -10 -8.5 -24t-20.5 -28.5t-25 -26.5zM159 112q-16 0 -25.5 14.5t-14 37t-6.5 47.5l388 176q13 6 23 9.5t18 3.5q20 0 32 -23q7 -13 10.5 -32t4.5 -44l-387 -176
q-13 -6 -24 -9.5t-19 -3.5z" />
    <glyph glyph-name="question" unicode="?" horiz-adv-x="599" 
d="M267 241q-31 0 -51.5 18.5t-20.5 46.5q42 3 80.5 21t69 48.5t48 70.5t17.5 88q0 59 -31 96t-90 37q-36 0 -71 -17.5t-62.5 -54.5t-39.5 -94q-21 0 -35 9t-20.5 24.5t-6.5 36.5q0 24 12.5 58.5t41.5 67.5t78.5 55.5t122.5 22.5q87 0 138.5 -34t74.5 -87t23 -112
q0 -66 -24.5 -121.5t-65.5 -95.5t-90 -62t-98 -22zM197 -25q-30 0 -50.5 20.5t-20.5 48.5q0 23 10.5 42t29.5 30.5t43 11.5q31 0 51 -20t20 -49q0 -22 -11 -41t-30 -31t-42 -12z" />
    <glyph glyph-name="at" unicode="@" horiz-adv-x="1082" 
d="M508 -235q-136 0 -235.5 53t-153 150.5t-53.5 228.5q0 127 44 236.5t123.5 192t186 128.5t230.5 46q105 0 180 -26t123 -71t70.5 -102t22.5 -119q0 -70 -25 -139.5t-71.5 -126.5t-111.5 -91.5t-145 -34.5l46 70q51 14 93 46t72.5 75.5t47 93.5t16.5 99q0 50 -17 96.5
t-55 83t-100 58t-151 21.5q-102 0 -190.5 -38t-154.5 -105t-103.5 -156t-37.5 -191q0 -178 98.5 -272.5t285.5 -94.5q113 0 209.5 40.5t172.5 118.5q8 -15 11 -29.5t3 -28.5q0 -44 -35.5 -82.5t-96.5 -67.5t-138.5 -45.5t-160.5 -16.5zM474 90q-58 0 -93 43.5t-35 115.5
q0 81 38 143.5t101.5 98.5t140.5 36q32 0 65 -6q4 -8 6 -19t2 -23q-83 0 -137.5 -28t-81 -76t-26.5 -108q0 -43 18.5 -66t50.5 -23q63 0 102 75t57 226q25 31 64 31q20 0 32 -11t12 -31q0 -21 -7.5 -54t-18 -74.5t-18 -86.5t-7.5 -89q0 -16 4 -29t13 -19q-15 -13 -31 -19.5
t-32 -6.5q-30 0 -45.5 17.5t-15.5 49.5q0 7 1 15.5t3 18.5l-8 3q-26 -49 -66.5 -76.5t-87.5 -27.5z" />
    <glyph glyph-name="A" unicode="A" horiz-adv-x="693" 
d="M101 -24q-57 0 -57 83q0 39 18 96t53.5 132.5t89 168t124.5 200.5l-31 42q29 18 54.5 26t54.5 8q41 0 51 -20q24 20 52 20q30 0 45 -20t15 -64q0 -46 -1 -104.5t-0.5 -123.5t3.5 -129t10.5 -121t22 -101t36.5 -67q-33 -26 -77 -26q-35 0 -58 18.5t-36.5 62t-19 118
t-5.5 186.5v164.5t1 108.5h-12q-92 -137 -150.5 -242t-86.5 -180.5t-28 -123.5q0 -54 14 -86q-17 -13 -37 -19.5t-45 -6.5zM144 187l15 71h346l-13 -71h-348z" />
    <glyph glyph-name="B" unicode="B" horiz-adv-x="753" 
d="M386 -26q-133 0 -205.5 32t-72.5 90q0 29 4 71t12.5 103.5t22.5 148t35 204.5l-31 61q34 20 64.5 31t54.5 11q43 0 45 -51q104 52 197 52q80 0 126.5 -41t46.5 -112q0 -64 -43.5 -117.5t-123.5 -88.5q80 -15 125 -61.5t45 -116.5q0 -63 -38.5 -111.5t-106.5 -76.5
t-157 -28zM380 48q82 0 130.5 38t48.5 101q0 62 -42.5 96.5t-120.5 34.5q-34 0 -74 -5.5t-82 -16.5l8 69q95 5 163.5 29.5t106 65.5t37.5 94q0 87 -101 87q-37 0 -73 -7.5t-74 -24.5q-15 -72 -27.5 -140.5t-22 -135t-16.5 -131t-12 -127.5q32 -12 72.5 -19.5t78.5 -7.5z" />
    <glyph glyph-name="C" unicode="C" horiz-adv-x="662" 
d="M328 -25q-128 0 -201 75t-73 210q0 100 33 185t92 148t137 98t167 35q72 0 113 -23t41 -64q0 -34 -27 -57.5t-67 -23.5q-39 0 -75.5 17.5t-60.5 65.5q-65 -27 -116 -84t-80 -135t-29 -170q0 -97 38 -152t105 -55q53 0 92 26t62.5 70t27.5 99q38 0 60 -15.5t22 -53.5
q0 -53 -35.5 -98t-95 -71.5t-130.5 -26.5z" />
    <glyph glyph-name="D" unicode="D" horiz-adv-x="828" 
d="M330 -25q-111 0 -166.5 30t-55.5 92q0 25 4 66t13 103.5t23.5 150.5t34.5 206l-31 61q35 20 65.5 31t51.5 11q45 0 45 -53q0 -8 -4.5 -40t-12 -79.5t-16 -104.5t-17.5 -115.5t-16.5 -111.5t-12 -94.5t-4.5 -62.5q29 -9 55.5 -13t58.5 -4q85 0 150 43.5t102 120t37 174.5
q0 127 -51 193.5t-148 66.5q-46 0 -76 -8t-55.5 -22.5t-59.5 -34.5l-6 51q35 25 67.5 46t73.5 34.5t99 13.5q87 0 151 -39t99 -110.5t35 -169.5q0 -96 -31.5 -175t-89 -136.5t-137 -89t-175.5 -31.5z" />
    <glyph glyph-name="E" unicode="E" horiz-adv-x="580" 
d="M179 -26q-37 0 -54 19t-17 62q0 29 3.5 70t12.5 105t24 159.5t37 233.5l-31 61q32 20 63 31t56 11q44 0 44 -53q0 -8 -4.5 -39t-12 -77t-17 -101t-18.5 -111.5t-16.5 -107.5t-12 -90t-4.5 -59q0 -25 11.5 -43.5t36.5 -32.5q-53 -38 -101 -38zM399 -25q-61 0 -121.5 15.5
t-101.5 42.5l33 42h224q32 4 58 10t51 16q5 -15 7 -24t2 -20q0 -42 -36.5 -62t-115.5 -20zM357 280q-28 0 -57 5t-68 15l14 69q30 -4 61.5 -6t65.5 -2l74 18q0 -6 0.5 -12.5t0.5 -11.5q0 -36 -23.5 -55.5t-67.5 -19.5zM477 582q-39 0 -77 3.5t-75.5 12t-75.5 21.5l24 60
q67 0 117.5 5.5t99 14.5t106.5 21q4 -13 4.5 -23t0.5 -19q0 -35 -17.5 -56t-46 -30.5t-60.5 -9.5z" />
    <glyph glyph-name="F" unicode="F" horiz-adv-x="526" 
d="M179 -26q-37 0 -54 19t-17 62q0 29 3.5 70t12.5 105t24 159.5t37 233.5l-31 61q32 20 63 31t56 11q44 0 44 -53q0 -8 -4.5 -39t-12 -77t-17 -101t-18.5 -111.5t-16.5 -107.5t-12 -90t-4.5 -59q0 -29 6 -51t18 -37q-40 -26 -77 -26zM357 280q-28 0 -57 5t-68 15l14 69
q30 -4 61.5 -6t65.5 -2l74 18q0 -6 0.5 -12.5t0.5 -11.5q0 -36 -23.5 -55.5t-67.5 -19.5zM467 582q-39 0 -77 3.5t-75.5 12t-75.5 21.5l24 60q67 0 117.5 5.5t99 14.5t106.5 21q4 -13 4.5 -23t0.5 -19q0 -35 -17.5 -56t-46 -30.5t-60.5 -9.5z" />
    <glyph glyph-name="G" unicode="G" horiz-adv-x="725" 
d="M338 -30q-133 0 -208.5 76.5t-75.5 213.5q0 100 34.5 185t96 148t142 98t172.5 35q75 0 116.5 -23t41.5 -64q0 -34 -27.5 -57.5t-69.5 -23.5q-39 0 -77 17.5t-63 65.5q-68 -27 -122 -84t-85 -135t-31 -170q0 -97 40 -152t111 -55q61 0 107 31.5t72.5 85t30.5 120.5
q10 0 16.5 -20t6.5 -67q0 -61 -31 -112t-83 -82t-114 -31zM513 -185q-34 0 -51 14.5t-17 48.5q0 20 6 58.5t21 99.5l84 179l-13 67l-65 45q27 23 62.5 36.5t63.5 13.5q30 0 43 -10.5t13 -38.5q0 -7 -9.5 -41.5t-23.5 -85t-28.5 -107.5t-24 -111.5t-9.5 -96.5q0 -17 4.5 -29
t12.5 -19q-16 -11 -32.5 -17t-36.5 -6z" />
    <glyph glyph-name="H" unicode="H" horiz-adv-x="816" 
d="M623 -26q-37 0 -54 19t-17 62q0 29 3.5 70.5t12.5 105.5t24 159.5t38 232.5l-32 61q32 20 63 31t56 11q44 0 44 -53q0 -8 -4.5 -39t-12 -77t-16.5 -101t-18.5 -111.5t-17 -107.5t-12 -90t-4.5 -59q0 -29 6 -51t18 -37q-39 -26 -77 -26zM179 -26q-37 0 -54 19t-17 62
q0 29 3.5 70.5t12.5 105.5t24 159.5t37 232.5l-31 61q32 20 63 31t56 11q44 0 44 -53q0 -8 -4.5 -39t-12 -77t-17 -101t-18.5 -111.5t-16.5 -107.5t-12 -90t-4.5 -59q0 -29 6 -51t18 -37q-39 -26 -77 -26zM199 291l15 71h418l-13 -71h-420z" />
    <glyph glyph-name="I" unicode="I" horiz-adv-x="372" 
d="M179 -25q-37 0 -54 19t-17 62q0 29 3.5 70.5t12.5 105.5t24 159.5t37 231.5l-31 61q32 20 63 31t56 11q44 0 44 -53q0 -8 -4.5 -39t-12 -77t-17 -100.5t-18.5 -111t-16.5 -107.5t-12 -90t-4.5 -59q0 -29 6 -51t18 -37q-39 -26 -77 -26z" />
    <glyph glyph-name="J" unicode="J" horiz-adv-x="540" 
d="M152 -25q-35 0 -67 10.5t-52.5 31.5t-20.5 52q0 26 19 46.5t55 20.5q33 0 55 -17.5t36 -44.5t22 -54l-27 19q35 3 60 14.5t42.5 37t30 69.5t21.5 111l49 352l128 50l-57 -402q-12 -78 -34.5 -134.5t-57.5 -92t-85 -52.5t-117 -17zM348 564q-140 0 -199.5 23.5t-59.5 77.5
q0 18 4 36.5t11 30.5q41 -21 89.5 -38t96 -28t86.5 -13q11 35 34 54t54 19q32 0 50 -16.5t18 -48.5q0 -50 -44 -73.5t-140 -23.5z" />
    <glyph glyph-name="K" unicode="K" horiz-adv-x="688" 
d="M206 239l-2 63l97 73q70 52 117 93t75.5 75t41 64.5t12.5 61.5q0 8 -2 16.5t-6 17.5q31 22 69 22q30 0 49 -19t19 -49q0 -40 -26.5 -81t-83.5 -89t-150 -109zM179 -26q-37 0 -54 19t-17 62q0 29 4 71.5t12.5 107t23.5 159.5t37 230l-31 61q34 20 64.5 31t54.5 11
q44 0 44 -53q0 -8 -4.5 -39t-12 -77t-17 -101t-18.5 -111.5t-16.5 -107.5t-12 -90t-4.5 -59q0 -29 6 -51t18 -37q-40 -26 -77 -26zM582 -25q-30 0 -51.5 13t-43.5 50t-53 108l-93 207l101 69q26 -69 55.5 -134.5t59.5 -121.5t58 -97t51 -61q-8 -9 -22.5 -16.5t-31 -12
t-30.5 -4.5z" />
    <glyph glyph-name="L" unicode="L" horiz-adv-x="543" 
d="M179 -26q-37 0 -54 19t-17 62q0 29 3.5 70t12 105t23.5 159.5t38 233.5l-31 61q32 20 63 31t56 11q44 0 44 -53q0 -8 -4.5 -39t-12 -77t-17 -101t-18.5 -111.5t-16.5 -107.5t-12 -90t-4.5 -59q0 -25 11.5 -43.5t36.5 -32.5q-53 -38 -101 -38zM369 -25q-57 0 -111 13.5
t-90 35.5l34 51h189q32 4 58 10t51 16q5 -16 7 -24.5t2 -19.5q0 -42 -34 -62t-106 -20z" />
    <glyph glyph-name="M" unicode="M" horiz-adv-x="1026" 
d="M179 -26q-36 0 -53.5 18t-17.5 59q0 28 3.5 68t11.5 103.5t23 161t37 239.5l-31 61q33 21 63.5 31.5t53.5 10.5q36 0 60.5 -12.5t43.5 -46.5t36 -96.5t38 -162.5t50 -245h11q20 83 53.5 164t77 153t92.5 127.5t100.5 87t100.5 31.5q12 0 20.5 -5t13.5 -16t5 -29
q0 -8 -4.5 -39.5t-12 -78.5t-16 -102.5t-17.5 -113t-16.5 -109.5t-12 -91.5t-4.5 -59.5q0 -27 6 -47.5t18 -36.5q-40 -26 -77 -26q-35 0 -52 18.5t-17 59.5q0 28 3 67t10.5 98.5t20.5 147.5t34 214h-6q-43 -37 -78.5 -88t-64.5 -109t-50.5 -115t-35 -106.5t-18.5 -83.5
q-19 -16 -41 -25t-42 -9q-25 0 -43 9t-33 38.5t-30.5 88t-36 156t-50.5 244.5h-6q-8 -52 -17.5 -110.5t-18.5 -117.5t-16 -111.5t-11.5 -92.5t-4.5 -61q0 -28 5.5 -48.5t18.5 -35.5q-19 -13 -38 -19.5t-38 -6.5z" />
    <glyph glyph-name="N" unicode="N" horiz-adv-x="844" 
d="M651 -27q-33 0 -59.5 8t-49.5 30.5t-45.5 66t-48.5 113t-58.5 172.5t-74.5 245h-47l4 118q32 0 57.5 -12.5t49.5 -47.5t51 -102.5t62.5 -176.5t83.5 -271l76 -1zM179 -26q-37 0 -54 19t-17 62q0 29 3.5 70.5t12.5 105.5t24 159.5t37 232.5l-31 61q32 20 63 31t56 11
q44 0 44 -53q0 -8 -4.5 -39t-12 -77t-17 -101t-18.5 -111.5t-16.5 -107.5t-12 -90t-4.5 -59q0 -29 6 -51t18 -37q-39 -26 -77 -26zM651 -27q-37 0 -54 19.5t-17 62.5q0 29 3.5 70.5t12.5 105.5t24 159.5t38 232.5l-34 61q33 20 64.5 31t56.5 11q44 0 44 -53q0 -8 -4.5 -39
t-12 -77t-16.5 -101t-18.5 -111.5t-17 -108t-12 -90.5t-4.5 -59q0 -28 6 -50t18 -38q-20 -13 -38.5 -19.5t-38.5 -6.5z" />
    <glyph glyph-name="O" unicode="O" horiz-adv-x="744" 
d="M336 -25q-85 0 -148.5 38t-98.5 106.5t-35 161.5q0 103 30.5 185t83.5 140t122 88.5t145 30.5q50 0 74 -14.5t24 -45.5q0 -10 -1.5 -18.5t-6.5 -19.5q-11 3 -28.5 5.5t-30.5 2.5q-79 0 -143 -43.5t-102 -122t-38 -184.5q0 -121 49.5 -180.5t130.5 -59.5q41 0 83 20.5
t79 58.5t63.5 92t34.5 120q-64 29 -87.5 72t-23.5 90q0 33 13 58.5t35 40.5t50 15q52 0 80.5 -45.5t28.5 -125.5q0 -98 -28.5 -183t-80 -148.5t-121.5 -99t-153 -35.5z" />
    <glyph glyph-name="P" unicode="P" horiz-adv-x="693" 
d="M384 205q-60 0 -107.5 16.5t-87.5 47.5l36 47q24 -18 55 -26t62 -8q66 0 113.5 26.5t73 73t25.5 104.5q0 42 -14 78t-46.5 58t-88.5 22q-40 0 -80 -18.5t-84 -51.5v42q31 31 62 55t71 38.5t96 14.5q69 0 116 -31.5t71 -82.5t24 -110q0 -57 -18 -110t-54 -94.5t-92 -66
t-133 -24.5zM179 -26q-37 0 -54 19t-17 62q0 29 3.5 70.5t12.5 105.5t24 159.5t37 232.5l-31 61q32 20 63 31t56 11q44 0 44 -53q0 -8 -4.5 -39t-12 -77t-17 -101t-18.5 -111.5t-16.5 -107.5t-12 -90t-4.5 -59q0 -29 6 -51t18 -37q-39 -26 -77 -26z" />
    <glyph glyph-name="Q" unicode="Q" horiz-adv-x="744" 
d="M540 -182q-56 0 -109 20t-97.5 47t-75.5 47q-16 -25 -41.5 -41t-56.5 -16q-25 0 -41.5 15.5t-16.5 41.5q0 32 24 50t61 18q43 0 91 -11t102.5 -22.5t114.5 -11.5q47 0 87 6t77 18q2 -9 3 -19.5t1 -22.5q0 -38 -15.5 -64.5t-43 -40.5t-64.5 -14zM336 -25q-85 0 -148.5 38
t-98.5 106.5t-35 161.5q0 103 30.5 185t83.5 140t122 88.5t145 30.5q50 0 74 -14.5t24 -45.5q0 -10 -1.5 -18.5t-6.5 -19.5q-11 3 -28.5 5.5t-30.5 2.5q-79 0 -143 -43.5t-102 -122t-38 -184.5q0 -121 49.5 -180.5t130.5 -59.5q41 0 83 20.5t79 58.5t63.5 92t34.5 120
q-64 29 -87.5 72t-23.5 90q0 33 13 58.5t35 40.5t50 15q52 0 80.5 -45.5t28.5 -125.5q0 -98 -28.5 -183t-80 -148.5t-121.5 -99t-153 -35.5z" />
    <glyph glyph-name="R" unicode="R" horiz-adv-x="725" 
d="M384 247q-55 0 -97 13.5t-86 50.5l24 47q24 -18 55 -26t62 -8q66 0 113.5 23t73 63.5t25.5 90.5q0 38 -14 70.5t-46.5 52.5t-88.5 20q-40 0 -80 -18.5t-84 -51.5v42q31 31 62 55t71 38.5t96 14.5q69 0 116 -29.5t71 -77t24 -102.5q0 -47 -18 -94.5t-54 -87t-92 -63
t-133 -23.5zM179 -26q-37 0 -54 19t-17 62q0 29 3.5 70.5t12.5 105.5t24 159.5t37 232.5l-31 61q32 20 63 31t56 11q44 0 44 -53q0 -9 -6 -47t-16 -94t-20.5 -120t-20.5 -127t-16 -115t-6 -82q0 -29 6 -51t18 -37q-39 -26 -77 -26zM605 -25q-30 0 -51.5 13t-43.5 50t-53 108
l-62 137l107 44q32 -73 65.5 -137.5t65 -111.5t56.5 -70q-8 -9 -22.5 -16.5t-31 -12t-30.5 -4.5z" />
    <glyph glyph-name="S" unicode="S" horiz-adv-x="716" 
d="M321 -25q-74 0 -130.5 14.5t-88 43t-31.5 69.5q0 23 12 42t31 31q32 -61 85.5 -93.5t115.5 -32.5q83 0 136.5 29t53.5 87q0 30 -21 50.5t-56 36.5t-76 30.5t-82.5 32.5t-76.5 42t-56 59t-21 84t25.5 90t72.5 71.5t112 47.5t145 17q62 0 110 -12.5t75.5 -34.5t27.5 -51
q0 -43 -28 -65t-72 -22q-47 0 -77.5 28t-46.5 80q-102 -12 -158.5 -48.5t-56.5 -86.5q0 -28 21 -47.5t56 -34.5t76 -30t82.5 -32.5t76.5 -41.5t56 -58t21 -82q0 -43 -20 -81.5t-59.5 -68t-98 -46.5t-135.5 -17z" />
    <glyph glyph-name="T" unicode="T" horiz-adv-x="553" 
d="M263 -26q-36 0 -53 18t-17 59q0 38 9 113t27.5 197t48.5 300l120 -23q-7 -49 -17.5 -113t-21.5 -132.5t-20.5 -131.5t-15.5 -110t-6 -67q0 -28 5.5 -48.5t17.5 -35.5q-38 -26 -77 -26zM503 586q-43 0 -86 6.5t-86.5 13t-89.5 6.5l-161 -24q-5 10 -7.5 22t-2.5 27
q0 47 27 62.5t73 15.5q43 0 86 -6.5t86.5 -13t89.5 -7.5l161 25q5 -9 7 -22t2 -27q0 -37 -26 -57.5t-73 -20.5z" />
    <glyph glyph-name="U" unicode="U" horiz-adv-x="812" 
d="M618 -26q-27 0 -42 14.5t-21.5 39t-6.5 52.5q0 27 5 56.5t12 58.5l-6 1q-30 -57 -74.5 -107t-101.5 -81t-125 -31q-43 0 -72 15t-46 39.5t-24.5 55t-7.5 60.5q0 24 3.5 59.5t12 90t23 134t36.5 192.5l-31 61q29 20 60.5 31.5t56.5 11.5q45 0 45 -54q0 -8 -6 -42
t-16 -83.5t-21 -105.5t-21 -109.5t-16 -95.5t-6 -62q0 -51 17 -80.5t71 -29.5q41 0 89.5 32t94 89.5t74.5 134.5q-2 17 -4.5 46.5t-2.5 65.5q0 35 3 75.5t11.5 79t23.5 70t39.5 50.5t60.5 19q14 0 30.5 -5.5t31.5 -16.5q-14 -51 -30.5 -126t-31.5 -161.5t-24.5 -173
t-9.5 -160.5q0 -54 18 -84q-19 -13 -36.5 -19.5t-34.5 -6.5z" />
    <glyph glyph-name="V" unicode="V" horiz-adv-x="617" 
d="M224 -30q-51 0 -80 22t-41 76t-12 148q0 72 1 143t-3 135t-19.5 116.5t-49.5 88.5q36 27 77 27q48 0 73.5 -36t35.5 -120t10 -228v-136v-77.5t-0.5 -39t-0.5 -21.5h12q96 143 154.5 245.5t85 172t26.5 111.5q0 31 -5 55.5t-19 46.5q31 17 49.5 22t37.5 5q28 0 44.5 -23.5
t16.5 -64.5q0 -37 -17.5 -93t-53 -131t-89 -167t-124.5 -201l19 -34q-12 -12 -33.5 -21.5t-46.5 -15t-48 -5.5z" />
    <glyph glyph-name="W" unicode="W" horiz-adv-x="980" 
d="M177 -30q-45 0 -60 38t-15 100q0 89 1 175.5t-4 164.5t-23 142.5t-56 108.5q38 27 81 27q51 0 77.5 -36t36.5 -120t10 -228v-136v-77.5t-0.5 -39t-0.5 -21.5h13q87 107 141.5 199.5t84 162t40 109l10.5 39.5q0 12 -7 28t-14 31t-9 22q20 19 32.5 25t26.5 6
q32 0 52.5 -22.5t20.5 -61.5q0 -30 -9 -62.5t-27.5 -71t-46 -88t-64.5 -114.5q-53 -94 -94 -153t-74 -91t-62.5 -44t-60.5 -12zM608 -30q-44 0 -66.5 20.5t-30.5 56.5t-11 80l-39 532q11 14 32 22.5t49 8.5l30 -73l19 -549h12q91 143 146 245.5t80 172t25 111.5
q0 31 -6 55.5t-20 46.5q31 17 49 22t40 5q29 0 45.5 -23.5t16.5 -64.5q0 -37 -17 -93t-51 -131t-84.5 -167t-116.5 -201l18 -34q-11 -12 -31 -21.5t-43 -15t-46 -5.5z" />
    <glyph glyph-name="X" unicode="X" horiz-adv-x="769" 
d="M612 -30q-30 0 -54.5 13.5t-47.5 43.5t-51 81l-217 404q-25 47 -49.5 76t-50 46t-57.5 28q19 30 47.5 47.5t59.5 17.5t55.5 -13.5t48 -44t50.5 -81.5l217 -404q26 -47 49.5 -76t49 -45.5t56.5 -28.5q-18 -30 -46.5 -47t-59.5 -17zM105 -30q-30 0 -47.5 21t-17.5 55
q0 24 13.5 50t50 63t105.5 91l157 124l35 -65q-124 -85 -176.5 -152.5t-52.5 -114.5q0 -13 3 -24t7 -21q-10 -10 -32 -18.5t-45 -8.5zM426 322l-36 66q125 86 177.5 152.5t52.5 113.5q0 27 -9 45q10 10 31.5 18.5t44.5 8.5q30 0 47.5 -21t17.5 -56q0 -21 -13 -47.5
t-49 -63.5t-105 -91z" />
    <glyph glyph-name="Y" unicode="Y" horiz-adv-x="793" 
d="M89 -242q-73 0 -106.5 26.5t-33.5 67.5q0 16 7 33t14 29q12 -14 29.5 -28.5t46 -24.5t72.5 -10q38 0 89.5 17t108 53.5t110.5 95.5t98 141.5t70.5 191.5t26.5 247q0 31 -5 55.5t-19 46.5q31 17 49.5 22t37.5 5q28 0 44.5 -24t16.5 -65q0 -82 -15 -168.5t-44 -172
t-71.5 -165t-97.5 -147.5t-121 -118.5t-143 -79t-164 -28.5zM398 -30q-65 0 -106 24.5t-63.5 67t-32.5 97.5t-12.5 116.5t-3.5 123.5t-6.5 119.5t-20.5 104t-46 76.5q36 27 75 27q49 0 75.5 -30t37.5 -80.5t13 -113t1.5 -130t3.5 -130t19 -113t47 -80.5t89 -30z" />
    <glyph glyph-name="Z" unicode="Z" horiz-adv-x="654" 
d="M224 87l-111 20l316 477l145 30zM467 -30q-37 0 -73.5 5t-84 18.5t-117.5 38.5q-29 -29 -52 -41.5t-50 -12.5t-45 17.5t-18 43.5q0 42 34.5 69.5t87.5 26.5q29 0 70 -10t86.5 -23.5t88 -23.5t73.5 -10l109 59q14 -21 19.5 -36t5.5 -29q0 -26 -18 -47t-48 -33t-68 -12z
M374 564q-96 0 -155.5 10.5t-86.5 32.5t-27 58q0 18 5.5 36.5t12.5 30.5q39 -16 82.5 -29.5t89 -24t88.5 -17t80 -8.5q16 32 45.5 52.5t57.5 20.5q35 0 54 -15.5t19 -44.5q0 -52 -64 -77t-201 -25z" />
    <glyph glyph-name="bracketleft" unicode="[" horiz-adv-x="397" 
d="M190 -156q-35 0 -59.5 14t-37 51t-12.5 106q0 86 8.5 173t26 184t43.5 212q20 87 43 134t56 64.5t82 17.5q32 0 55.5 -7.5t36.5 -22.5t13 -38q0 -6 -0.5 -14.5t-2.5 -18.5q-7 3 -29 6t-46.5 4.5t-40.5 1.5q-28 -70 -51 -163.5t-39.5 -199t-25.5 -213t-9 -205.5
q16 0 38.5 2t42 5t25.5 5q3 -9 4 -19.5t1 -15.5q0 -29 -30.5 -46t-91.5 -17z" />
    <glyph glyph-name="backslash" unicode="\" horiz-adv-x="678" 
d="M453 -80q-51 0 -64 58q-63 281 -116.5 487.5t-103.5 354.5q11 8 26 12t28 4q51 0 64 -58q63 -280 117 -486.5t103 -355.5q-11 -7 -25.5 -11.5t-28.5 -4.5z" />
    <glyph glyph-name="bracketright" unicode="]" horiz-adv-x="397" 
d="M218 800q35 0 59.5 -14t37 -50.5t12.5 -106.5q0 -86 -8.5 -173t-26 -184t-43.5 -212q-19 -87 -42 -133.5t-56 -64.5t-83 -18q-32 0 -55.5 7.5t-36.5 23t-13 37.5q0 6 1 14.5t2 18.5q8 -3 29.5 -5.5t46.5 -4.5t40 -2q28 70 51 163.5t39.5 199t25.5 213t9 205.5
q-15 0 -37.5 -2t-42 -4.5t-26.5 -5.5q-3 9 -4 19.5t-1 15.5q0 29 30.5 46t91.5 17z" />
    <glyph glyph-name="asciicircum" unicode="^" horiz-adv-x="687" 
d="M190 451q-7 0 -18 6t-24.5 18.5t-29.5 29.5l261 388q16 24 28 34.5t22 10.5h35q11 0 18.5 -9.5t16.5 -35.5l138 -388q-19 -17 -37 -29t-32 -18.5t-21 -6.5q-11 0 -19 10.5t-17 35.5l-105 296l30 -4l-196 -292q-16 -25 -27.5 -35.5t-22.5 -10.5z" />
    <glyph glyph-name="underscore" unicode="_" horiz-adv-x="659" 
d="M47 -175q-40 0 -55 10t-15 37q0 18 5 38t13 42q17 -7 47.5 -12.5t69.5 -5.5q34 0 78.5 5t95 11.5t101.5 11.5t99 5q41 0 56 -10t15 -38q0 -17 -5 -36.5t-14 -43.5q-16 8 -46 13t-70 5q-34 0 -78.5 -5t-95 -11t-102 -11t-99.5 -5z" />
    <glyph glyph-name="grave" unicode="`" horiz-adv-x="600" 
d="M300 671q-16 0 -41 10t-58.5 23t-72 23t-81.5 10q-4 11 -6.5 24.5t-2.5 29.5q0 61 54 61q26 0 49 -13t49.5 -33.5t61.5 -42.5t85 -41q-4 -25 -13.5 -38t-23.5 -13z" />
    <glyph glyph-name="a" unicode="a" horiz-adv-x="748" 
d="M258 -25q-54 0 -95 29t-64 82t-23 124q0 83 29.5 153.5t81.5 124t122 83t151 29.5q46 0 94 -8q6 -10 9 -22t3 -25q-87 0 -155 -25t-115.5 -70.5t-72 -105.5t-24.5 -131q0 -68 28 -106t79 -38q93 0 153 119t90 357q11 14 28.5 22t35.5 8q25 0 39.5 -11.5t14.5 -33.5
q0 -33 -12 -83.5t-27 -113.5t-27 -134t-12 -144q0 -35 18 -52q-16 -15 -33 -21.5t-34 -6.5q-34 0 -52 21t-18 61q0 13 2 28.5t5 31.5l-10 5q-36 -70 -90.5 -108.5t-118.5 -38.5z" />
    <glyph glyph-name="b" unicode="b" horiz-adv-x="747" 
d="M223 -25q-33 0 -61 9t-45 37t-17 83q0 36 7.5 94.5t21 134.5t31.5 164.5t39 183.5l-44 50q25 20 57.5 31.5t57.5 11.5q29 0 41 -12.5t12 -42.5q0 -33 -19.5 -105t-41.5 -168l10 -5q38 76 94 117.5t123 41.5q55 0 95.5 -27.5t63.5 -77.5t23 -118q0 -85 -34 -158
t-95.5 -128t-142.5 -85.5t-176 -30.5zM198 40q75 3 139 28.5t111 69t73.5 101t26.5 123.5q0 68 -28 106t-79 38q-46 0 -89.5 -33t-78.5 -95t-55 -147.5t-20 -190.5z" />
    <glyph glyph-name="c" unicode="c" horiz-adv-x="620" 
d="M313 -25q-109 0 -172 64t-63 178q0 82 28 152t77.5 121.5t115 80.5t140.5 29q63 0 99.5 -20.5t36.5 -56.5q0 -30 -23.5 -50.5t-58.5 -20.5q-34 0 -65 16t-51 56q-50 -22 -90 -68t-63 -108.5t-23 -136.5q0 -79 29.5 -124t81.5 -45q43 0 75.5 21.5t52 57.5t21.5 81
q38 0 59.5 -14.5t21.5 -46.5q0 -45 -31 -83t-83 -60.5t-115 -22.5z" />
    <glyph glyph-name="d" unicode="d" horiz-adv-x="747" 
d="M257 -25q-54 0 -95 29t-64 82t-23 124q0 77 29.5 143.5t81.5 116t122 77.5t151 28q54 0 94 -8q6 -10 9 -21.5t3 -25.5q-85 0 -152.5 -22.5t-115.5 -63.5t-73.5 -97t-25.5 -124t28 -106t79 -38q36 0 72 21.5t67 62.5t51 97l-9 -136l-20 8q-36 -70 -90.5 -108.5
t-118.5 -38.5zM535 -25q-31 0 -47 19.5t-16 59.5q0 18 4.5 58t12.5 95t18 118.5t20.5 128t21 123.5t18.5 105l-44 50q25 20 57 31.5t58 11.5q28 0 40 -12.5t12 -42.5q0 -25 -10 -72.5t-25 -112.5t-30.5 -142t-25.5 -160.5t-10 -168.5q0 -18 5.5 -35t15.5 -26
q-15 -13 -33.5 -20.5t-41.5 -7.5z" />
    <glyph glyph-name="e" unicode="e" horiz-adv-x="650" 
d="M304 -25q-106 0 -166 65t-60 179q0 83 27 152.5t76 120.5t115 79.5t144 28.5q79 0 123.5 -37.5t44.5 -105.5q0 -71 -51 -121.5t-148 -76.5t-236 -27l12 56q149 -1 231.5 44.5t82.5 127.5q0 35 -20.5 56t-55.5 21q-45 0 -85 -25t-70.5 -69.5t-48 -103.5t-17.5 -126
q0 -79 30 -125t82 -46q65 0 106 41t45 109q38 0 59.5 -14t21.5 -46q0 -40 -32 -76t-86.5 -58.5t-123.5 -22.5z" />
    <glyph glyph-name="f" unicode="f" horiz-adv-x="433" 
d="M170 -200q-31 0 -48.5 20.5t-17.5 57.5q0 55 26.5 193.5t75.5 373.5q-4 45 -6.5 83.5t-2.5 72.5q0 69 19.5 109.5t51.5 58.5t71 18q40 0 66 -21.5t26 -54.5q0 -31 -21.5 -51.5t-56.5 -20.5q-22 0 -42 6.5t-37 21.5l-10 -7l54 -245q-21 -78 -38.5 -157.5t-30 -152.5
t-19.5 -131.5t-7 -93.5q0 -38 22 -53q-43 -27 -75 -27zM103 359q-7 16 -7 33q0 25 15.5 39.5t41 21.5t55.5 7q23 0 57.5 4t71 11t66.5 17q7 -16 7 -33q0 -24 -15.5 -39t-41 -22t-55.5 -7q-23 0 -57 -4t-70.5 -11t-67.5 -17z" />
    <glyph glyph-name="g" unicode="g" horiz-adv-x="672" 
d="M158 -235q-72 0 -116.5 24.5t-44.5 62.5q0 20 13 41.5t34 36.5q23 -40 56.5 -59.5t81.5 -19.5q38 0 84.5 19.5t92.5 66t82.5 126t56 198.5t13.5 284q24 20 37.5 26.5t26.5 6.5q42 0 42 -38q0 -121 -15 -235t-48.5 -212t-87 -171.5t-130 -115t-178.5 -41.5zM232 4
q-56 0 -98 29t-65.5 81t-23.5 121q0 77 25.5 143.5t74.5 116t119 77.5t158 28q52 0 94 -8q6 -10 9 -21.5t3 -25.5q-83 0 -149.5 -22.5t-113.5 -63t-72 -96t-25 -121.5q0 -73 29.5 -113.5t82.5 -40.5q24 0 54.5 12.5t61 42.5t56.5 82.5t42 131t16 188.5l5 -398h-64
q-36 -68 -96 -105.5t-123 -37.5z" />
    <glyph glyph-name="h" unicode="h" horiz-adv-x="737" 
d="M151 -25q-36 0 -52.5 18.5t-16.5 52.5q0 21 7 68t18.5 111.5t26.5 141t30.5 157t30.5 158.5l-44 50q24 20 56.5 31.5t58.5 11.5q28 0 40 -12.5t12 -42.5q0 -24 -9 -63.5t-23.5 -98.5t-32.5 -143l10 -5q39 71 85.5 112.5t95 59.5t91.5 18q64 0 96 -32t32 -101
q0 -46 -10.5 -96t-24.5 -103t-24.5 -106.5t-10.5 -106.5q0 -16 3 -30t10 -22q-31 -28 -64 -28q-36 0 -51.5 18.5t-15.5 52.5q0 41 9.5 93.5t22 107t22 103.5t9.5 84q0 38 -14 59.5t-47 21.5q-44 0 -92.5 -33.5t-90 -94.5t-67.5 -145.5t-26 -186.5q0 -16 3 -30t9 -22
q-29 -28 -62 -28z" />
    <glyph glyph-name="i" unicode="i" horiz-adv-x="388" 
d="M171 -25q-34 0 -51 17t-17 54q0 20 4.5 55t14.5 89t26.5 132.5t40.5 185.5l-44 50q25 20 56.5 31t56.5 11q29 0 42 -12t13 -43q0 -7 -6.5 -34.5t-17 -70t-22 -93t-22 -103.5t-17 -101.5t-6.5 -87.5q0 -19 4.5 -32t13.5 -21q-33 -27 -69 -27zM260 685q-32 0 -51 16t-19 41
q0 20 11 37t31 27.5t47 10.5q33 0 51.5 -15.5t18.5 -40.5q0 -21 -11.5 -38.5t-31.5 -27.5t-46 -10z" />
    <glyph glyph-name="j" unicode="j" horiz-adv-x="397" 
d="M48 -210q-37 0 -55 20t-18 48q0 32 21.5 50t57.5 18q24 0 41.5 -10.5t28.5 -18.5l9 15q-11 12 -18 25t-10 29.5t-3 37.5q0 24 8 75t21 120.5t27.5 149t26.5 159.5l-44 50q24 20 56 31t57 11q29 0 41.5 -12t12.5 -43q0 -7 -5.5 -39t-14.5 -80.5t-20.5 -107.5t-24 -122
t-24.5 -123.5t-22 -111.5q-11 -53 -31 -91.5t-49 -59t-69 -20.5zM255 695q-31 0 -50.5 13.5t-19.5 34.5q0 17 11 31.5t31 23.5t47 9q32 0 51 -13.5t19 -33.5q0 -18 -11.5 -33t-31.5 -23.5t-46 -8.5z" />
    <glyph glyph-name="k" unicode="k" horiz-adv-x="647" 
d="M183 156l11 60l139 110q41 34 76.5 70t57 73.5t21.5 75.5q0 8 -1.5 16.5t-3.5 16.5q14 11 32 16.5t34 5.5q29 0 46 -18t17 -49q0 -52 -49 -110t-156 -125zM162 -25q-30 0 -46 19.5t-16 59.5q0 18 4.5 58t12.5 95t18 118.5t20.5 128t21 123.5t18.5 105l-44 50
q24 20 56.5 31.5t58.5 11.5q28 0 40 -12.5t12 -42.5q0 -25 -10 -72.5t-25 -112.5t-30.5 -142t-25.5 -160.5t-10 -168.5q0 -18 5 -35t15 -26q-14 -13 -33 -20.5t-42 -7.5zM542 -25q-38 0 -66 23.5t-62 85.5l-105 190l94 69l101 -184q24 -42 51.5 -74t79.5 -52
q-17 -29 -42 -43.5t-51 -14.5z" />
    <glyph glyph-name="l" unicode="l" horiz-adv-x="375" 
d="M162 -25q-30 0 -46 19.5t-16 59.5q0 18 4.5 58t12.5 95t18 118.5t20.5 128t21 123.5t18.5 105l-44 50q24 20 56.5 31.5t58.5 11.5q28 0 40 -12.5t12 -42.5q0 -14 -7.5 -52.5t-19 -93.5t-24 -120t-24 -134t-19 -134.5t-7.5 -121.5q0 -18 5 -35t15 -26q-14 -13 -33 -20.5
t-42 -7.5z" />
    <glyph glyph-name="m" unicode="m" horiz-adv-x="1117" 
d="M172 -25q-36 0 -52 18.5t-16 52.5q0 22 5.5 61t14.5 89t20.5 104.5t23.5 106t23 93.5l-45 50q25 22 57.5 34.5t57.5 12.5q30 0 42 -12t12 -43q0 -26 -8.5 -58.5t-22.5 -61.5l10 -5q53 101 114.5 142t131.5 41q65 0 92.5 -35t27.5 -91q0 -11 -1.5 -24.5t-5.5 -27.5l10 -5
q55 101 117.5 142t134.5 41q65 0 97 -32t32 -101q0 -46 -10.5 -96t-24.5 -103t-24.5 -106.5t-10.5 -106.5q0 -16 3 -30t9 -22q-29 -28 -62 -28q-36 0 -52.5 19t-16.5 54q0 41 9.5 92.5t22.5 106.5t22.5 104t9.5 83q0 38 -14 59.5t-48 21.5q-41 0 -86.5 -33.5t-84.5 -94.5
t-63.5 -145.5t-24.5 -186.5q0 -16 3 -30t10 -22q-29 -28 -63 -28q-36 0 -52 19t-16 54q0 41 9.5 92.5t22.5 106.5t22.5 104t9.5 83q0 38 -14.5 59.5t-47.5 21.5q-42 0 -87 -33.5t-84 -94.5t-63.5 -145.5t-24.5 -186.5q0 -16 3 -30t9 -22q-29 -28 -63 -28z" />
    <glyph glyph-name="n" unicode="n" horiz-adv-x="758" 
d="M172 -25q-34 0 -51 17t-17 54q0 22 7 70t19.5 112t28 134.5t32.5 137.5l-45 50q25 22 57.5 34.5t57.5 12.5q30 0 42 -12t12 -43q0 -26 -8.5 -58.5t-22.5 -61.5l10 -5q50 89 115.5 136t146.5 47q65 0 96.5 -32.5t31.5 -100.5q0 -46 -10.5 -96t-24.5 -103t-24.5 -106.5
t-10.5 -106.5q0 -36 13 -52q-30 -28 -64 -28t-50.5 17t-16.5 54q0 41 9.5 93.5t22 107t22 103.5t9.5 84q0 41 -15.5 61t-45.5 20q-44 0 -84.5 -26t-75 -71t-60.5 -104t-40.5 -125t-14.5 -134q0 -37 12 -52q-30 -28 -63 -28z" />
    <glyph glyph-name="o" unicode="o" horiz-adv-x="725" 
d="M321 -25q-73 0 -127 32.5t-83.5 91.5t-29.5 139t25.5 146.5t72.5 114.5t111 74.5t141 26.5q21 0 39.5 -1.5t37.5 -6.5q7 -10 9.5 -21.5t3.5 -25.5q-102 0 -172.5 -41t-107 -111.5t-36.5 -161.5q0 -88 33 -138.5t94 -50.5q60 0 107 33.5t77.5 94t38.5 141.5
q-41 26 -59.5 57.5t-18.5 72.5q0 26 10.5 46t28.5 31.5t41 11.5q46 0 72 -41t26 -114q0 -84 -25.5 -156.5t-71.5 -127t-106.5 -85.5t-130.5 -31z" />
    <glyph glyph-name="p" unicode="p" horiz-adv-x="769" 
d="M311 0q-50 0 -95 8q-6 11 -9 22.5t-3 24.5q111 0 194 38.5t128.5 107.5t45.5 161q0 68 -28.5 106t-79.5 38q-52 0 -95 -48t-78 -140t-63 -224l24 381l52 -38q35 78 90 120.5t118 42.5q55 0 96 -29t63.5 -82t22.5 -124q0 -77 -29 -143.5t-81.5 -116t-122 -77.5t-150.5 -28
zM159 -200q-31 0 -47 20.5t-16 62.5q0 20 7.5 77.5t20.5 143t30 189t37 214.5l-44 50q24 20 56 31.5t59 11.5q29 0 40.5 -12.5t11.5 -42.5q0 -25 -10 -72.5t-25 -112.5t-30.5 -142t-25.5 -161t-10 -169q0 -19 6 -35.5t15 -24.5q-15 -13 -34 -20.5t-41 -7.5z" />
    <glyph glyph-name="q" unicode="q" horiz-adv-x="737" 
d="M477 -199q-28 0 -40 12.5t-12 42.5q0 31 16.5 100t35.5 161l-10 5q-36 -70 -90.5 -108.5t-118.5 -38.5q-54 0 -95 29t-64 82t-23 124q0 83 29.5 153.5t81.5 124t122 83t151 29.5q49 0 94 -8q6 -10 9 -22t3 -25q-87 0 -155 -25t-115.5 -70.5t-72 -105.5t-24.5 -131
q0 -68 28 -106t79 -38q47 0 90 34t78 97t55 150.5t20 194.5q14 17 32 23.5t32 6.5q25 0 39.5 -11.5t14.5 -33.5q0 -27 -11 -89t-29 -148.5t-39 -189t-40 -209.5l44 -50q-25 -20 -57 -31.5t-58 -11.5z" />
    <glyph glyph-name="r" unicode="r" horiz-adv-x="492" 
d="M171 -25q-34 0 -51 20t-17 63q0 21 7.5 69t20 112t28 132.5t31.5 128.5l-44 50q26 22 51.5 34.5t47.5 12.5q30 0 42 -16.5t12 -38.5q0 -34 -11.5 -71.5t-29.5 -81.5l10 -5q32 75 64.5 123t66 71t66.5 23q32 0 49 -14.5t17 -44.5q0 -34 -26 -53.5t-68 -19.5
q-40 0 -78.5 -35t-69.5 -94t-49 -133t-18 -152q0 -37 12 -52q-30 -28 -63 -28z" />
    <glyph glyph-name="s" unicode="s" horiz-adv-x="618" 
d="M267 -25q-65 0 -113 12t-74 35t-26 55q0 20 12 38t34 30q26 -50 68 -76.5t92 -26.5q47 0 83 11.5t56.5 35t20.5 58.5q0 27 -24 44.5t-61.5 31t-79.5 27.5t-79.5 34t-61.5 50.5t-24 76.5q0 42 21.5 76.5t61.5 60t95 39t121 13.5q80 0 131.5 -23.5t51.5 -61.5
q0 -37 -24.5 -56t-62.5 -19t-65 24.5t-41 69.5q-82 -9 -128.5 -39t-46.5 -71q0 -25 24 -42t61 -30.5t79.5 -28t79.5 -34.5t61 -50.5t24 -76.5q0 -39 -18 -73t-52.5 -59.5t-84 -40t-111.5 -14.5z" />
    <glyph glyph-name="t" unicode="t" horiz-adv-x="446" 
d="M210 -25q-18 0 -33 6.5t-24.5 25t-9.5 53.5q0 43 9.5 96t24 110t29 113t24 105.5t9.5 85.5q0 22 -3.5 44.5t-8.5 44.5q17 18 45 28.5t55 10.5q29 0 42 -13t13 -43q0 -28 -12 -73.5t-30 -103t-36 -123.5t-30 -136.5t-12 -140.5l32 -54q-19 -19 -41.5 -27.5t-42.5 -8.5z
M159 438q-26 0 -36.5 10t-10.5 29q0 11 3.5 23.5t12.5 25.5q17 -5 44 -7t47 -2q50 0 101.5 11t103.5 11q27 0 36.5 -10.5t9.5 -29.5q0 -10 -3.5 -22.5t-12.5 -24.5q-16 5 -42 7t-46 2q-49 0 -101.5 -11.5t-105.5 -11.5z" />
    <glyph glyph-name="u" unicode="u" horiz-adv-x="742" 
d="M256 -25q-82 0 -121 40t-39 122q0 44 7.5 92t17.5 96t17.5 91.5t7.5 79.5q0 22 -3 41.5t-8 35.5q20 12 42 19.5t36 7.5q29 0 42.5 -15t13.5 -50q0 -22 -6.5 -59.5t-15.5 -82.5l-18 -90t-15.5 -82t-6.5 -57q0 -57 24.5 -86t70.5 -29q59 0 109 43.5t78 119.5l-7 -152
l-35 18q-21 -30 -53 -53.5t-68 -36.5t-70 -13zM524 -25q-34 0 -50.5 23t-16.5 72q0 27 8.5 79t26.5 138t47 211l-41 60q14 12 33.5 21.5t40.5 15t39 5.5q30 0 42.5 -12.5t12.5 -42.5q0 -7 -6.5 -34.5t-16.5 -70t-21.5 -93t-22 -103.5t-17 -101.5t-6.5 -87.5q0 -38 17 -53
q-30 -27 -69 -27z" />
    <glyph glyph-name="v" unicode="v" horiz-adv-x="657" 
d="M258 -25q-46 0 -72.5 18.5t-37.5 63.5t-11 123q0 60 1 118t-2.5 110t-17 95t-42.5 72q32 25 71 25q42 0 64.5 -29t31.5 -96.5t9 -183.5v-107v-64.5v-36.5v-22h10q81 115 131 198.5t73 141t23 91.5q0 49 -21 83q26 14 43.5 19.5t36.5 5.5q26 0 41 -19.5t15 -54.5
q0 -30 -14.5 -74t-44.5 -103.5t-75 -134.5t-105 -166l15 -30q-12 -12 -32.5 -22t-44 -15.5t-45.5 -5.5z" />
    <glyph glyph-name="w" unicode="w" horiz-adv-x="914" 
d="M212 -25q-42 0 -57 26.5t-15 99.5q0 72 1 141.5t-3 132t-18 114t-44 86.5q32 25 71 25q42 0 64.5 -29t31.5 -96.5t9 -183.5v-107v-64.5v-36.5t-1 -22h10q66 83 108 156.5t64.5 129.5t31 89t8.5 36q0 11 -8 25t-17 27.5t-12 20.5q20 14 34.5 19.5t29.5 5.5q29 0 45.5 -19
t16.5 -53q0 -35 -13.5 -74.5t-39.5 -90t-64 -119.5q-40 -73 -71.5 -119.5t-58 -72.5t-51.5 -36.5t-52 -10.5zM558 -25q-37 0 -57 17.5t-28 49.5t-11 73l-31 429q12 13 30 19.5t39 6.5l26 -60l16 -449h10q70 115 112.5 198.5t62 141t19.5 91.5q0 49 -20 83q25 14 42.5 19.5
t37.5 5.5q26 0 40.5 -19.5t14.5 -54.5q0 -30 -12.5 -74t-38.5 -103.5t-64.5 -134.5t-91.5 -166l16 -30q-12 -12 -30.5 -22t-40 -15.5t-41.5 -5.5z" />
    <glyph glyph-name="x" unicode="x" horiz-adv-x="654" 
d="M515 -25q-25 0 -46 11t-40 36t-41 67l-180 327q-21 38 -40.5 61.5t-41 38.5t-49.5 25q17 29 43 44t54 15q26 0 47 -11t40.5 -36t40.5 -68l179 -326q21 -37 40.5 -61.5t41.5 -39.5t49 -25q-17 -28 -42.5 -43t-54.5 -15zM97 -25q-26 0 -42 18.5t-16 48.5q0 21 12 44.5
t44 54.5t90 74l126 98l34 -61q-99 -67 -141.5 -121t-42.5 -93q0 -11 2 -20.5t6 -17.5q-11 -10 -31 -17.5t-41 -7.5zM368 263l-34 61q99 68 142 121t43 92q0 12 -2 21.5t-6 16.5q11 11 31 18.5t40 7.5q27 0 43 -18.5t16 -49.5q0 -20 -12 -43.5t-43.5 -54.5t-90.5 -74z" />
    <glyph glyph-name="y" unicode="y" horiz-adv-x="666" 
d="M67 -200q-65 0 -95 22.5t-30 59.5q0 15 6.5 31t13.5 26q11 -12 26 -24.5t39.5 -21t62.5 -8.5q33 0 77.5 14t92.5 44t94.5 79.5t83.5 119.5t59.5 164t22.5 214v28.5t-2 26.5q23 14 38 19.5t32 5.5q21 0 36 -12.5t15 -47.5q0 -77 -17.5 -161.5t-52 -167.5t-84 -157
t-113 -131t-140 -90t-165.5 -33zM328 -25q-65 0 -102.5 26t-55 70t-23 99t-6.5 114t-4.5 115.5t-16.5 102t-44 73.5q32 25 69 25q44 0 67.5 -24.5t33 -66t11.5 -93t1.5 -106.5t2.5 -106.5t15.5 -93t40 -66t76.5 -24.5z" />
    <glyph glyph-name="z" unicode="z" horiz-adv-x="602" 
d="M217 76l-106 21l263 374l137 25zM410 -25q-62 0 -115 15t-110 35q-25 -23 -46.5 -33t-46.5 -10q-28 0 -43 18.5t-15 41.5q0 22 13 42t39 33.5t65 13.5q23 0 56.5 -9t71 -21t72 -21t59.5 -9l100 53q9 -15 15 -30.5t6 -32.5q0 -25 -16.5 -44.5t-44 -30.5t-60.5 -11z
M322 447q-80 1 -129 11t-71.5 32.5t-22.5 59.5q0 10 2.5 22.5t8.5 32.5q33 -14 73 -27t80.5 -23.5t75.5 -17t58 -7.5q14 32 41 51t56 19q32 0 50.5 -15t18.5 -43q0 -22 -13.5 -40t-42 -30t-74.5 -18.5t-111 -6.5z" />
    <glyph glyph-name="braceleft" unicode="{" horiz-adv-x="357" 
d="M147 -156q-52 0 -78 29.5t-26 88.5q0 41 9.5 98t28.5 121t49 127q-10 -3 -22 -3q-18 0 -32 11.5t-14 30.5q0 16 13 27.5t31 11.5q21 0 34 -12q1 29 1.5 68.5t1 79.5t0.5 69q0 72 13.5 114t36 62.5t50.5 26.5t56 6q48 0 75 -17t27 -51v-14.5t-2 -18.5q-7 3 -29 6t-46 4.5
t-39 1.5q-12 -94 -24.5 -156t-27 -102t-32 -65.5t-38.5 -46.5q21 -24 33 -57.5t12 -70.5q0 -6 -1.5 -19t-5.5 -43t-13.5 -83t-26.5 -138q16 0 38.5 2t42.5 5t26 5q3 -9 4.5 -19.5t1.5 -15.5q0 -29 -31 -46t-96 -17z" />
    <glyph glyph-name="bar" unicode="|" horiz-adv-x="447" 
d="M121 -180q-28 0 -39.5 13.5t-11.5 44.5l203 904l-12 71q19 14 42.5 20.5t42.5 6.5q27 0 39 -13t12 -45l-203 -904l12 -71q-19 -13 -42.5 -20t-42.5 -7z" />
    <glyph glyph-name="braceright" unicode="}" horiz-adv-x="357" 
d="M221 800q53 0 78.5 -29.5t25.5 -88.5q0 -41 -9 -98t-28.5 -121t-49.5 -127q11 3 22 3q18 0 32 -11.5t14 -30.5q0 -16 -13 -27.5t-31 -11.5q-20 0 -34 12q-1 -29 -1.5 -68.5l-1 -79t-0.5 -69.5q0 -72 -13.5 -114t-36 -62.5t-50 -26.5t-56.5 -6q-48 0 -75 17t-27 51
q0 6 0.5 14.5t1.5 18.5q8 -3 29.5 -5.5t46 -4.5t38.5 -2q12 94 24.5 156t27 102t32 65.5t38.5 46.5q-21 24 -33 57.5t-12 70.5q0 6 1.5 19t5.5 43t14 83t26 138q-15 0 -38 -2t-42.5 -4.5t-26.5 -5.5q-3 9 -4.5 19.5t-1.5 15.5q0 29 31.5 46t95.5 17z" />
    <glyph glyph-name="asciitilde" unicode="~" horiz-adv-x="712" 
d="M187 287q-30 0 -42 10t-12 40q0 12 5 28.5t13 36.5q57 0 117 8.5t115.5 20t99.5 20t69 8.5q31 0 42.5 -10t11.5 -40q0 -12 -5 -28.5t-13 -36.5q-56 0 -116 -8.5t-116 -20t-100 -20t-69 -8.5z" />
    <glyph glyph-name="uni00A0" unicode="&#xa0;" horiz-adv-x="324" 
 />
    <glyph glyph-name="exclamdown" unicode="&#xa1;" horiz-adv-x="364" 
d="M220 326q23 0 31 -13t8 -34q0 -19 -5.5 -53t-13 -75.5t-15 -85t-13 -82.5t-5.5 -67q0 -19 3.5 -42.5t15.5 -37.5q-19 -18 -44.5 -27t-55.5 -9q-41 0 -58.5 24.5t-17.5 61.5q0 21 8 61t21.5 89.5t29 100.5t30.5 95t26 72q12 11 28 16.5t27 5.5zM263 600q30 0 50.5 -20
t20.5 -49q0 -22 -10.5 -41.5t-29 -31t-43.5 -11.5q-31 0 -51 20t-20 49q0 22 11 41t30 31t42 12z" />
    <glyph glyph-name="cent" unicode="&#xa2;" horiz-adv-x="568" 
d="M290 74q-100 0 -156.5 55.5t-56.5 154.5q0 69 24.5 128t69 102t103 67t125.5 24q57 0 90 -18.5t33 -50.5q0 -27 -20 -45t-52 -18q-31 0 -59.5 14.5t-46.5 48.5q-44 -18 -79 -55.5t-55 -89t-20 -112.5q0 -68 27 -106.5t73 -38.5q38 0 67 18t46 48.5t18 68.5q35 0 55 -13
t20 -42q0 -38 -28 -70t-74.5 -51t-103.5 -19zM242 -72q-14 0 -28.5 3.5t-27.5 10.5q11 38 21.5 79t21.5 86h95q-5 -28 -10.5 -57.5t-10.5 -59.5q-12 -59 -61 -62zM330 570q9 38 18 77.5t18 80.5q15 58 64 58q14 0 28.5 -4t25.5 -12q-15 -45 -30 -95t-30 -105h-94z" />
    <glyph glyph-name="sterling" unicode="&#xa3;" horiz-adv-x="606" 
d="M444 -30q-33 0 -66.5 5.5t-76 19t-104.5 38.5q-29 -30 -52.5 -42.5t-50.5 -12.5t-45 18t-18 44q0 42 34 69.5t88 27.5q24 0 61.5 -10.5t80 -23.5t82 -23.5t67.5 -10.5l109 60q14 -22 20 -37t6 -29q0 -26 -18 -47.5t-48.5 -33.5t-68.5 -12zM141 73l37 397q12 126 72 177.5
t166 51.5q86 0 135.5 -24.5t49.5 -74.5q0 -12 -3 -25.5t-10 -31.5q-43 22 -113.5 34.5t-150.5 12.5l-92 -516zM125 297q-28 0 -38.5 9.5t-10.5 27.5q0 9 3.5 21.5t13.5 24.5q18 -6 46 -7.5t51 -1.5q52 0 106 10t110 10q28 0 37.5 -9.5t9.5 -26.5q0 -11 -2.5 -22.5
t-12.5 -23.5q-17 5 -45 7t-48 2q-36 0 -72 -5.5t-73.5 -10.5t-74.5 -5z" />
    <glyph glyph-name="currency" unicode="&#xa4;" horiz-adv-x="653" 
d="M311 132q-89 0 -139 50.5t-50 129.5q0 68 34 119t94 79.5t139 28.5q80 0 123.5 -50t43.5 -130q0 -42 -17.5 -82.5t-50.5 -73t-78 -52t-99 -19.5zM116 20q-12 0 -25 5.5t-24.5 14.5t-19.5 19q34 44 70.5 92.5t73.5 102.5l69 -59q-21 -33 -42.5 -66.5t-44.5 -70.5
q-13 -19 -26.5 -28.5t-30.5 -9.5zM458 20q-30 0 -50 38q-17 37 -34 70.5t-33 66.5l95 32q26 -46 50.5 -88t46.5 -80q-9 -10 -22 -19t-27 -14.5t-26 -5.5zM312 210q46 0 75.5 24.5t44 63t14.5 80.5q0 23 -8 42t-29.5 30t-63.5 11q-10 0 -20 -0.5t-21 -1.5q-37 -34 -54.5 -75
t-17.5 -77q0 -40 20.5 -68.5t59.5 -28.5zM240 441q-20 37 -35.5 64t-30.5 52t-34 55q10 11 23 19.5t27.5 14t25.5 5.5q31 0 50 -37q12 -24 19.5 -40.5t15 -32t17.5 -37.5zM497 444l-89 32q21 33 43 67t45 71q25 37 56 37q12 0 25 -5.5t25 -14t19 -19.5q-28 -37 -60 -79
t-64 -89z" />
    <glyph glyph-name="yen" unicode="&#xa5;" horiz-adv-x="628" 
d="M320 221q-52 0 -74 33.5t-29 117.5q-6 64 -15.5 122t-29 105t-57.5 76q34 25 77 25t69.5 -29.5t42 -82t24.5 -122.5t16 -152h5q31 30 59 69t50 79.5t34.5 78t12.5 65.5q0 39 -26 69q29 15 47.5 20t35.5 5q29 0 45.5 -18t16.5 -48q0 -46 -20.5 -101.5t-54 -110.5
t-74 -100.5t-81 -73t-74.5 -27.5zM142 177q-28 0 -38 9t-10 28q0 9 3 21t13 25q18 -6 46.5 -7.5t49.5 -1.5q20 0 41.5 2t42.5 5l-6 -66q-34 -4 -70 -9.5t-72 -5.5zM290 -25q-32 0 -47 17.5t-15 57.5q0 24 5.5 57t17.5 82t31 121h125q-22 -88 -36 -146t-14 -102
q0 -20 3.5 -34t12.5 -27q-24 -13 -43.5 -19.5t-39.5 -6.5zM165 313q-28 0 -38 9t-10 28q0 9 3 21t13 25q18 -6 46.5 -7.5t50.5 -1.5q18 0 36.5 2t37.5 3l-7 -65q-32 -4 -65 -9t-67 -5zM548 189q-17 5 -44.5 6.5t-47.5 1.5q-24 0 -50 -1.5t-53 -3.5l7 66q38 5 77 9.5t79 4.5
q29 0 39 -10t10 -27q0 -10 -3 -22t-14 -24zM570 325q-17 5 -44.5 6.5t-48.5 1.5h-33.5t-35.5 -1l21 65q27 5 54.5 8t54.5 3q29 0 39 -10t10 -27q0 -10 -3.5 -22t-13.5 -24z" />
    <glyph glyph-name="brokenbar" unicode="&#xa6;" horiz-adv-x="447" 
d="M202 465l71 317l-12 71q19 14 42.5 20.5t42.5 6.5q27 0 39 -13t12 -45l-80 -357h-115zM121 -180q-28 0 -39.5 13.5t-11.5 44.5l80 358h115l-71 -318l12 -71q-19 -13 -42.5 -20t-42.5 -7z" />
    <glyph glyph-name="section" unicode="&#xa7;" horiz-adv-x="708" 
d="M446 93l-87 66q62 17 96 46.5t34 69.5q0 31 -25.5 51.5t-66.5 37t-86 34t-86 41.5t-66.5 60t-25.5 90q0 42 19.5 79t57 66t92 45t124.5 16t122.5 -14t82 -41.5t29.5 -66.5q0 -22 -11 -41.5t-30 -31.5q-28 60 -78 91t-109 31q-75 0 -124 -27.5t-49 -83.5q0 -33 26 -54.5
t66.5 -38.5t86 -34.5t86 -41.5t66.5 -60.5t26 -92.5q0 -43 -20.5 -81t-58.5 -67t-91 -48zM286 -187q-70 0 -122.5 14.5t-82 41.5t-29.5 66q0 22 11.5 41.5t30.5 31.5q29 -60 78.5 -91t107.5 -31q75 0 124.5 28t49.5 83q0 33 -26 54.5t-66.5 38.5t-86.5 34.5t-86.5 41.5
t-66.5 61t-26 92q0 40 16.5 74.5t48.5 62.5t76 48l110 -56q-59 -17 -91.5 -47t-32.5 -68q0 -31 25.5 -51.5t66.5 -36.5t86 -33.5t86 -41.5t66.5 -60.5t25.5 -90.5q0 -42 -19.5 -79t-57 -66t-92 -45t-124.5 -16z" />
    <glyph glyph-name="dieresis" unicode="&#xa8;" horiz-adv-x="600" 
d="M470 685q-30 0 -48 16t-18 41q0 20 10.5 37t29.5 27.5t44 10.5q29 0 46.5 -15.5t17.5 -40.5q0 -32 -23.5 -54t-58.5 -22zM206 685q-29 0 -46 16t-17 41q0 20 10.5 37t29 27.5t42.5 10.5q30 0 48 -15.5t18 -40.5q0 -21 -11 -38.5t-30 -27.5t-44 -10z" />
    <glyph glyph-name="copyright" unicode="&#xa9;" horiz-adv-x="896" 
d="M424 150q-65 0 -125.5 21.5t-109 64t-76.5 107t-28 150.5q0 121 56.5 211.5t158 141t237.5 50.5q47 0 70 -8.5t32 -26t11 -43.5q83 -45 122 -118.5t39 -153.5q0 -98 -33.5 -172t-89.5 -124t-124.5 -75t-139.5 -25zM423 213q78 0 139.5 28t105 75.5t66 106.5t22.5 120
q0 47 -17 95t-51 88t-86 64.5t-122 24.5q-91 0 -165 -36t-117.5 -107.5t-43.5 -177.5q0 -96 37.5 -158.5t99 -92.5t132.5 -30zM433 321q-68 0 -106.5 39.5t-38.5 111.5q0 53 17.5 98t48.5 78.5t72.5 52t88.5 18.5q38 0 60 -12t22 -34q0 -19 -14.5 -31t-35.5 -12t-40.5 9
t-31.5 35q-35 -15 -62 -45t-42.5 -71.5t-15.5 -89.5q0 -52 20.5 -81t55.5 -29q28 0 49 13.5t33.5 37t14.5 52.5q20 0 31.5 -8t11.5 -28q0 -29 -19 -52.5t-50.5 -37.5t-68.5 -14z" />
    <glyph glyph-name="ordfeminine" unicode="&#xaa;" horiz-adv-x="535" 
d="M205 333q-55 0 -89.5 43.5t-34.5 114.5q0 81 37.5 144t99.5 99t137 36q31 0 61 -6q4 -8 6 -19t2 -23q-79 0 -131.5 -28.5t-78.5 -76.5t-26 -108q0 -42 18 -65t49 -23q60 0 97.5 75t55.5 226q25 31 64 31q43 0 43 -42q0 -21 -7.5 -54.5t-17.5 -75t-17.5 -87t-7.5 -89.5
q0 -15 4 -27.5t12 -18.5q-16 -13 -31.5 -19.5t-32.5 -6.5q-29 0 -44.5 17.5t-15.5 48.5q0 8 1.5 16.5t2.5 18.5l-7 3q-25 -49 -64 -76.5t-85 -27.5z" />
    <glyph glyph-name="guillemotleft" unicode="&#xab;" horiz-adv-x="629" 
d="M471 25q-26 32 -54.5 70t-53.5 75t-40.5 68t-15.5 50q0 24 10.5 46t36 49.5t71.5 67t117 98.5q5 0 18 -4.5t24 -16t11 -33.5q0 -20 -18 -42.5t-49 -47t-70.5 -51t-83.5 -54.5q53 -53 88.5 -90t53.5 -66t18 -59q0 -20 -7 -33.5t-21 -20t-35 -6.5zM219 25q-26 32 -54.5 70
t-53.5 75t-40.5 68t-15.5 50q0 24 10.5 46t36 49.5t71.5 67t117 98.5q5 0 18 -4.5t24 -16t11 -33.5q0 -20 -18 -42.5t-49 -47t-70 -51t-82 -54.5q52 -53 87.5 -90t53.5 -66t18 -59q0 -20 -7.5 -33.5t-21.5 -20t-35 -6.5z" />
    <glyph glyph-name="logicalnot" unicode="&#xac;" horiz-adv-x="706" 
d="M475 86q-22 0 -28.5 13.5t-0.5 48.5l43 283l108 -40l-43 -287q-25 -8 -45 -13t-34 -5zM198 315q-35 0 -48.5 9t-13.5 31q0 14 5 33t13 42h381q35 0 48.5 -8t13.5 -31l-18 -76h-381z" />
    <glyph glyph-name="uni00AD" unicode="&#xad;" horiz-adv-x="505" 
d="M115 231q-21 0 -34.5 10.5t-13.5 40.5t18 63q13 -2 23.5 -3t22.5 -1q36 0 69.5 5.5t65 13.5t63.5 13.5t66 5.5q21 0 35 -10.5t14 -39.5q0 -13 -4.5 -29.5t-14.5 -33.5q-12 2 -22.5 3t-22.5 1q-37 0 -70 -6t-64.5 -13.5t-63.5 -13.5t-67 -6z" />
    <glyph glyph-name="registered" unicode="&#xae;" horiz-adv-x="896" 
d="M424 150q-65 0 -125.5 21.5t-109 64t-76.5 107t-28 150.5q0 121 56.5 211.5t158 141t237.5 50.5q47 0 70 -8.5t32 -26t11 -43.5q83 -45 122 -118.5t39 -153.5q0 -98 -33.5 -172t-89.5 -124t-124.5 -75t-139.5 -25zM423 213q78 0 139.5 28t105 75.5t66 106.5t22.5 120
q0 47 -17 95t-51 88t-86 64.5t-122 24.5q-91 0 -165 -36t-117.5 -107.5t-43.5 -177.5q0 -96 37.5 -158.5t99 -92.5t132.5 -30zM449 465q-30 0 -52 7t-45 27l12 25q13 -10 29.5 -14t32.5 -4q35 0 60.5 12t39 33.5t13.5 48.5q0 19 -7.5 36.5t-25 28t-46.5 10.5
q-21 0 -42.5 -9.5t-44.5 -27.5v22q16 17 32.5 30t37.5 20.5t51 7.5q36 0 61 -15.5t38 -41t13 -54.5q0 -25 -9.5 -50t-29 -46t-49 -33.5t-69.5 -12.5zM340 320q-20 0 -29 10t-9 33q0 16 2 38t6.5 56t12.5 84.5t20 122.5l-16 33q17 10 33 16t30 6q23 0 23 -28q0 -5 -3 -25
t-8.5 -50t-11 -64t-11 -67t-8.5 -60.5t-3 -43.5t3 -27.5t10 -19.5q-21 -14 -41 -14zM566 321q-16 0 -27.5 7t-23 26.5t-28.5 56.5l-33 73l57 23q17 -39 34.5 -73t34.5 -59t30 -37q-4 -5 -12 -8.5t-16.5 -6t-15.5 -2.5z" />
    <glyph glyph-name="macron" unicode="&#xaf;" horiz-adv-x="600" 
d="M150 703q-43 0 -43 47q0 15 7.5 39t15.5 38q11 -5 29.5 -8.5t33.5 -3.5q44 0 90.5 4t94.5 4q69 0 69 -47q0 -15 -2.5 -28.5t-10.5 -32.5q-8 4 -27 6.5t-38 2.5q-52 0 -110.5 -10.5t-108.5 -10.5z" />
    <glyph glyph-name="degree" unicode="&#xb0;" horiz-adv-x="493" 
d="M262 258q-82 0 -130 49t-48 132q0 69 32 121.5t89 82t131 29.5q13 0 28 -2.5t25 -6.5q3 -3 4 -10t2 -17q46 -11 69 -47.5t23 -96.5q0 -66 -30 -119t-80.5 -84t-114.5 -31zM267 322q34 0 60 21.5t41.5 58t15.5 83.5q0 107 -96 107q-11 0 -22 -2t-23 -6
q-27 -30 -41.5 -72.5t-14.5 -81.5q0 -50 22 -79t58 -29z" />
    <glyph glyph-name="plusminus" unicode="&#xb1;" horiz-adv-x="707" 
d="M313 142q-22 0 -28.5 13.5t-0.5 48.5l61 381q50 18 78 18q23 0 28.5 -13.5t0.5 -48.5l-60 -381q-25 -8 -44.5 -13t-34.5 -5zM199 315q-35 0 -48.5 9t-13.5 31q0 14 5 33t13 42h381q35 0 48.5 -8t13.5 -31q0 -29 -18 -76h-381zM126 -139q-35 0 -48.5 9t-13.5 31q0 14 5 33
t13 42h381q35 0 48.5 -8t13.5 -31q0 -29 -18 -76h-381z" />
    <glyph glyph-name="uni00B2" unicode="&#xb2;" horiz-adv-x="453" 
d="M179 336l-65 28q70 34 114.5 69.5t66 69.5t21.5 64q0 35 -17 53.5t-50 18.5q-34 0 -59.5 -25.5t-30.5 -71.5q-27 3 -42 18.5t-15 40.5q0 50 46.5 79.5t121.5 29.5q44 0 77.5 -16.5t52.5 -45.5t19 -66q0 -41 -23.5 -79t-76.5 -78t-140 -89zM115 272q-22 0 -37 14.5
t-15 36.5q0 31 25.5 51.5t65.5 20.5q17 0 42 -7t52.5 -16.5t53 -16.5t43.5 -7l82 45q9 -16 12.5 -28.5t3.5 -23.5q0 -29 -28.5 -49t-69.5 -20q-36 0 -71 10t-87 26q-39 -36 -72 -36z" />
    <glyph glyph-name="uni00B3" unicode="&#xb3;" horiz-adv-x="424" 
d="M190 272q-58 0 -91 16t-33 44q0 20 13.5 33.5t34.5 13.5q20 0 39.5 -15.5t33.5 -42.5q48 0 77 20t29 53q0 32 -30 52t-79 20v38q50 0 84 21.5t34 52.5q0 29 -18.5 45t-51.5 16q-31 0 -54 -22t-30 -60q-25 3 -38.5 16.5t-13.5 35.5q0 45 41 73t108 28q65 0 105 -30t40 -81
q0 -38 -23 -67t-65 -43q41 -15 62 -39t21 -56q0 -36 -25 -63.5t-69 -43t-101 -15.5z" />
    <glyph glyph-name="acute" unicode="&#xb4;" horiz-adv-x="600" 
d="M126 671q-13 0 -22.5 12.5t-14.5 37.5q50 19 85 41t61.5 42.5t49.5 33.5t49 13q54 0 54 -61q0 -16 -2 -29.5t-7 -24.5q-43 0 -81.5 -10t-72 -22.5t-58.5 -22.5t-41 -10z" />
    <glyph glyph-name="uni03BC" unicode="&#xb5;" horiz-adv-x="742" 
d="M126 -200q-30 0 -46 20.5t-16 62.5q0 20 7.5 77.5t20.5 143t30 189t37 214.5l-44 50q23 20 55.5 31.5t59.5 11.5q28 0 40 -12.5t12 -42.5q0 -17 -7.5 -56t-18.5 -89t-22.5 -100.5t-19 -92.5t-7.5 -65q0 -93 95 -93q59 0 109 43.5t78 119.5l-7 -152l-35 18
q-13 -31 -44 -54.5t-70 -33.5t-78.5 -1.5t-70.5 41.5q-13 -85 -6.5 -132t23.5 -70q-14 -13 -33.5 -20.5t-41.5 -7.5zM524 -25q-34 0 -50.5 23t-16.5 72q0 27 8.5 79t26.5 138t47 211l-41 60q14 12 33.5 21.5t40.5 15t39 5.5q30 0 42.5 -12.5t12.5 -42.5q0 -7 -6.5 -34.5
t-16.5 -70t-21.5 -93t-22 -103.5t-17 -101.5t-6.5 -87.5q0 -38 17 -53q-30 -27 -69 -27z" />
    <glyph glyph-name="paragraph" unicode="&#xb6;" horiz-adv-x="589" 
d="M353 -98q-46 0 -64.5 28t-18.5 71q0 35 11.5 85t32 109.5t48.5 124.5t61 131h-20q-34 -58 -75.5 -86.5t-93.5 -28.5q-48 0 -80 22t-48 57.5t-16 77.5t15.5 84.5t46.5 78t78 57t109 21.5q29 0 63 -8t65 -28t51 -56.5t20 -93.5q0 -47 -16.5 -110.5t-38.5 -137.5t-38.5 -153
t-16.5 -157q0 -18 5 -33t15 -24q-24 -16 -49.5 -23.5t-45.5 -7.5z" />
    <glyph glyph-name="periodcentered" unicode="&#xb7;" horiz-adv-x="333" 
d="M141 220q-30 0 -50.5 20.5t-20.5 48.5q0 23 10.5 42t29 30.5t43.5 11.5q31 0 51 -20t20 -49q0 -22 -11 -41t-30 -31t-42 -12z" />
    <glyph glyph-name="cedilla" unicode="&#xb8;" horiz-adv-x="600" 
d="M150 -287q-56 0 -89.5 23t-33.5 61q0 24 17 43.5t46 30.5t64 11q-21 -11 -33.5 -30t-12.5 -41q0 -23 12.5 -34t37.5 -11q33 0 56 22.5t23 54.5q0 80 -83 118q83 0 130.5 -31.5t47.5 -87.5q0 -36 -24 -65t-65 -46.5t-93 -17.5z" />
    <glyph glyph-name="uni00B9" unicode="&#xb9;" horiz-adv-x="346" 
d="M191 272q-30 0 -45 15.5t-15 46.5q0 20 4.5 54t11 73t13.5 74.5t13 59.5q-14 0 -29 8.5t-26 24t-15 36.5q45 8 73 19t48 19t38 8q35 0 35 -38q0 -19 -9 -56.5t-20 -83.5t-20 -92.5t-9 -84.5q0 -19 2.5 -35.5t8.5 -29.5q-31 -18 -59 -18z" />
    <glyph glyph-name="ordmasculine" unicode="&#xba;" horiz-adv-x="500" 
d="M265 333q-82 0 -131 50.5t-49 135.5q0 74 32.5 130.5t89.5 88.5t130 32q15 0 26.5 -1t23.5 -4q4 -9 5.5 -20.5t1.5 -25.5q-61 1 -106.5 -24.5t-70.5 -72t-25 -108.5q0 -60 23.5 -92t66.5 -32q57 0 93 45.5t36 120.5q0 44 -10.5 76.5t-31.5 57.5q10 14 25 21.5t31 7.5
q33 0 54 -32t21 -85q0 -77 -28.5 -138t-81.5 -96t-125 -35z" />
    <glyph glyph-name="guillemotright" unicode="&#xbb;" horiz-adv-x="652" 
d="M182 560q26 -32 54.5 -70t53.5 -75t40.5 -68t15.5 -50q0 -24 -10.5 -46t-36 -49.5t-71.5 -67t-117 -98.5q-5 0 -18 4.5t-24 16t-11 33.5q0 20 18 42.5t49 47t71 51t83 54.5q-53 53 -88.5 90t-53.5 66.5t-18 58.5q0 21 7 34t21.5 19.5t34.5 6.5zM434 560q26 -32 54.5 -70
t53.5 -75t40.5 -68t15.5 -50q0 -24 -10.5 -46t-36 -49.5t-71.5 -67t-117 -98.5q-5 0 -18 4.5t-24 16t-11 33.5q0 20 18 42.5t49 47t70 51t82 54.5q-52 53 -87.5 90t-53.5 66.5t-18 58.5q0 21 7.5 34t22 19.5t34.5 6.5z" />
    <glyph glyph-name="onequarter" unicode="&#xbc;" horiz-adv-x="1002" 
d="M191 272q-30 0 -45 15.5t-15 46.5q0 20 4.5 54t11 73t13.5 74.5t13 59.5q-14 0 -29 8.5t-26 24t-15 36.5q45 8 73 19t48 19t38 8q35 0 35 -38q0 -19 -9 -56.5t-20 -83.5t-20 -92.5t-9 -84.5q0 -19 2.5 -35.5t8.5 -29.5q-31 -18 -59 -18zM297 -40q-14 0 -27.5 4.5
t-23.5 11.5q50 95 105 207t117.5 249t132.5 306q23 58 74 58q14 0 27.5 -4t23.5 -12q-73 -133 -158.5 -320.5t-195.5 -441.5q-26 -58 -75 -58zM663 35q-53 0 -80 16t-27 47q0 17 15.5 42t37.5 54.5t44.5 60.5t38 61.5t15.5 56.5q0 14 -6 30q14 6 29 9t27 3q60 0 60 -72
q0 -47 -46 -106t-139 -134h227l-23 -47q-34 -8 -83 -14.5t-90 -6.5zM854 -23q-30 0 -46 19.5t-16 53.5q0 22 9 61.5t25 85.5t35 87q13 8 31 14.5t32 6.5q16 0 21.5 -3.5t5.5 -14.5q0 -16 -11.5 -53t-22.5 -85t-11 -97q0 -12 3 -27.5t8 -28.5q-19 -10 -33 -14.5t-30 -4.5z
" />
    <glyph glyph-name="onehalf" unicode="&#xbd;" horiz-adv-x="1049" 
d="M191 272q-30 0 -45 15.5t-15 46.5q0 20 4.5 54t11 73t13.5 74.5t13 59.5q-14 0 -29 8.5t-26 24t-15 36.5q45 8 73 19t48 19t38 8q35 0 35 -38q0 -19 -9 -56.5t-20 -83.5t-20 -92.5t-9 -84.5q0 -19 2.5 -35.5t8.5 -29.5q-31 -18 -59 -18zM297 -40q-14 0 -27.5 4.5
t-23.5 11.5q50 95 105 207t117.5 249t132.5 306q23 58 74 58q14 0 27.5 -4t23.5 -12q-73 -133 -158.5 -320.5t-195.5 -441.5q-26 -58 -75 -58zM712 41l-65 28q70 34 114.5 69.5t66 69.5t21.5 64q0 35 -17 53.5t-50 18.5q-34 0 -59.5 -25.5t-30.5 -71.5q-27 3 -42 18.5
t-15 40.5q0 50 46.5 79.5t121.5 29.5q44 0 77.5 -16.5t52.5 -45.5t19 -66q0 -41 -23.5 -79t-76.5 -78t-140 -89zM648 -23q-22 0 -37 14.5t-15 36.5q0 31 25.5 51.5t65.5 20.5q17 0 42 -7t52.5 -16.5t53 -16.5t43.5 -7l82 45q9 -16 12.5 -28.5t3.5 -23.5q0 -29 -28.5 -49
t-69.5 -20q-36 0 -71 10t-87 26q-39 -36 -72 -36z" />
    <glyph glyph-name="threequarters" unicode="&#xbe;" horiz-adv-x="1080" 
d="M190 272q-58 0 -91 16t-33 44q0 20 13.5 33.5t34.5 13.5q20 0 39.5 -15.5t33.5 -42.5q48 0 77 20t29 53q0 32 -30 52t-79 20v38q50 0 84 21.5t34 52.5q0 29 -18.5 45t-51.5 16q-31 0 -54 -22t-30 -60q-25 3 -38.5 16.5t-13.5 35.5q0 45 41 73t108 28q65 0 105 -30t40 -81
q0 -38 -23 -67t-65 -43q41 -15 62 -39t21 -56q0 -36 -25 -63.5t-69 -43t-101 -15.5zM375 -40q-14 0 -27.5 4.5t-23.5 11.5q50 95 105 207t117.5 249t132.5 306q23 58 74 58q14 0 27.5 -4t23.5 -12q-73 -133 -158.5 -320.5t-195.5 -441.5q-26 -58 -75 -58zM741 35
q-53 0 -80 16t-27 47q0 17 15.5 42t37.5 54.5t44.5 60.5t38 61.5t15.5 56.5q0 14 -6 30q14 6 29 9t27 3q60 0 60 -72q0 -47 -46 -106t-139 -134h227l-23 -47q-34 -8 -83 -14.5t-90 -6.5zM932 -23q-30 0 -46 19.5t-16 53.5q0 22 9 61.5t25 85.5t35 87q13 8 31 14.5t32 6.5
q16 0 21.5 -3.5t5.5 -14.5q0 -16 -11.5 -53t-22.5 -85t-11 -97q0 -12 3 -27.5t8 -28.5q-19 -10 -33 -14.5t-30 -4.5z" />
    <glyph glyph-name="questiondown" unicode="&#xbf;" horiz-adv-x="599" 
d="M249 334q32 0 52 -18t20 -47q-42 -3 -80.5 -21t-69 -48.5t-48 -70.5t-17.5 -88q0 -59 31.5 -96t89.5 -37q36 0 71.5 18t63 54.5t38.5 93.5q22 0 35.5 -8.5t20 -24.5t6.5 -37q0 -24 -12.5 -58.5t-41.5 -67.5t-78 -55.5t-123 -22.5q-86 0 -138 34t-75 87.5t-23 111.5
q0 66 24.5 121.5t65.5 95.5t90 62t98 22zM319 600q30 0 50.5 -20t20.5 -49q0 -22 -10.5 -41.5t-29 -31t-43.5 -11.5q-31 0 -51 20t-20 49q0 22 11 41t30 31t42 12z" />
    <glyph glyph-name="Agrave" unicode="&#xc0;" horiz-adv-x="693" 
d="M101 -24q-57 0 -57 83q0 39 18 96t53.5 132.5t89 168t124.5 200.5l-31 42q29 18 54.5 26t54.5 8q41 0 51 -20q24 20 52 20q30 0 45 -20t15 -64q0 -46 -1 -104.5t-0.5 -123.5t3.5 -129t10.5 -121t22 -101t36.5 -67q-33 -26 -77 -26q-35 0 -58 18.5t-36.5 62t-19 118
t-5.5 186.5v164.5t1 108.5h-12q-92 -137 -150.5 -242t-86.5 -180.5t-28 -123.5q0 -54 14 -86q-17 -13 -37 -19.5t-45 -6.5zM144 187l15 71h346l-13 -71h-348zM558 806q-16 0 -41 10t-58.5 23t-72 23t-81.5 10q-4 11 -6.5 24.5t-2.5 29.5q0 61 54 61q26 0 49 -13t49.5 -33.5
t61.5 -42.5t85 -41q-4 -25 -13.5 -38t-23.5 -13z" />
    <glyph glyph-name="Aacute" unicode="&#xc1;" horiz-adv-x="693" 
d="M101 -24q-57 0 -57 83q0 39 18 96t53.5 132.5t89 168t124.5 200.5l-31 42q29 18 54.5 26t54.5 8q41 0 51 -20q24 20 52 20q30 0 45 -20t15 -64q0 -46 -1 -104.5t-0.5 -123.5t3.5 -129t10.5 -121t22 -101t36.5 -67q-33 -26 -77 -26q-35 0 -58 18.5t-36.5 62t-19 118
t-5.5 186.5v164.5t1 108.5h-12q-92 -137 -150.5 -242t-86.5 -180.5t-28 -123.5q0 -54 14 -86q-17 -13 -37 -19.5t-45 -6.5zM144 187l15 71h346l-13 -71h-348zM366 806q-13 0 -22.5 12.5t-14.5 37.5q50 19 85 41t61.5 42.5t49.5 33.5t49 13q54 0 54 -61q0 -16 -2 -29.5
t-7 -24.5q-43 0 -81.5 -10t-72 -22.5t-58.5 -22.5t-41 -10z" />
    <glyph glyph-name="Acircumflex" unicode="&#xc2;" horiz-adv-x="693" 
d="M101 -24q-57 0 -57 83q0 39 18 96t53.5 132.5t89 168t124.5 200.5l-31 42q29 18 54.5 26t54.5 8q41 0 51 -20q24 20 52 20q30 0 45 -20t15 -64q0 -46 -1 -104.5t-0.5 -123.5t3.5 -129t10.5 -121t22 -101t36.5 -67q-33 -26 -77 -26q-35 0 -58 18.5t-36.5 62t-19 118
t-5.5 186.5v164.5t1 108.5h-12q-92 -137 -150.5 -242t-86.5 -180.5t-28 -123.5q0 -54 14 -86q-17 -13 -37 -19.5t-45 -6.5zM144 187l15 71h346l-13 -71h-348zM370 799q-21 0 -32 8.5t-11 20.5q0 26 17 57.5t42 62t48 50.5q18 11 37.5 18t54.5 7q28 0 48.5 -12t21.5 -41
l4 -87q1 -25 9.5 -40.5t20.5 -24.5q-18 -10 -34 -14.5t-35 -4.5q-25 0 -41 11.5t-16 45.5q0 32 2.5 62t9.5 55h-15q-17 -16 -31 -41t-21.5 -55t-6.5 -60q-7 -7 -27 -12.5t-45 -5.5z" />
    <glyph glyph-name="Atilde" unicode="&#xc3;" horiz-adv-x="693" 
d="M101 -24q-57 0 -57 83q0 39 18 96t53.5 132.5t89 168t124.5 200.5l-31 42q29 18 54.5 26t54.5 8q41 0 51 -20q24 20 52 20q30 0 45 -20t15 -64q0 -46 -1 -104.5t-0.5 -123.5t3.5 -129t10.5 -121t22 -101t36.5 -67q-33 -26 -77 -26q-35 0 -58 18.5t-36.5 62t-19 118
t-5.5 186.5v164.5t1 108.5h-12q-92 -137 -150.5 -242t-86.5 -180.5t-28 -123.5q0 -54 14 -86q-17 -13 -37 -19.5t-45 -6.5zM144 187l15 71h346l-13 -71h-348zM339 827q-31 0 -42.5 11.5t-11.5 36.5q0 17 6 36.5t14 38.5q15 -5 31 -9t32 -4q45 0 82.5 11.5t70 23t60.5 11.5
q32 0 43 -11.5t11 -36.5q0 -16 -5.5 -36.5t-14.5 -39.5q-14 5 -30 9t-33 4q-44 0 -81.5 -11.5t-70 -22.5t-61.5 -11z" />
    <glyph glyph-name="Adieresis" unicode="&#xc4;" horiz-adv-x="693" 
d="M101 -24q-57 0 -57 83q0 39 18 96t53.5 132.5t89 168t124.5 200.5l-31 42q29 18 54.5 26t54.5 8q41 0 51 -20q24 20 52 20q30 0 45 -20t15 -64q0 -46 -1 -104.5t-0.5 -123.5t3.5 -129t10.5 -121t22 -101t36.5 -67q-33 -26 -77 -26q-35 0 -58 18.5t-36.5 62t-19 118
t-5.5 186.5v164.5t1 108.5h-12q-92 -137 -150.5 -242t-86.5 -180.5t-28 -123.5q0 -54 14 -86q-17 -13 -37 -19.5t-45 -6.5zM144 187l15 71h346l-13 -71h-348zM591 820q-30 0 -48 16t-18 41q0 20 10.5 37t29.5 27.5t44 10.5q29 0 46.5 -15.5t17.5 -40.5q0 -32 -23.5 -54
t-58.5 -22zM327 820q-29 0 -46 16t-17 41q0 20 10.5 37t29 27.5t42.5 10.5q30 0 48 -15.5t18 -40.5q0 -21 -11 -38.5t-30 -27.5t-44 -10z" />
    <glyph glyph-name="Aring" unicode="&#xc5;" horiz-adv-x="693" 
d="M101 -24q-57 0 -57 83q0 39 18 96t53.5 132.5t89 168t124.5 200.5l-31 42q29 18 54.5 26t54.5 8q41 0 51 -20q24 20 52 20q30 0 45 -20t15 -64q0 -46 -1 -104.5t-0.5 -123.5t3.5 -129t10.5 -121t22 -101t36.5 -67q-33 -26 -77 -26q-35 0 -58 18.5t-36.5 62t-19 118
t-5.5 186.5v164.5t1 108.5h-12q-92 -137 -150.5 -242t-86.5 -180.5t-28 -123.5q0 -54 14 -86q-17 -13 -37 -19.5t-45 -6.5zM144 187l15 71h346l-13 -71h-348zM453 769q-65 0 -104 36t-38 97q1 51 24 90t63.5 60.5t93.5 21.5q65 0 104 -35.5t38 -97.5q0 -50 -22.5 -89
t-63.5 -61t-95 -22zM460 829q36 0 59.5 32t23.5 81q0 73 -57 73q-12 0 -22 -1t-25 -6q-19 -20 -28.5 -46.5t-9.5 -55.5q0 -34 16.5 -55.5t42.5 -21.5z" />
    <glyph glyph-name="AE" unicode="&#xc6;" horiz-adv-x="861" 
d="M98 -29q-28 0 -41 20.5t-13 55.5q0 40 19.5 98.5t57.5 135t96 170.5t134 205l-30 42q29 15 54 21.5t55 6.5q26 0 41.5 -11t22.5 -33l-25 -48h-12q-100 -139 -164.5 -246.5t-95 -184.5t-30.5 -127q0 -22 2.5 -41.5t14.5 -36.5q-21 -17 -43.5 -22t-42.5 -5zM144 187l15 71
h326l-13 -71h-328zM680 -25q-61 0 -121.5 15.5t-101.5 42.5l33 42h224q32 4 58 10t51 16q5 -15 6.5 -24t1.5 -20q0 -42 -36 -62t-115 -20zM460 -26q-37 0 -54 19t-17 62q0 29 4 71t13 107.5t24.5 163t38.5 237.5l-34 50q32 20 63 31t56 11q44 0 44 -53q0 -8 -4.5 -39
t-12 -77t-16.5 -101t-18.5 -111.5t-17 -107.5t-12 -90t-4.5 -59q0 -25 11.5 -43.5t35.5 -32.5q-51 -38 -100 -38zM638 280q-28 0 -57 5t-68 15l14 69q30 -4 61.5 -6t65.5 -2l73 18q1 -6 1 -12.5v-11.5q0 -36 -23 -55.5t-67 -19.5zM758 582q-39 0 -77 3.5t-75.5 12
t-75.5 21.5l24 60q67 0 117.5 5.5t99 14.5t106.5 21q4 -13 4.5 -23t0.5 -19q0 -35 -17.5 -56t-46 -30.5t-60.5 -9.5z" />
    <glyph glyph-name="Ccedilla" unicode="&#xc7;" horiz-adv-x="662" 
d="M328 -25q-128 0 -201 75t-73 210q0 100 33 185t92 148t137 98t167 35q72 0 113 -23t41 -64q0 -34 -27 -57.5t-67 -23.5q-39 0 -75.5 17.5t-60.5 65.5q-65 -27 -116 -84t-80 -135t-29 -170q0 -97 38 -152t105 -55q53 0 92 26t62.5 70t27.5 99q38 0 60 -15.5t22 -53.5
q0 -53 -35.5 -98t-95 -71.5t-130.5 -26.5zM221 -301q-56 0 -89.5 23t-33.5 61q0 24 17 43.5t46 30.5t64 11q-21 -11 -33.5 -30t-12.5 -41q0 -23 12.5 -34t37.5 -11q33 0 56 22.5t23 54.5q0 80 -83 118q83 0 130.5 -31.5t47.5 -87.5q0 -36 -24 -65t-65 -46.5t-93 -17.5z" />
    <glyph glyph-name="Egrave" unicode="&#xc8;" horiz-adv-x="580" 
d="M179 -26q-37 0 -54 19t-17 62q0 29 3.5 70t12.5 105t24 159.5t37 233.5l-31 61q32 20 63 31t56 11q44 0 44 -53q0 -8 -4.5 -39t-12 -77t-17 -101t-18.5 -111.5t-16.5 -107.5t-12 -90t-4.5 -59q0 -25 11.5 -43.5t36.5 -32.5q-53 -38 -101 -38zM399 -25q-61 0 -121.5 15.5
t-101.5 42.5l33 42h224q32 4 58 10t51 16q5 -15 7 -24t2 -20q0 -42 -36.5 -62t-115.5 -20zM357 280q-28 0 -57 5t-68 15l14 69q30 -4 61.5 -6t65.5 -2l74 18q0 -6 0.5 -12.5t0.5 -11.5q0 -36 -23.5 -55.5t-67.5 -19.5zM477 582q-39 0 -77 3.5t-75.5 12t-75.5 21.5l24 60
q67 0 117.5 5.5t99 14.5t106.5 21q4 -13 4.5 -23t0.5 -19q0 -35 -17.5 -56t-46 -30.5t-60.5 -9.5zM509 806q-16 0 -41 10t-58.5 23t-72 23t-81.5 10q-4 11 -6.5 24.5t-2.5 29.5q0 61 54 61q26 0 49 -13t49.5 -33.5t61.5 -42.5t85 -41q-4 -25 -13.5 -38t-23.5 -13z" />
    <glyph glyph-name="Eacute" unicode="&#xc9;" horiz-adv-x="580" 
d="M179 -26q-37 0 -54 19t-17 62q0 29 3.5 70t12.5 105t24 159.5t37 233.5l-31 61q32 20 63 31t56 11q44 0 44 -53q0 -8 -4.5 -39t-12 -77t-17 -101t-18.5 -111.5t-16.5 -107.5t-12 -90t-4.5 -59q0 -25 11.5 -43.5t36.5 -32.5q-53 -38 -101 -38zM399 -25q-61 0 -121.5 15.5
t-101.5 42.5l33 42h224q32 4 58 10t51 16q5 -15 7 -24t2 -20q0 -42 -36.5 -62t-115.5 -20zM357 280q-28 0 -57 5t-68 15l14 69q30 -4 61.5 -6t65.5 -2l74 18q0 -6 0.5 -12.5t0.5 -11.5q0 -36 -23.5 -55.5t-67.5 -19.5zM477 582q-39 0 -77 3.5t-75.5 12t-75.5 21.5l24 60
q67 0 117.5 5.5t99 14.5t106.5 21q4 -13 4.5 -23t0.5 -19q0 -35 -17.5 -56t-46 -30.5t-60.5 -9.5zM317 806q-13 0 -22.5 12.5t-14.5 37.5q50 19 85 41t61.5 42.5t49.5 33.5t49 13q54 0 54 -61q0 -16 -2 -29.5t-7 -24.5q-43 0 -81.5 -10t-72 -22.5t-58.5 -22.5t-41 -10z" />
    <glyph glyph-name="Ecircumflex" unicode="&#xca;" horiz-adv-x="580" 
d="M179 -26q-37 0 -54 19t-17 62q0 29 3.5 70t12.5 105t24 159.5t37 233.5l-31 61q32 20 63 31t56 11q44 0 44 -53q0 -8 -4.5 -39t-12 -77t-17 -101t-18.5 -111.5t-16.5 -107.5t-12 -90t-4.5 -59q0 -25 11.5 -43.5t36.5 -32.5q-53 -38 -101 -38zM399 -25q-61 0 -121.5 15.5
t-101.5 42.5l33 42h224q32 4 58 10t51 16q5 -15 7 -24t2 -20q0 -42 -36.5 -62t-115.5 -20zM357 280q-28 0 -57 5t-68 15l14 69q30 -4 61.5 -6t65.5 -2l74 18q0 -6 0.5 -12.5t0.5 -11.5q0 -36 -23.5 -55.5t-67.5 -19.5zM477 582q-39 0 -77 3.5t-75.5 12t-75.5 21.5l24 60
q67 0 117.5 5.5t99 14.5t106.5 21q4 -13 4.5 -23t0.5 -19q0 -35 -17.5 -56t-46 -30.5t-60.5 -9.5zM321 799q-21 0 -32 8.5t-11 20.5q0 26 17 57.5t42 62t48 50.5q18 11 37.5 18t54.5 7q28 0 48.5 -12t21.5 -41l4 -87q1 -25 9.5 -40.5t20.5 -24.5q-18 -10 -34 -14.5t-35 -4.5
q-25 0 -41 11.5t-16 45.5q0 32 2.5 62t9.5 55h-15q-17 -16 -31 -41t-21.5 -55t-6.5 -60q-7 -7 -27 -12.5t-45 -5.5z" />
    <glyph glyph-name="Edieresis" unicode="&#xcb;" horiz-adv-x="580" 
d="M179 -26q-37 0 -54 19t-17 62q0 29 3.5 70t12.5 105t24 159.5t37 233.5l-31 61q32 20 63 31t56 11q44 0 44 -53q0 -8 -4.5 -39t-12 -77t-17 -101t-18.5 -111.5t-16.5 -107.5t-12 -90t-4.5 -59q0 -25 11.5 -43.5t36.5 -32.5q-53 -38 -101 -38zM399 -25q-61 0 -121.5 15.5
t-101.5 42.5l33 42h224q32 4 58 10t51 16q5 -15 7 -24t2 -20q0 -42 -36.5 -62t-115.5 -20zM357 280q-28 0 -57 5t-68 15l14 69q30 -4 61.5 -6t65.5 -2l74 18q0 -6 0.5 -12.5t0.5 -11.5q0 -36 -23.5 -55.5t-67.5 -19.5zM477 582q-39 0 -77 3.5t-75.5 12t-75.5 21.5l24 60
q67 0 117.5 5.5t99 14.5t106.5 21q4 -13 4.5 -23t0.5 -19q0 -35 -17.5 -56t-46 -30.5t-60.5 -9.5zM542 820q-30 0 -48 16t-18 41q0 20 10.5 37t29.5 27.5t44 10.5q29 0 46.5 -15.5t17.5 -40.5q0 -32 -23.5 -54t-58.5 -22zM278 820q-29 0 -46 16t-17 41q0 20 10.5 37t29 27.5
t42.5 10.5q30 0 48 -15.5t18 -40.5q0 -21 -11 -38.5t-30 -27.5t-44 -10z" />
    <glyph glyph-name="Igrave" unicode="&#xcc;" horiz-adv-x="372" 
d="M179 -25q-37 0 -54 19t-17 62q0 29 3.5 70.5t12.5 105.5t24 159.5t37 231.5l-31 61q32 20 63 31t56 11q44 0 44 -53q0 -8 -4.5 -39t-12 -77t-17 -100.5t-18.5 -111t-16.5 -107.5t-12 -90t-4.5 -59q0 -29 6 -51t18 -37q-39 -26 -77 -26zM373 806q-16 0 -41 10t-58.5 23
t-72 23t-81.5 10q-4 11 -6.5 24.5t-2.5 29.5q0 61 54 61q26 0 49 -13t49.5 -33.5t61.5 -42.5t85 -41q-4 -25 -13.5 -38t-23.5 -13z" />
    <glyph glyph-name="Iacute" unicode="&#xcd;" horiz-adv-x="372" 
d="M179 -25q-37 0 -54 19t-17 62q0 29 3.5 70.5t12.5 105.5t24 159.5t37 231.5l-31 61q32 20 63 31t56 11q44 0 44 -53q0 -8 -4.5 -39t-12 -77t-17 -100.5t-18.5 -111t-16.5 -107.5t-12 -90t-4.5 -59q0 -29 6 -51t18 -37q-39 -26 -77 -26zM181 806q-13 0 -22.5 12.5
t-14.5 37.5q50 19 85 41t61.5 42.5t49.5 33.5t49 13q54 0 54 -61q0 -16 -2 -29.5t-7 -24.5q-43 0 -81.5 -10t-72 -22.5t-58.5 -22.5t-41 -10z" />
    <glyph glyph-name="Icircumflex" unicode="&#xce;" horiz-adv-x="372" 
d="M179 -25q-37 0 -54 19t-17 62q0 29 3.5 70.5t12.5 105.5t24 159.5t37 231.5l-31 61q32 20 63 31t56 11q44 0 44 -53q0 -8 -4.5 -39t-12 -77t-17 -100.5t-18.5 -111t-16.5 -107.5t-12 -90t-4.5 -59q0 -29 6 -51t18 -37q-39 -26 -77 -26zM185 799q-21 0 -32 8.5t-11 20.5
q0 26 17 57.5t42 62t48 50.5q18 11 37.5 18t54.5 7q28 0 48.5 -12t21.5 -41l4 -87q1 -25 9.5 -40.5t20.5 -24.5q-18 -10 -34 -14.5t-35 -4.5q-25 0 -41 11.5t-16 45.5q0 32 2.5 62t9.5 55h-15q-17 -16 -31 -41t-21.5 -55t-6.5 -60q-7 -7 -27 -12.5t-45 -5.5z" />
    <glyph glyph-name="Idieresis" unicode="&#xcf;" horiz-adv-x="372" 
d="M179 -25q-37 0 -54 19t-17 62q0 29 3.5 70.5t12.5 105.5t24 159.5t37 231.5l-31 61q32 20 63 31t56 11q44 0 44 -53q0 -8 -4.5 -39t-12 -77t-17 -100.5t-18.5 -111t-16.5 -107.5t-12 -90t-4.5 -59q0 -29 6 -51t18 -37q-39 -26 -77 -26zM406 820q-30 0 -48 16t-18 41
q0 20 10.5 37t29.5 27.5t44 10.5q29 0 46.5 -15.5t17.5 -40.5q0 -32 -23.5 -54t-58.5 -22zM142 820q-29 0 -46 16t-17 41q0 20 10.5 37t29 27.5t42.5 10.5q30 0 48 -15.5t18 -40.5q0 -21 -11 -38.5t-30 -27.5t-44 -10z" />
    <glyph glyph-name="Eth" unicode="&#xd0;" horiz-adv-x="828" 
d="M330 -25q-111 0 -166.5 30t-55.5 92q0 25 4 66t13 103.5t23.5 150.5t34.5 206l-31 61q35 20 65.5 31t51.5 11q45 0 45 -53q0 -8 -4.5 -40t-12 -79.5t-16 -104.5t-17.5 -115.5t-16.5 -111.5t-12 -94.5t-4.5 -62.5q29 -9 55.5 -13t58.5 -4q85 0 150 43.5t102 120t37 174.5
q0 127 -51 193.5t-148 66.5q-46 0 -76 -8t-55.5 -22.5t-59.5 -34.5l-6 51q35 25 67.5 46t73.5 34.5t99 13.5q87 0 151 -39t99 -110.5t35 -169.5q0 -96 -31.5 -175t-89 -136.5t-137 -89t-175.5 -31.5zM70 296q-31 0 -42.5 12t-11.5 34q0 12 4 27t14 31q20 -7 51.5 -9.5
t56.5 -2.5q58 0 118.5 13t121.5 13q32 0 42.5 -12t10.5 -34q0 -13 -3 -27.5t-14 -29.5q-19 7 -50 9t-54 2q-39 0 -79.5 -6.5t-81.5 -13t-83 -6.5z" />
    <glyph glyph-name="Ntilde" unicode="&#xd1;" horiz-adv-x="844" 
d="M651 -27q-33 0 -59.5 8t-49.5 30.5t-45.5 66t-48.5 113t-58.5 172.5t-74.5 245h-47l4 118q32 0 57.5 -12.5t49.5 -47.5t51 -102.5t62.5 -176.5t83.5 -271l76 -1zM179 -26q-37 0 -54 19t-17 62q0 29 3.5 70.5t12.5 105.5t24 159.5t37 232.5l-31 61q32 20 63 31t56 11
q44 0 44 -53q0 -8 -4.5 -39t-12 -77t-17 -101t-18.5 -111.5t-16.5 -107.5t-12 -90t-4.5 -59q0 -29 6 -51t18 -37q-39 -26 -77 -26zM651 -27q-37 0 -54 19.5t-17 62.5q0 29 3.5 70.5t12.5 105.5t24 159.5t38 232.5l-34 61q33 20 64.5 31t56.5 11q44 0 44 -53q0 -8 -4.5 -39
t-12 -77t-16.5 -101t-18.5 -111.5t-17 -108t-12 -90.5t-4.5 -59q0 -28 6 -50t18 -38q-20 -13 -38.5 -19.5t-38.5 -6.5zM390 827q-31 0 -42.5 11.5t-11.5 36.5q0 17 6 36.5t14 38.5q15 -5 31 -9t32 -4q45 0 82.5 11.5t70 23t60.5 11.5q32 0 43 -11.5t11 -36.5
q0 -16 -5.5 -36.5t-14.5 -39.5q-14 5 -30 9t-33 4q-44 0 -81.5 -11.5t-70 -22.5t-61.5 -11z" />
    <glyph glyph-name="Ograve" unicode="&#xd2;" horiz-adv-x="744" 
d="M336 -25q-85 0 -148.5 38t-98.5 106.5t-35 161.5q0 103 30.5 185t83.5 140t122 88.5t145 30.5q50 0 74 -14.5t24 -45.5q0 -10 -1.5 -18.5t-6.5 -19.5q-11 3 -28.5 5.5t-30.5 2.5q-79 0 -143 -43.5t-102 -122t-38 -184.5q0 -121 49.5 -180.5t130.5 -59.5q41 0 83 20.5
t79 58.5t63.5 92t34.5 120q-64 29 -87.5 72t-23.5 90q0 33 13 58.5t35 40.5t50 15q52 0 80.5 -45.5t28.5 -125.5q0 -98 -28.5 -183t-80 -148.5t-121.5 -99t-153 -35.5zM592 806q-16 0 -41 10t-58.5 23t-72 23t-81.5 10q-4 11 -6.5 24.5t-2.5 29.5q0 61 54 61q26 0 49 -13
t49.5 -33.5t61.5 -42.5t85 -41q-4 -25 -13.5 -38t-23.5 -13z" />
    <glyph glyph-name="Oacute" unicode="&#xd3;" horiz-adv-x="744" 
d="M336 -25q-85 0 -148.5 38t-98.5 106.5t-35 161.5q0 103 30.5 185t83.5 140t122 88.5t145 30.5q50 0 74 -14.5t24 -45.5q0 -10 -1.5 -18.5t-6.5 -19.5q-11 3 -28.5 5.5t-30.5 2.5q-79 0 -143 -43.5t-102 -122t-38 -184.5q0 -121 49.5 -180.5t130.5 -59.5q41 0 83 20.5
t79 58.5t63.5 92t34.5 120q-64 29 -87.5 72t-23.5 90q0 33 13 58.5t35 40.5t50 15q52 0 80.5 -45.5t28.5 -125.5q0 -98 -28.5 -183t-80 -148.5t-121.5 -99t-153 -35.5zM400 806q-13 0 -22.5 12.5t-14.5 37.5q50 19 85 41t61.5 42.5t49.5 33.5t49 13q54 0 54 -61
q0 -16 -2 -29.5t-7 -24.5q-43 0 -81.5 -10t-72 -22.5t-58.5 -22.5t-41 -10z" />
    <glyph glyph-name="Ocircumflex" unicode="&#xd4;" horiz-adv-x="744" 
d="M336 -25q-85 0 -148.5 38t-98.5 106.5t-35 161.5q0 103 30.5 185t83.5 140t122 88.5t145 30.5q50 0 74 -14.5t24 -45.5q0 -10 -1.5 -18.5t-6.5 -19.5q-11 3 -28.5 5.5t-30.5 2.5q-79 0 -143 -43.5t-102 -122t-38 -184.5q0 -121 49.5 -180.5t130.5 -59.5q41 0 83 20.5
t79 58.5t63.5 92t34.5 120q-64 29 -87.5 72t-23.5 90q0 33 13 58.5t35 40.5t50 15q52 0 80.5 -45.5t28.5 -125.5q0 -98 -28.5 -183t-80 -148.5t-121.5 -99t-153 -35.5zM404 799q-21 0 -32 8.5t-11 20.5q0 26 17 57.5t42 62t48 50.5q18 11 37.5 18t54.5 7q28 0 48.5 -12
t21.5 -41l4 -87q1 -25 9.5 -40.5t20.5 -24.5q-18 -10 -34 -14.5t-35 -4.5q-25 0 -41 11.5t-16 45.5q0 32 2.5 62t9.5 55h-15q-17 -16 -31 -41t-21.5 -55t-6.5 -60q-7 -7 -27 -12.5t-45 -5.5z" />
    <glyph glyph-name="Otilde" unicode="&#xd5;" horiz-adv-x="744" 
d="M336 -25q-85 0 -148.5 38t-98.5 106.5t-35 161.5q0 103 30.5 185t83.5 140t122 88.5t145 30.5q50 0 74 -14.5t24 -45.5q0 -10 -1.5 -18.5t-6.5 -19.5q-11 3 -28.5 5.5t-30.5 2.5q-79 0 -143 -43.5t-102 -122t-38 -184.5q0 -121 49.5 -180.5t130.5 -59.5q41 0 83 20.5
t79 58.5t63.5 92t34.5 120q-64 29 -87.5 72t-23.5 90q0 33 13 58.5t35 40.5t50 15q52 0 80.5 -45.5t28.5 -125.5q0 -98 -28.5 -183t-80 -148.5t-121.5 -99t-153 -35.5zM373 827q-31 0 -42.5 11.5t-11.5 36.5q0 17 6 36.5t14 38.5q15 -5 31 -9t32 -4q45 0 82.5 11.5t70 23
t60.5 11.5q32 0 43 -11.5t11 -36.5q0 -16 -5.5 -36.5t-14.5 -39.5q-14 5 -30 9t-33 4q-44 0 -81.5 -11.5t-70 -22.5t-61.5 -11z" />
    <glyph glyph-name="Odieresis" unicode="&#xd6;" horiz-adv-x="744" 
d="M336 -25q-85 0 -148.5 38t-98.5 106.5t-35 161.5q0 103 30.5 185t83.5 140t122 88.5t145 30.5q50 0 74 -14.5t24 -45.5q0 -10 -1.5 -18.5t-6.5 -19.5q-11 3 -28.5 5.5t-30.5 2.5q-79 0 -143 -43.5t-102 -122t-38 -184.5q0 -121 49.5 -180.5t130.5 -59.5q41 0 83 20.5
t79 58.5t63.5 92t34.5 120q-64 29 -87.5 72t-23.5 90q0 33 13 58.5t35 40.5t50 15q52 0 80.5 -45.5t28.5 -125.5q0 -98 -28.5 -183t-80 -148.5t-121.5 -99t-153 -35.5zM625 820q-30 0 -48 16t-18 41q0 20 10.5 37t29.5 27.5t44 10.5q29 0 46.5 -15.5t17.5 -40.5
q0 -32 -23.5 -54t-58.5 -22zM361 820q-29 0 -46 16t-17 41q0 20 10.5 37t29 27.5t42.5 10.5q30 0 48 -15.5t18 -40.5q0 -21 -11 -38.5t-30 -27.5t-44 -10z" />
    <glyph glyph-name="multiply" unicode="&#xd7;" horiz-adv-x="668" 
d="M192 155q-19 7 -37 16.5t-29.5 22t-11.5 24.5q0 10 8.5 23t28.5 30l354 323q20 -7 37.5 -17.5t28.5 -22.5t11 -24q0 -10 -8 -23t-29 -31zM455 155l-273 335q-9 11 -14 19.5t-5 16.5q0 14 12 25.5t30.5 22t35.5 20.5l274 -335q9 -13 14 -21t5 -16q0 -14 -12 -26
t-30.5 -21.5t-36.5 -19.5z" />
    <glyph glyph-name="Oslash" unicode="&#xd8;" horiz-adv-x="744" 
d="M336 -25q-85 0 -148.5 38t-98.5 106.5t-35 161.5q0 103 30.5 185t83.5 140t122 88.5t145 30.5q50 0 74 -14.5t24 -45.5q0 -10 -1.5 -18.5t-6.5 -19.5q-11 3 -28.5 5.5t-30.5 2.5q-79 0 -143 -43.5t-102 -122t-38 -184.5q0 -121 49.5 -180.5t130.5 -59.5q41 0 83 20.5
t79 58.5t63.5 92t34.5 120q-64 29 -87.5 72t-23.5 90q0 33 13 58.5t35 40.5t50 15q52 0 80.5 -45.5t28.5 -125.5q0 -98 -28.5 -183t-80 -148.5t-121.5 -99t-153 -35.5zM298 -103q-14 0 -28.5 4.5t-25.5 11.5q49 149 103 355.5t117 486.5q13 58 64 58q14 0 28.5 -4t25.5 -12
q-49 -148 -103 -354.5t-117 -487.5q-13 -58 -64 -58z" />
    <glyph glyph-name="Ugrave" unicode="&#xd9;" horiz-adv-x="812" 
d="M618 -26q-27 0 -42 14.5t-21.5 39t-6.5 52.5q0 27 5 56.5t12 58.5l-6 1q-30 -57 -74.5 -107t-101.5 -81t-125 -31q-43 0 -72 15t-46 39.5t-24.5 55t-7.5 60.5q0 24 3.5 59.5t12 90t23 134t36.5 192.5l-31 61q29 20 60.5 31.5t56.5 11.5q45 0 45 -54q0 -8 -6 -42
t-16 -83.5t-21 -105.5t-21 -109.5t-16 -95.5t-6 -62q0 -51 17 -80.5t71 -29.5q41 0 89.5 32t94 89.5t74.5 134.5q-2 17 -4.5 46.5t-2.5 65.5q0 35 3 75.5t11.5 79t23.5 70t39.5 50.5t60.5 19q14 0 30.5 -5.5t31.5 -16.5q-14 -51 -30.5 -126t-31.5 -161.5t-24.5 -173
t-9.5 -160.5q0 -54 18 -84q-19 -13 -36.5 -19.5t-34.5 -6.5zM596 806q-16 0 -41 10t-58.5 23t-72 23t-81.5 10q-4 11 -6.5 24.5t-2.5 29.5q0 61 54 61q26 0 49 -13t49.5 -33.5t61.5 -42.5t85 -41q-4 -25 -13.5 -38t-23.5 -13z" />
    <glyph glyph-name="Uacute" unicode="&#xda;" horiz-adv-x="812" 
d="M618 -26q-27 0 -42 14.5t-21.5 39t-6.5 52.5q0 27 5 56.5t12 58.5l-6 1q-30 -57 -74.5 -107t-101.5 -81t-125 -31q-43 0 -72 15t-46 39.5t-24.5 55t-7.5 60.5q0 24 3.5 59.5t12 90t23 134t36.5 192.5l-31 61q29 20 60.5 31.5t56.5 11.5q45 0 45 -54q0 -8 -6 -42
t-16 -83.5t-21 -105.5t-21 -109.5t-16 -95.5t-6 -62q0 -51 17 -80.5t71 -29.5q41 0 89.5 32t94 89.5t74.5 134.5q-2 17 -4.5 46.5t-2.5 65.5q0 35 3 75.5t11.5 79t23.5 70t39.5 50.5t60.5 19q14 0 30.5 -5.5t31.5 -16.5q-14 -51 -30.5 -126t-31.5 -161.5t-24.5 -173
t-9.5 -160.5q0 -54 18 -84q-19 -13 -36.5 -19.5t-34.5 -6.5zM404 806q-13 0 -22.5 12.5t-14.5 37.5q50 19 85 41t61.5 42.5t49.5 33.5t49 13q54 0 54 -61q0 -16 -2 -29.5t-7 -24.5q-43 0 -81.5 -10t-72 -22.5t-58.5 -22.5t-41 -10z" />
    <glyph glyph-name="Ucircumflex" unicode="&#xdb;" horiz-adv-x="812" 
d="M618 -26q-27 0 -42 14.5t-21.5 39t-6.5 52.5q0 27 5 56.5t12 58.5l-6 1q-30 -57 -74.5 -107t-101.5 -81t-125 -31q-43 0 -72 15t-46 39.5t-24.5 55t-7.5 60.5q0 24 3.5 59.5t12 90t23 134t36.5 192.5l-31 61q29 20 60.5 31.5t56.5 11.5q45 0 45 -54q0 -8 -6 -42
t-16 -83.5t-21 -105.5t-21 -109.5t-16 -95.5t-6 -62q0 -51 17 -80.5t71 -29.5q41 0 89.5 32t94 89.5t74.5 134.5q-2 17 -4.5 46.5t-2.5 65.5q0 35 3 75.5t11.5 79t23.5 70t39.5 50.5t60.5 19q14 0 30.5 -5.5t31.5 -16.5q-14 -51 -30.5 -126t-31.5 -161.5t-24.5 -173
t-9.5 -160.5q0 -54 18 -84q-19 -13 -36.5 -19.5t-34.5 -6.5zM408 799q-21 0 -32 8.5t-11 20.5q0 26 17 57.5t42 62t48 50.5q18 11 37.5 18t54.5 7q28 0 48.5 -12t21.5 -41l4 -87q1 -25 9.5 -40.5t20.5 -24.5q-18 -10 -34 -14.5t-35 -4.5q-25 0 -41 11.5t-16 45.5
q0 32 2.5 62t9.5 55h-15q-17 -16 -31 -41t-21.5 -55t-6.5 -60q-7 -7 -27 -12.5t-45 -5.5z" />
    <glyph glyph-name="Udieresis" unicode="&#xdc;" horiz-adv-x="812" 
d="M618 -26q-27 0 -42 14.5t-21.5 39t-6.5 52.5q0 27 5 56.5t12 58.5l-6 1q-30 -57 -74.5 -107t-101.5 -81t-125 -31q-43 0 -72 15t-46 39.5t-24.5 55t-7.5 60.5q0 24 3.5 59.5t12 90t23 134t36.5 192.5l-31 61q29 20 60.5 31.5t56.5 11.5q45 0 45 -54q0 -8 -6 -42
t-16 -83.5t-21 -105.5t-21 -109.5t-16 -95.5t-6 -62q0 -51 17 -80.5t71 -29.5q41 0 89.5 32t94 89.5t74.5 134.5q-2 17 -4.5 46.5t-2.5 65.5q0 35 3 75.5t11.5 79t23.5 70t39.5 50.5t60.5 19q14 0 30.5 -5.5t31.5 -16.5q-14 -51 -30.5 -126t-31.5 -161.5t-24.5 -173
t-9.5 -160.5q0 -54 18 -84q-19 -13 -36.5 -19.5t-34.5 -6.5zM629 820q-30 0 -48 16t-18 41q0 20 10.5 37t29.5 27.5t44 10.5q29 0 46.5 -15.5t17.5 -40.5q0 -32 -23.5 -54t-58.5 -22zM365 820q-29 0 -46 16t-17 41q0 20 10.5 37t29 27.5t42.5 10.5q30 0 48 -15.5t18 -40.5
q0 -21 -11 -38.5t-30 -27.5t-44 -10z" />
    <glyph glyph-name="Yacute" unicode="&#xdd;" horiz-adv-x="793" 
d="M89 -242q-73 0 -106.5 26.5t-33.5 67.5q0 16 7 33t14 29q12 -14 29.5 -28.5t46 -24.5t72.5 -10q38 0 89.5 17t108 53.5t110.5 95.5t98 141.5t70.5 191.5t26.5 247q0 31 -5 55.5t-19 46.5q31 17 49.5 22t37.5 5q28 0 44.5 -24t16.5 -65q0 -82 -15 -168.5t-44 -172
t-71.5 -165t-97.5 -147.5t-121 -118.5t-143 -79t-164 -28.5zM398 -30q-65 0 -106 24.5t-63.5 67t-32.5 97.5t-12.5 116.5t-3.5 123.5t-6.5 119.5t-20.5 104t-46 76.5q36 27 75 27q49 0 75.5 -30t37.5 -80.5t13 -113t1.5 -130t3.5 -130t19 -113t47 -80.5t89 -30zM380 806
q-13 0 -22.5 12.5t-14.5 37.5q50 19 85 41t61.5 42.5t49.5 33.5t49 13q54 0 54 -61q0 -16 -2 -29.5t-7 -24.5q-43 0 -81.5 -10t-72 -22.5t-58.5 -22.5t-41 -10z" />
    <glyph glyph-name="Thorn" unicode="&#xde;" horiz-adv-x="693" 
d="M384 111q-60 0 -107.5 16.5t-87.5 47.5l36 47q24 -18 55 -26t62 -8q66 0 113.5 26.5t73 73t25.5 104.5q0 42 -14 78t-46.5 58t-88.5 22q-40 0 -80 -18.5t-84 -51.5v42q31 31 62 55t71 38.5t96 14.5q69 0 116 -31.5t71 -82.5t24 -110q0 -57 -18 -110t-54 -94.5t-92 -66
t-133 -24.5zM179 -26q-37 0 -54 19t-17 62q0 29 3.5 70.5t12.5 105.5t24 159.5t37 232.5l-31 61q32 20 63 31t56 11q44 0 44 -53q0 -8 -4.5 -39t-12 -77t-17 -101t-18.5 -111.5t-16.5 -107.5t-12 -90t-4.5 -59q0 -29 6 -51t18 -37q-39 -26 -77 -26z" />
    <glyph glyph-name="germandbls" unicode="&#xdf;" horiz-adv-x="692" 
d="M144 -210q-32 0 -47 21.5t-15 64.5q0 25 11 104t31.5 204.5t48.5 288.5q22 125 93 188.5t186 63.5q64 0 112 -19t74.5 -53t26.5 -80q0 -60 -38.5 -108t-113.5 -82q43 -11 75.5 -39t51.5 -67t19 -84q0 -102 -68 -160t-187 -58q-72 0 -111.5 22.5t-39.5 62.5q0 19 12 37.5
t32 32.5q8 -37 37.5 -60.5t67.5 -23.5q42 0 74 20t50 55t18 79q0 60 -27 103.5t-78 67.5q36 18 62.5 46t41 62t14.5 69q0 51 -29.5 82.5t-76.5 31.5q-45 0 -76.5 -21t-52.5 -69t-37 -130q-22 -120 -38 -214.5t-26.5 -164.5t-16 -115.5t-5.5 -65.5q0 -46 22 -64
q-14 -13 -35 -20.5t-42 -7.5zM115 323q-38 0 -55 11t-17 35q0 30 18 57q14 -5 35.5 -8t44.5 -3q24 0 42 2t43 7l15 -83q-14 -4 -36.5 -8.5t-46.5 -7t-43 -2.5z" />
    <glyph glyph-name="agrave" unicode="&#xe0;" horiz-adv-x="748" 
d="M258 -25q-54 0 -95 29t-64 82t-23 124q0 83 29.5 153.5t81.5 124t122 83t151 29.5q46 0 94 -8q6 -10 9 -22t3 -25q-87 0 -155 -25t-115.5 -70.5t-72 -105.5t-24.5 -131q0 -68 28 -106t79 -38q93 0 153 119t90 357q11 14 28.5 22t35.5 8q25 0 39.5 -11.5t14.5 -33.5
q0 -33 -12 -83.5t-27 -113.5t-27 -134t-12 -144q0 -35 18 -52q-16 -15 -33 -21.5t-34 -6.5q-34 0 -52 21t-18 61q0 13 2 28.5t5 31.5l-10 5q-36 -70 -90.5 -108.5t-118.5 -38.5zM538 671q-16 0 -41 10t-58.5 23t-72 23t-81.5 10q-4 11 -6.5 24.5t-2.5 29.5q0 61 54 61
q26 0 49 -13t49.5 -33.5t61.5 -42.5t85 -41q-4 -25 -13.5 -38t-23.5 -13z" />
    <glyph glyph-name="aacute" unicode="&#xe1;" horiz-adv-x="748" 
d="M258 -25q-54 0 -95 29t-64 82t-23 124q0 83 29.5 153.5t81.5 124t122 83t151 29.5q46 0 94 -8q6 -10 9 -22t3 -25q-87 0 -155 -25t-115.5 -70.5t-72 -105.5t-24.5 -131q0 -68 28 -106t79 -38q93 0 153 119t90 357q11 14 28.5 22t35.5 8q25 0 39.5 -11.5t14.5 -33.5
q0 -33 -12 -83.5t-27 -113.5t-27 -134t-12 -144q0 -35 18 -52q-16 -15 -33 -21.5t-34 -6.5q-34 0 -52 21t-18 61q0 13 2 28.5t5 31.5l-10 5q-36 -70 -90.5 -108.5t-118.5 -38.5zM346 671q-13 0 -22.5 12.5t-14.5 37.5q50 19 85 41t61.5 42.5t49.5 33.5t49 13q54 0 54 -61
q0 -16 -2 -29.5t-7 -24.5q-43 0 -81.5 -10t-72 -22.5t-58.5 -22.5t-41 -10z" />
    <glyph glyph-name="acircumflex" unicode="&#xe2;" horiz-adv-x="748" 
d="M258 -25q-54 0 -95 29t-64 82t-23 124q0 83 29.5 153.5t81.5 124t122 83t151 29.5q46 0 94 -8q6 -10 9 -22t3 -25q-87 0 -155 -25t-115.5 -70.5t-72 -105.5t-24.5 -131q0 -68 28 -106t79 -38q93 0 153 119t90 357q11 14 28.5 22t35.5 8q25 0 39.5 -11.5t14.5 -33.5
q0 -33 -12 -83.5t-27 -113.5t-27 -134t-12 -144q0 -35 18 -52q-16 -15 -33 -21.5t-34 -6.5q-34 0 -52 21t-18 61q0 13 2 28.5t5 31.5l-10 5q-36 -70 -90.5 -108.5t-118.5 -38.5zM350 664q-21 0 -32 8.5t-11 20.5q0 26 17 57.5t42 62t48 50.5q18 11 37.5 18t54.5 7
q28 0 48.5 -12t21.5 -41l4 -87q1 -25 9.5 -40.5t20.5 -24.5q-18 -10 -34 -14.5t-35 -4.5q-25 0 -41 11.5t-16 45.5q0 32 2.5 62t9.5 55h-15q-17 -16 -31 -41t-21.5 -55t-6.5 -60q-7 -7 -27 -12.5t-45 -5.5z" />
    <glyph glyph-name="atilde" unicode="&#xe3;" horiz-adv-x="748" 
d="M258 -25q-54 0 -95 29t-64 82t-23 124q0 83 29.5 153.5t81.5 124t122 83t151 29.5q46 0 94 -8q6 -10 9 -22t3 -25q-87 0 -155 -25t-115.5 -70.5t-72 -105.5t-24.5 -131q0 -68 28 -106t79 -38q93 0 153 119t90 357q11 14 28.5 22t35.5 8q25 0 39.5 -11.5t14.5 -33.5
q0 -33 -12 -83.5t-27 -113.5t-27 -134t-12 -144q0 -35 18 -52q-16 -15 -33 -21.5t-34 -6.5q-34 0 -52 21t-18 61q0 13 2 28.5t5 31.5l-10 5q-36 -70 -90.5 -108.5t-118.5 -38.5zM319 692q-31 0 -42.5 11.5t-11.5 36.5q0 17 6 36.5t14 38.5q15 -5 31 -9t32 -4q45 0 82.5 11.5
t70 23t60.5 11.5q32 0 43 -11.5t11 -36.5q0 -16 -5.5 -36.5t-14.5 -39.5q-14 5 -30 9t-33 4q-44 0 -81.5 -11.5t-70 -22.5t-61.5 -11z" />
    <glyph glyph-name="adieresis" unicode="&#xe4;" horiz-adv-x="748" 
d="M258 -25q-54 0 -95 29t-64 82t-23 124q0 83 29.5 153.5t81.5 124t122 83t151 29.5q46 0 94 -8q6 -10 9 -22t3 -25q-87 0 -155 -25t-115.5 -70.5t-72 -105.5t-24.5 -131q0 -68 28 -106t79 -38q93 0 153 119t90 357q11 14 28.5 22t35.5 8q25 0 39.5 -11.5t14.5 -33.5
q0 -33 -12 -83.5t-27 -113.5t-27 -134t-12 -144q0 -35 18 -52q-16 -15 -33 -21.5t-34 -6.5q-34 0 -52 21t-18 61q0 13 2 28.5t5 31.5l-10 5q-36 -70 -90.5 -108.5t-118.5 -38.5zM571 685q-30 0 -48 16t-18 41q0 20 10.5 37t29.5 27.5t44 10.5q29 0 46.5 -15.5t17.5 -40.5
q0 -32 -23.5 -54t-58.5 -22zM307 685q-29 0 -46 16t-17 41q0 20 10.5 37t29 27.5t42.5 10.5q30 0 48 -15.5t18 -40.5q0 -21 -11 -38.5t-30 -27.5t-44 -10z" />
    <glyph glyph-name="aring" unicode="&#xe5;" horiz-adv-x="748" 
d="M258 -25q-54 0 -95 29t-64 82t-23 124q0 83 29.5 153.5t81.5 124t122 83t151 29.5q46 0 94 -8q6 -10 9 -22t3 -25q-87 0 -155 -25t-115.5 -70.5t-72 -105.5t-24.5 -131q0 -68 28 -106t79 -38q93 0 153 119t90 357q11 14 28.5 22t35.5 8q25 0 39.5 -11.5t14.5 -33.5
q0 -33 -12 -83.5t-27 -113.5t-27 -134t-12 -144q0 -35 18 -52q-16 -15 -33 -21.5t-34 -6.5q-34 0 -52 21t-18 61q0 13 2 28.5t5 31.5l-10 5q-36 -70 -90.5 -108.5t-118.5 -38.5zM433 634q-65 0 -104 36t-38 97q1 51 24 90t63.5 60.5t93.5 21.5q65 0 104 -35.5t38 -97.5
q0 -50 -22.5 -89t-63.5 -61t-95 -22zM440 694q36 0 59.5 32t23.5 81q0 73 -57 73q-12 0 -22 -1t-25 -6q-19 -20 -28.5 -46.5t-9.5 -55.5q0 -34 16.5 -55.5t42.5 -21.5z" />
    <glyph glyph-name="ae" unicode="&#xe6;" horiz-adv-x="1030" 
d="M258 -25q-54 0 -95 29t-64 82t-23 124q0 77 29.5 143.5t81.5 116t122 77.5t151 28q54 0 94 -8q6 -10 9 -21.5t3 -25.5q-85 0 -152.5 -22.5t-115.5 -63.5t-73.5 -97t-25.5 -124t28 -106t79 -38q36 0 72 21.5t67 62.5t51 97l-24 -128h-7q-35 -70 -89.5 -108.5t-117.5 -38.5
zM684 -25q-106 0 -166 65t-60 179q0 83 27 152.5t76 120.5t115 79.5t144 28.5q79 0 123.5 -37.5t44.5 -105.5q0 -71 -51 -121.5t-148 -76.5t-236 -27l12 56q149 -1 231.5 44.5t82.5 127.5q0 35 -20.5 56t-55.5 21q-45 0 -85 -25t-70.5 -69.5t-48 -103.5t-17.5 -126
q0 -79 30 -125t82 -46q65 0 106 41t45 109q38 0 59.5 -14t21.5 -46q0 -40 -31.5 -76t-86.5 -58.5t-124 -22.5z" />
    <glyph glyph-name="ccedilla" unicode="&#xe7;" horiz-adv-x="620" 
d="M313 -25q-109 0 -172 64t-63 178q0 82 28 152t77.5 121.5t115 80.5t140.5 29q63 0 99.5 -20.5t36.5 -56.5q0 -30 -23.5 -50.5t-58.5 -20.5q-34 0 -65 16t-51 56q-50 -22 -90 -68t-63 -108.5t-23 -136.5q0 -79 29.5 -124t81.5 -45q43 0 75.5 21.5t52 57.5t21.5 81
q38 0 59.5 -14.5t21.5 -46.5q0 -45 -31 -83t-83 -60.5t-115 -22.5zM223 -301q-56 0 -89.5 23t-33.5 61q0 24 17 43.5t46 30.5t64 11q-21 -11 -33.5 -30t-12.5 -41q0 -23 12.5 -34t37.5 -11q33 0 56 22.5t23 54.5q0 80 -83 118q83 0 130.5 -31.5t47.5 -87.5q0 -36 -24 -65
t-65 -46.5t-93 -17.5z" />
    </font>
</defs>
</svg>
